<svg width="255" height="220" viewBox="0 0 255 220" fill="none" xmlns="http://www.w3.org/2000/svg">
<path d="M209.364 54.5862C221.647 54.5862 231.604 46.0174 231.604 35.4473C231.604 24.8771 221.647 16.3083 209.364 16.3083C197.08 16.3083 187.123 24.8771 187.123 35.4473C187.123 46.0174 197.08 54.5862 209.364 54.5862Z" fill="#EBEBEB"/>
<path d="M211.774 52.4023C207.52 52.4037 203.355 51.355 199.773 49.3805C196.19 47.4059 193.342 44.5885 191.564 41.2626C189.787 37.9366 189.155 34.2417 189.745 30.6162C190.335 26.9907 192.12 23.5869 194.891 20.8086C192.559 22.5234 190.665 24.6347 189.327 27.0097C187.989 29.3847 187.237 31.9722 187.117 34.6095C186.997 37.2468 187.513 39.877 188.631 42.3347C189.749 44.7924 191.445 47.0245 193.614 48.8908C195.783 50.7571 198.377 52.2172 201.233 53.1794C204.089 54.1415 207.145 54.585 210.21 54.4818C213.275 54.3787 216.281 53.7312 219.041 52.58C221.801 51.4288 224.255 49.7988 226.247 47.7924C222.221 50.7719 217.085 52.4078 211.774 52.4023Z" fill="#E0E0E0"/>
<path d="M227.309 31.6866C228.031 29.0636 226.146 26.4331 223.098 25.8111C220.05 25.1891 216.993 26.8112 216.271 29.4342C215.548 32.0572 217.433 34.6878 220.481 35.3098C223.529 35.9318 226.586 34.3096 227.309 31.6866Z" fill="#FAFAFA"/>
<path d="M217.811 22.826C217.811 23.2155 217.677 23.5963 217.425 23.9202C217.174 24.2441 216.816 24.4966 216.398 24.6456C215.98 24.7947 215.52 24.8337 215.076 24.7577C214.632 24.6817 214.224 24.4941 213.904 24.2187C213.584 23.9432 213.366 23.5923 213.277 23.2102C213.189 22.8282 213.234 22.4322 213.408 22.0723C213.581 21.7124 213.874 21.4048 214.251 21.1884C214.627 20.972 215.069 20.8564 215.522 20.8564C216.129 20.8564 216.711 21.064 217.141 21.4333C217.57 21.8027 217.811 22.3036 217.811 22.826Z" fill="#FAFAFA"/>
<path d="M221.803 48.5204C222.743 48.5204 223.505 47.8644 223.505 47.0551C223.505 46.2459 222.743 45.5898 221.803 45.5898C220.862 45.5898 220.1 46.2459 220.1 47.0551C220.1 47.8644 220.862 48.5204 221.803 48.5204Z" fill="#E0E0E0"/>
<path d="M68.695 5.32837L69.8892 7.20753L72.0673 8.23037L69.8892 9.25796L68.695 11.1371L67.5009 9.25796L65.3228 8.23037L67.5009 7.20753L68.695 5.32837Z" fill="#FAFAFA"/>
<path d="M197.821 69.2246L199.015 71.099L201.193 72.1266L199.015 73.1542L197.821 75.0286L196.626 73.1542L194.448 72.1266L196.626 71.099L197.821 69.2246Z" fill="#E0E0E0"/>
<path d="M55.2944 145.666L56.4885 147.545L58.6667 148.568L56.4885 149.596L55.2944 151.47L54.1003 149.596L51.9221 148.568L54.1003 147.545L55.2944 145.666Z" fill="#E0E0E0"/>
<path d="M47.0297 152.555L47.5494 153.373L48.4947 153.815L47.5494 154.263L47.0297 155.076L46.5156 154.263L45.5647 153.815L46.5156 153.373L47.0297 152.555Z" fill="#E0E0E0"/>
<path d="M45.371 75.2995C45.6972 73.2681 42.3581 71.5935 39.8427 71.4175C38.6486 71.3366 37.4047 71.4936 36.2714 71.1511C33.8168 70.4184 32.8383 67.6877 30.4445 66.8171C28.6533 66.1701 26.5747 66.7458 24.8554 67.4974C23.1361 68.2491 21.4057 69.1958 19.4652 69.3052C17.7791 69.3956 15.9437 68.858 14.4897 69.5669C13.3841 70.095 12.8312 71.1844 11.803 71.8314C10.7747 72.4784 9.51424 72.5926 8.28695 72.6497C7.05966 72.7067 5.78261 72.7163 4.66036 73.1587C3.53811 73.6011 2.61488 74.6192 2.84707 75.6611L45.371 75.2995Z" fill="#FAFAFA"/>
<path d="M78.1486 121.812C78.624 118.839 73.7259 116.389 70.0772 116.137C68.3248 116.013 66.5114 116.246 64.8529 115.747C61.2651 114.672 59.8277 110.68 56.3283 109.41C53.7078 108.458 50.6949 109.305 48.1574 110.404C45.6199 111.503 43.11 112.888 40.274 113.045C37.8028 113.178 35.1271 112.393 32.9655 113.43C31.3568 114.201 30.5165 115.809 29.0349 116.736C27.5533 117.664 25.7179 117.854 23.8935 117.935C22.0692 118.016 20.2503 118.035 18.5918 118.706C16.9333 119.377 15.5955 120.842 15.9382 122.364L78.1486 121.812Z" fill="#EBEBEB"/>
<path d="M250.268 89.6573C250.682 87.0693 246.437 84.938 243.247 84.7192C241.726 84.6098 240.145 84.8143 238.702 84.3814C235.579 83.4299 234.335 79.9713 231.289 78.8676C229.011 78.0398 226.385 78.7772 224.179 79.7335C221.974 80.6897 219.79 81.8933 217.319 82.0265C215.174 82.1454 212.846 81.4604 210.967 82.3643C209.568 83.0351 208.833 84.4242 207.545 85.2187C206.257 86.0132 204.637 86.1702 203.072 86.2606C201.508 86.351 199.888 86.3462 198.462 86.9076C197.035 87.4689 195.858 88.7677 196.151 90.095L250.268 89.6573Z" fill="#FAFAFA"/>
<path d="M13.8043 38.4397L14.0807 38.8393C14.3948 39.2887 14.8512 39.6517 15.3965 39.8859L15.883 40.0905L15.4186 40.3331C14.8969 40.6025 14.4765 40.9956 14.2079 41.4654L13.9646 41.884L13.6882 41.4844C13.3741 41.035 12.9177 40.672 12.3725 40.4378L11.886 40.2332L12.3504 39.9906C12.8709 39.72 13.2909 39.3272 13.5611 38.8583L13.8043 38.4397Z" fill="#E0E0E0"/>
<path d="M65.8498 38.6531C68.3095 33.4639 65.415 27.5413 59.3848 25.4247C53.3546 23.3081 46.4723 25.7989 44.0127 30.9881C41.553 36.1773 44.4475 42.0999 50.4777 44.2165C56.5078 46.3332 63.3902 43.8423 65.8498 38.6531Z" fill="#EBEBEB"/>
<path d="M53.4202 37.9922C53.4202 38.3197 53.3074 38.6398 53.096 38.912C52.8846 39.1843 52.5841 39.3965 52.2326 39.5218C51.8811 39.6471 51.4942 39.6799 51.121 39.616C50.7479 39.5521 50.4051 39.3944 50.136 39.1629C49.8669 38.9314 49.6837 38.6364 49.6095 38.3152C49.5352 37.9941 49.5733 37.6612 49.719 37.3587C49.8646 37.0562 50.1112 36.7976 50.4275 36.6157C50.7439 36.4338 51.1159 36.3367 51.4964 36.3367C51.7492 36.336 51.9997 36.3784 52.2335 36.4614C52.4672 36.5444 52.6796 36.6663 52.8584 36.8202C53.0372 36.974 53.1789 37.1568 53.2753 37.3579C53.3717 37.5591 53.421 37.7747 53.4202 37.9922Z" fill="white"/>
<path d="M50.6562 33.2159C50.6562 33.4041 50.5913 33.588 50.4698 33.7445C50.3483 33.901 50.1756 34.0229 49.9736 34.0949C49.7716 34.1669 49.5493 34.1858 49.3348 34.1491C49.1203 34.1124 48.9233 34.0217 48.7687 33.8887C48.614 33.7556 48.5087 33.5861 48.4661 33.4015C48.4234 33.2169 48.4453 33.0256 48.529 32.8518C48.6127 32.6779 48.7544 32.5293 48.9362 32.4248C49.118 32.3202 49.3318 32.2644 49.5505 32.2644C49.8437 32.2644 50.125 32.3646 50.3323 32.5431C50.5397 32.7215 50.6562 32.9635 50.6562 33.2159Z" fill="white"/>
<path d="M43.4971 37.2932C43.5469 37.4692 33.4024 45.8564 36.0173 47.6262C38.6322 49.3959 49.6336 44.8336 59.0096 38.316C68.3857 31.7984 76.9546 23.8821 74.6106 21.7889C72.2666 19.6957 60.5465 25.8945 60.5465 25.8945L61.9507 26.6652C61.9507 26.6652 69.0325 22.7546 71.277 24.2865C73.5215 25.8184 67.1252 31.7366 58.1085 37.3978C49.0918 43.0591 40.3791 47.041 39.0302 45.4854C37.6813 43.9297 44.0555 38.7537 44.0555 38.7537L43.4971 37.2932Z" fill="#E0E0E0"/>
<path d="M48.4449 27.6737C48.5389 27.7736 47.7372 28.3588 46.8361 29.5291C45.6343 31.032 44.9712 32.8052 44.9289 34.6292C44.8867 36.4532 45.4671 38.2478 46.5984 39.7907C47.4442 40.9943 48.2182 41.6033 48.1187 41.6937C48.0192 41.7841 47.1125 41.2941 46.0622 40.0952C45.4504 39.3937 44.9675 38.6155 44.6303 37.7879C43.7624 35.7351 43.8137 33.4778 44.7741 31.4558C45.1534 30.6402 45.6733 29.8783 46.3165 29.1961C47.4111 28.04 48.3785 27.6023 48.4449 27.6737Z" fill="white"/>
<path d="M18.9125 14.291C18.9313 13.5938 19.19 12.9171 19.6558 12.3465C20.1216 11.7759 20.7736 11.337 21.5293 11.0853C22.285 10.8336 23.1105 10.7804 23.9014 10.9325C24.6922 11.0846 25.4129 11.4352 25.9722 11.9398C26.5315 12.4444 26.9043 13.0804 27.0435 13.7674C27.1827 14.4543 27.082 15.1614 26.7541 15.7991C26.4263 16.4368 25.886 16.9766 25.2016 17.35C24.5173 17.7234 23.7196 17.9138 22.9095 17.8971C21.8239 17.8746 20.7931 17.4822 20.0436 16.806C19.2941 16.1298 18.8873 15.2252 18.9125 14.291Z" fill="#E0E0E0"/>
<path d="M24.3413 13.0256C24.3446 12.9118 24.387 12.8014 24.4633 12.7083C24.5395 12.6153 24.6461 12.5438 24.7695 12.5028C24.8929 12.4619 25.0277 12.4534 25.1568 12.4784C25.2858 12.5034 25.4034 12.5607 25.4946 12.6432C25.5858 12.7256 25.6465 12.8295 25.6691 12.9417C25.6917 13.0538 25.6751 13.1693 25.6215 13.2733C25.5679 13.3774 25.4796 13.4654 25.3679 13.5263C25.2561 13.5872 25.1259 13.6183 24.9936 13.6155C24.9058 13.6136 24.8192 13.5969 24.7389 13.5662C24.6585 13.5356 24.586 13.4916 24.5254 13.4368C24.4648 13.382 24.4174 13.3175 24.3858 13.247C24.3542 13.1764 24.3391 13.1012 24.3413 13.0256Z" fill="#F5F5F5"/>
<path d="M25.6734 14.3673C25.6745 14.3003 25.6988 14.2351 25.7431 14.18C25.7874 14.1249 25.8497 14.0824 25.9222 14.0579C25.9946 14.0333 26.0739 14.0279 26.1499 14.0423C26.226 14.0566 26.2954 14.0901 26.3492 14.1385C26.4031 14.1869 26.4391 14.2479 26.4525 14.3139C26.4659 14.3799 26.4562 14.4479 26.4247 14.5091C26.3931 14.5704 26.3411 14.6222 26.2752 14.6579C26.2094 14.6936 26.1327 14.7117 26.0548 14.7098C25.9517 14.7073 25.8539 14.67 25.7825 14.6059C25.7111 14.5418 25.6719 14.4561 25.6734 14.3673Z" fill="#F5F5F5"/>
<path d="M25.1541 15.395C25.1727 15.395 25.1912 15.3982 25.2083 15.4045C25.2254 15.4108 25.2409 15.42 25.2538 15.4315C25.2667 15.4431 25.2768 15.4568 25.2834 15.4717C25.29 15.4867 25.2931 15.5027 25.2923 15.5187C25.2923 15.535 25.2886 15.551 25.2814 15.566C25.2741 15.5811 25.2636 15.5947 25.2502 15.6062C25.2369 15.6177 25.221 15.6268 25.2036 15.633C25.1861 15.6392 25.1674 15.6424 25.1486 15.6424C25.1297 15.6418 25.1111 15.638 25.094 15.6312C25.0768 15.6244 25.0614 15.6148 25.0485 15.6028C25.0357 15.5909 25.0257 15.5769 25.0192 15.5617C25.0126 15.5464 25.0096 15.5302 25.0104 15.514C25.0118 15.482 25.0276 15.4517 25.0544 15.4295C25.0812 15.4074 25.1169 15.395 25.1541 15.395Z" fill="#F5F5F5"/>
<path d="M86.9111 214.496C87.5386 212.731 87.5882 210.851 87.0545 209.064C86.5207 207.276 85.4243 205.65 83.8858 204.364C82.3474 203.078 80.4265 202.182 78.3346 201.774C76.2426 201.367 74.0607 201.464 72.0288 202.055C72.0708 200.091 71.4873 198.153 70.3416 196.453C69.1959 194.754 67.5316 193.356 65.5289 192.412C63.5263 191.467 61.2616 191.013 58.9801 191.096C56.6986 191.18 54.4873 191.8 52.5856 192.888C50.4628 189.396 44.846 187.897 40.7771 189.748C36.7083 191.599 35.0276 196.461 37.2058 199.929C35.5363 199.575 33.7794 199.685 32.1871 200.243C30.5948 200.802 29.249 201.78 28.3427 203.037C27.4365 204.295 27.0164 205.767 27.1428 207.243C27.2691 208.718 27.9354 210.122 29.046 211.251C22.412 208.744 13.7491 213.787 13.9702 220L94.2416 219.8C93.6667 218.877 91.6876 214.662 86.9111 214.496Z" fill="#FF725E"/>
<path d="M231.836 214.496C232.464 212.731 232.513 210.851 231.98 209.064C231.446 207.276 230.35 205.65 228.811 204.364C227.273 203.078 225.352 202.182 223.26 201.774C221.168 201.367 218.986 201.464 216.954 202.055C216.996 200.091 216.413 198.153 215.267 196.453C214.121 194.754 212.457 193.356 210.454 192.412C208.451 191.467 206.187 191.013 203.905 191.096C201.624 191.18 199.413 191.8 197.511 192.888C195.382 189.396 189.744 187.897 185.702 189.748C181.661 191.599 179.953 196.461 182.131 199.929C180.462 199.575 178.705 199.685 177.112 200.243C175.52 200.802 174.174 201.78 173.268 203.037C172.362 204.295 171.942 205.767 172.068 207.243C172.194 208.718 172.861 210.122 173.971 211.251C167.337 208.744 158.674 213.787 158.89 220L239.172 219.8C238.62 218.877 236.613 214.662 231.836 214.496Z" fill="#FF725E"/>
<path d="M153.102 219.8C154.57 216.072 154.509 212.024 152.93 208.33C151.93 206.018 150.271 203.839 147.839 202.536C145.406 201.232 142.123 200.961 139.685 202.255C139.686 200.745 139.289 199.255 138.523 197.897C137.757 196.539 136.642 195.349 135.262 194.416C133.883 193.484 132.275 192.833 130.561 192.514C128.847 192.195 127.07 192.215 125.366 192.574C125.559 191.316 125.387 190.037 124.865 188.85C124.342 187.664 123.486 186.608 122.373 185.776C121.26 184.944 119.925 184.362 118.487 184.083C117.049 183.804 115.553 183.836 114.133 184.177C115.531 180.243 111.595 176.299 106.907 175.495H105.348C105.348 175.495 95.4966 175.285 94.2914 175.495C89.6034 176.299 85.6672 180.252 87.0659 184.177C85.6458 183.836 84.1497 183.804 82.7116 184.083C81.2735 184.362 79.9382 184.944 78.8252 185.776C77.7122 186.608 76.8563 187.664 76.334 188.85C75.8117 190.037 75.6393 191.316 75.8323 192.574C74.1283 192.215 72.352 192.195 70.6375 192.514C68.923 192.833 67.3154 193.484 65.936 194.416C64.5567 195.349 63.4419 196.539 62.6758 197.897C61.9097 199.255 61.5124 200.745 61.5139 202.255C59.0759 200.961 55.7976 201.232 53.3596 202.536C50.9216 203.839 49.2687 206.018 48.268 208.33C46.6894 212.024 46.629 216.072 48.0967 219.8H153.102Z" fill="#FF725E"/>
<g opacity="0.6">
<path d="M153.102 219.8C154.57 216.072 154.509 212.024 152.93 208.33C151.93 206.018 150.271 203.839 147.839 202.536C145.406 201.232 142.123 200.961 139.685 202.255C139.686 200.745 139.289 199.255 138.523 197.897C137.757 196.539 136.642 195.349 135.262 194.416C133.883 193.484 132.275 192.833 130.561 192.514C128.847 192.195 127.07 192.215 125.366 192.574C125.559 191.316 125.387 190.037 124.865 188.85C124.342 187.664 123.486 186.608 122.373 185.776C121.26 184.944 119.925 184.362 118.487 184.083C117.049 183.804 115.553 183.836 114.133 184.177C115.531 180.243 111.595 176.299 106.907 175.495H105.348C105.348 175.495 95.4966 175.285 94.2914 175.495C89.6034 176.299 85.6672 180.252 87.0659 184.177C85.6458 183.836 84.1497 183.804 82.7116 184.083C81.2735 184.362 79.9382 184.944 78.8252 185.776C77.7122 186.608 76.8563 187.664 76.334 188.85C75.8117 190.037 75.6393 191.316 75.8323 192.574C74.1283 192.215 72.352 192.195 70.6375 192.514C68.923 192.833 67.3154 193.484 65.936 194.416C64.5567 195.349 63.4419 196.539 62.6758 197.897C61.9097 199.255 61.5124 200.745 61.5139 202.255C59.0759 200.961 55.7976 201.232 53.3596 202.536C50.9216 203.839 49.2687 206.018 48.268 208.33C46.6894 212.024 46.629 216.072 48.0967 219.8H153.102Z" fill="white"/>
</g>
<path d="M204.034 219.8C205.5 216.072 205.438 212.024 203.857 208.33C202.857 206.018 201.198 203.839 198.766 202.536C196.333 201.232 193.05 200.961 190.612 202.255C190.614 200.745 190.218 199.254 189.452 197.896C188.686 196.538 187.571 195.347 186.192 194.414C184.812 193.481 183.204 192.831 181.489 192.512C179.774 192.193 177.997 192.214 176.293 192.574C176.486 191.316 176.314 190.037 175.791 188.85C175.269 187.664 174.413 186.608 173.3 185.776C172.187 184.944 170.852 184.362 169.414 184.083C167.976 183.804 166.48 183.836 165.06 184.177C166.458 180.243 162.522 176.299 157.834 175.495H156.281C156.281 175.495 146.424 175.285 145.224 175.495C140.536 176.299 136.6 180.252 137.998 184.177C136.578 183.836 135.082 183.804 133.644 184.083C132.206 184.362 130.871 184.944 129.758 185.776C128.645 186.608 127.789 187.664 127.266 188.85C126.744 190.037 126.572 191.316 126.765 192.574C125.061 192.214 123.284 192.193 121.57 192.512C119.855 192.831 118.247 193.481 116.868 194.414C115.489 195.347 114.374 196.538 113.609 197.896C112.844 199.255 112.448 200.745 112.452 202.255C110.014 200.961 106.73 201.232 104.298 202.536C101.865 203.839 100.201 206.018 99.206 208.33C97.623 212.023 97.5605 216.072 99.0291 219.8H204.034Z" fill="#FF725E"/>
<g opacity="0.8">
<path d="M204.034 219.81C205.5 216.081 205.438 212.033 203.857 208.34C202.857 206.027 201.198 203.849 198.766 202.545C196.333 201.242 193.05 200.97 190.612 202.264C190.614 200.755 190.218 199.264 189.452 197.906C188.686 196.547 187.571 195.356 186.192 194.424C184.812 193.491 183.204 192.84 181.489 192.522C179.774 192.203 177.997 192.224 176.293 192.583C176.486 191.325 176.314 190.046 175.791 188.86C175.269 187.673 174.413 186.617 173.3 185.785C172.187 184.953 170.852 184.372 169.414 184.093C167.976 183.814 166.48 183.846 165.06 184.186C166.458 180.252 162.522 176.308 157.834 175.504H156.281C156.281 175.504 146.424 175.295 145.224 175.504C140.536 176.308 136.6 180.262 137.998 184.186C136.578 183.846 135.082 183.814 133.644 184.093C132.206 184.372 130.871 184.953 129.758 185.785C128.645 186.617 127.789 187.673 127.266 188.86C126.744 190.046 126.572 191.325 126.765 192.583C125.061 192.224 123.284 192.202 121.57 192.521C119.855 192.84 118.247 193.491 116.868 194.424C115.489 195.357 114.374 196.547 113.609 197.906C112.844 199.264 112.448 200.755 112.452 202.264C110.014 200.97 106.73 201.242 104.298 202.545C101.865 203.849 100.201 206.027 99.206 208.34C97.623 212.033 97.5605 216.082 99.0291 219.81H204.034Z" fill="white"/>
</g>
<path d="M105.663 172.436L95.0432 172.683V155.699L105.663 155.452V172.436Z" fill="#455A64"/>
<path d="M106.26 159.629H94.5897C94.1714 159.629 93.8323 159.921 93.8323 160.281V160.295C93.8323 160.655 94.1714 160.947 94.5897 160.947H106.26C106.678 160.947 107.017 160.655 107.017 160.295V160.281C107.017 159.921 106.678 159.629 106.26 159.629Z" fill="#455A64"/>
<path d="M106.26 162.279H94.5897C94.1714 162.279 93.8323 162.571 93.8323 162.931V162.945C93.8323 163.305 94.1714 163.597 94.5897 163.597H106.26C106.678 163.597 107.017 163.305 107.017 162.945V162.931C107.017 162.571 106.678 162.279 106.26 162.279Z" fill="#455A64"/>
<path d="M106.26 164.929H94.5897C94.1714 164.929 93.8323 165.221 93.8323 165.58V165.595C93.8323 165.955 94.1714 166.246 94.5897 166.246H106.26C106.678 166.246 107.017 165.955 107.017 165.595V165.58C107.017 165.221 106.678 164.929 106.26 164.929Z" fill="#455A64"/>
<path d="M106.26 167.578H94.5897C94.1714 167.578 93.8323 167.87 93.8323 168.23V168.244C93.8323 168.604 94.1714 168.896 94.5897 168.896H106.26C106.678 168.896 107.017 168.604 107.017 168.244V168.23C107.017 167.87 106.678 167.578 106.26 167.578Z" fill="#455A64"/>
<path d="M106.26 170.228H94.5897C94.1714 170.228 93.8323 170.52 93.8323 170.88V170.894C93.8323 171.254 94.1714 171.546 94.5897 171.546H106.26C106.678 171.546 107.017 171.254 107.017 170.894V170.88C107.017 170.52 106.678 170.228 106.26 170.228Z" fill="#455A64"/>
<path d="M93.114 175.594L95.0434 172.436H105.663L107.985 175.594H93.114Z" fill="#455A64"/>
<path d="M106.492 159.62C106.492 159.691 103.778 159.743 100.411 159.743C97.0442 159.743 94.3574 159.691 94.3574 159.62C94.3574 159.548 97.0663 159.496 100.411 159.496C103.756 159.496 106.492 159.562 106.492 159.62Z" fill="#263238"/>
<path d="M106.244 160.951C106.244 161.018 103.557 161.075 100.251 161.075C96.9451 161.075 94.2583 161.018 94.2583 160.951C94.2583 160.885 96.9396 160.823 100.251 160.823C103.562 160.823 106.244 160.88 106.244 160.951Z" fill="#263238"/>
<path d="M106.57 162.278C106.57 162.345 103.833 162.402 100.455 162.402C97.0775 162.402 94.3354 162.345 94.3354 162.278C94.3354 162.212 97.0996 162.155 100.455 162.155C103.811 162.155 106.57 162.212 106.57 162.278Z" fill="#263238"/>
<path d="M105.978 163.597C104.045 163.722 102.106 163.763 100.168 163.72C98.2319 163.763 96.2945 163.722 94.3633 163.597C94.3633 163.53 96.9616 163.473 100.168 163.473C103.374 163.473 105.978 163.53 105.978 163.597Z" fill="#263238"/>
<path d="M106.399 164.952C106.399 165.024 103.739 165.076 100.456 165.076C97.1717 165.076 94.5071 165.024 94.5071 164.952C94.5071 164.881 97.1662 164.829 100.456 164.829C103.745 164.829 106.399 164.886 106.399 164.952Z" fill="#263238"/>
<path d="M106.553 166.246C106.553 166.318 103.855 166.37 100.527 166.37C97.1994 166.37 94.5071 166.318 94.5071 166.246C94.5071 166.175 97.2049 166.123 100.527 166.123C103.85 166.123 106.553 166.18 106.553 166.246Z" fill="#263238"/>
<path d="M106.21 167.578C106.21 167.645 103.667 167.702 100.527 167.702C97.3871 167.702 94.8496 167.645 94.8496 167.578C96.7384 167.453 98.6335 167.412 100.527 167.455C102.423 167.412 104.32 167.453 106.21 167.578Z" fill="#263238"/>
<path d="M106.304 168.896C104.414 169.022 102.517 169.063 100.621 169.02C98.7275 169.063 96.8324 169.022 94.9436 168.896C94.9436 168.83 97.4866 168.772 100.621 168.772C103.756 168.772 106.304 168.83 106.304 168.896Z" fill="#263238"/>
<path d="M105.939 170.195C104.06 170.318 102.174 170.359 100.289 170.319C98.4048 170.359 96.5191 170.317 94.6394 170.195C96.5191 170.072 98.4048 170.031 100.289 170.071C102.174 170.031 104.06 170.072 105.939 170.195Z" fill="#263238"/>
<path d="M105.895 171.546C104.078 171.669 102.255 171.71 100.433 171.67C98.6113 171.71 96.7881 171.669 94.9712 171.546C96.7881 171.424 98.6113 171.383 100.433 171.423C102.255 171.382 104.078 171.424 105.895 171.546Z" fill="#263238"/>
<path d="M156.562 172.436L145.948 172.683V155.699L156.562 155.452V172.436Z" fill="#455A64"/>
<path d="M157.16 159.629H145.489C145.071 159.629 144.732 159.921 144.732 160.281V160.295C144.732 160.655 145.071 160.947 145.489 160.947H157.16C157.578 160.947 157.917 160.655 157.917 160.295V160.281C157.917 159.921 157.578 159.629 157.16 159.629Z" fill="#455A64"/>
<path d="M157.16 162.279H145.489C145.071 162.279 144.732 162.571 144.732 162.931V162.945C144.732 163.305 145.071 163.597 145.489 163.597H157.16C157.578 163.597 157.917 163.305 157.917 162.945V162.931C157.917 162.571 157.578 162.279 157.16 162.279Z" fill="#455A64"/>
<path d="M157.16 164.929H145.489C145.071 164.929 144.732 165.221 144.732 165.58V165.595C144.732 165.955 145.071 166.246 145.489 166.246H157.16C157.578 166.246 157.917 165.955 157.917 165.595V165.58C157.917 165.221 157.578 164.929 157.16 164.929Z" fill="#455A64"/>
<path d="M157.16 167.578H145.489C145.071 167.578 144.732 167.87 144.732 168.23V168.244C144.732 168.604 145.071 168.896 145.489 168.896H157.16C157.578 168.896 157.917 168.604 157.917 168.244V168.23C157.917 167.87 157.578 167.578 157.16 167.578Z" fill="#455A64"/>
<path d="M157.16 170.228H145.489C145.071 170.228 144.732 170.52 144.732 170.88V170.894C144.732 171.254 145.071 171.546 145.489 171.546H157.16C157.578 171.546 157.917 171.254 157.917 170.894V170.88C157.917 170.52 157.578 170.228 157.16 170.228Z" fill="#455A64"/>
<path d="M144.019 175.594L145.948 172.436H156.563L158.89 175.594H144.019Z" fill="#455A64"/>
<path d="M157.392 159.62C157.392 159.691 154.683 159.743 151.338 159.743C147.994 159.743 145.285 159.691 145.285 159.62C145.285 159.548 147.994 159.496 151.338 159.496C154.683 159.496 157.392 159.562 157.392 159.62Z" fill="#263238"/>
<path d="M157.143 160.951C157.143 161.018 154.462 161.075 151.15 161.075C147.839 161.075 145.158 161.018 145.158 160.951C145.158 160.885 147.839 160.823 151.15 160.823C154.462 160.823 157.143 160.88 157.143 160.951Z" fill="#263238"/>
<path d="M157.475 162.278C157.475 162.345 154.71 162.402 151.355 162.402C147.999 162.402 145.235 162.345 145.235 162.278C145.235 162.212 147.999 162.155 151.355 162.155C154.71 162.155 157.475 162.212 157.475 162.278Z" fill="#263238"/>
<path d="M156.878 163.597C154.946 163.722 153.009 163.763 151.073 163.72C149.137 163.763 147.199 163.722 145.268 163.597C145.268 163.53 147.866 163.473 151.073 163.473C154.279 163.473 156.878 163.53 156.878 163.597Z" fill="#263238"/>
<path d="M157.303 164.952C157.303 165.024 154.639 165.076 151.355 165.076C148.071 165.076 145.406 165.024 145.406 164.952C145.406 164.881 148.071 164.829 151.355 164.829C154.639 164.829 157.303 164.886 157.303 164.952Z" fill="#263238"/>
<path d="M157.452 166.246C157.452 166.318 154.76 166.37 151.432 166.37C148.104 166.37 145.406 166.318 145.406 166.246C145.406 166.175 148.104 166.123 151.432 166.123C154.76 166.123 157.452 166.18 157.452 166.246Z" fill="#263238"/>
<path d="M157.11 167.578C157.11 167.645 154.566 167.702 151.432 167.702C148.297 167.702 145.749 167.645 145.749 167.578C147.639 167.453 149.536 167.412 151.432 167.455C153.326 167.412 155.221 167.453 157.11 167.578Z" fill="#263238"/>
<path d="M157.204 168.896C155.315 169.022 153.42 169.063 151.526 169.02C149.631 169.063 147.734 169.022 145.843 168.896C145.843 168.83 148.386 168.772 151.526 168.772C154.666 168.772 157.204 168.83 157.204 168.896Z" fill="#263238"/>
<path d="M156.828 170.195C154.95 170.318 153.066 170.359 151.183 170.319C149.299 170.359 147.413 170.318 145.533 170.195C147.413 170.072 149.299 170.031 151.183 170.071C153.066 170.031 154.95 170.072 156.828 170.195Z" fill="#263238"/>
<path d="M156.8 171.546C154.983 171.669 153.16 171.71 151.338 171.67C149.516 171.71 147.693 171.669 145.876 171.546C147.693 171.424 149.516 171.382 151.338 171.423C153.16 171.383 154.983 171.424 156.8 171.546Z" fill="#263238"/>
<path d="M109.538 52.5452L109.71 136.817H97.3208V52.921C97.3198 51.4134 97.5541 49.9125 98.0174 48.4586L103.175 32.2312C103.38 31.5937 104.248 31.608 104.491 32.7498L108.98 48.5633C109.348 49.867 109.535 51.2036 109.538 52.5452Z" fill="#E0E0E0"/>
<path d="M109.223 62.7547C109.223 62.8213 106.658 62.8784 103.485 62.8784C100.312 62.8784 97.741 62.8213 97.741 62.7547C99.6519 62.6293 101.569 62.588 103.485 62.631C105.399 62.5879 107.314 62.6292 109.223 62.7547Z" fill="#FF725E"/>
<path d="M109.295 73.3109C109.295 73.3775 106.647 73.4346 103.38 73.4346C100.113 73.4346 97.459 73.3775 97.459 73.3109C99.4288 73.1822 101.405 73.1394 103.38 73.1825C105.353 73.1395 107.327 73.1823 109.295 73.3109Z" fill="#263238"/>
<path d="M100.312 71.0989C100.234 71.0989 100.168 70.7992 100.168 70.4233C100.168 70.0475 100.234 69.7478 100.312 69.7478C100.389 69.7478 100.455 70.0523 100.455 70.4233C100.455 70.7944 100.411 71.0989 100.312 71.0989Z" fill="#263238"/>
<path d="M101.522 70.9753C101.602 70.9753 101.666 70.7282 101.666 70.4234C101.666 70.1187 101.602 69.8716 101.522 69.8716C101.443 69.8716 101.378 70.1187 101.378 70.4234C101.378 70.7282 101.443 70.9753 101.522 70.9753Z" fill="#263238"/>
<path d="M109.666 100.504C109.666 100.576 106.94 100.633 103.585 100.633C100.229 100.633 97.5034 100.576 97.5034 100.504C97.5034 100.433 100.229 100.381 103.585 100.381C106.94 100.381 109.666 100.438 109.666 100.504Z" fill="#263238"/>
<path d="M100.367 103.668C100.289 103.668 100.223 103.364 100.223 102.988C100.223 102.612 100.289 102.307 100.367 102.307C100.444 102.307 100.511 102.612 100.511 102.988C100.511 103.364 100.45 103.668 100.367 103.668Z" fill="#263238"/>
<path d="M101.307 103.792C101.224 103.792 101.163 103.473 101.163 103.078C101.163 102.683 101.224 102.369 101.307 102.369C101.39 102.369 101.451 102.688 101.451 103.078C101.451 103.468 101.384 103.792 101.307 103.792Z" fill="#263238"/>
<path d="M105.63 126.793C104.242 126.916 102.845 126.957 101.45 126.917C100.056 126.957 98.6593 126.916 97.271 126.793C98.6591 126.668 100.056 126.627 101.45 126.67C102.845 126.627 104.242 126.668 105.63 126.793Z" fill="#263238"/>
<path d="M109.362 51.4462C109.362 51.5128 106.697 51.5699 103.408 51.5699C100.118 51.5699 97.448 51.5128 97.448 51.4462C97.448 51.3796 100.118 51.3225 103.408 51.3225C106.697 51.3225 109.362 51.3796 109.362 51.4462Z" fill="#263238"/>
<path d="M98.5925 52.1027C98.5925 52.0742 98.7307 52.0646 98.8081 52.2026C98.8332 52.2428 98.8464 52.2878 98.8464 52.3334C98.8464 52.3791 98.8332 52.4241 98.8081 52.4643C98.7655 52.5126 98.7068 52.5487 98.6398 52.5678C98.5728 52.5868 98.5006 52.5879 98.4329 52.5709C98.3652 52.5539 98.3051 52.5196 98.2605 52.4725C98.2159 52.4254 98.189 52.3678 98.1834 52.3073C98.1827 52.2618 98.1956 52.217 98.2207 52.177C98.2459 52.137 98.2825 52.1033 98.3271 52.0789C98.4764 51.998 98.5869 52.0789 98.5704 52.0789C98.5538 52.0789 98.4985 52.1312 98.4653 52.1931C98.4321 52.2549 98.4377 52.293 98.5151 52.3168C98.5925 52.3406 98.6201 52.3168 98.6312 52.2359C98.6422 52.155 98.5814 52.1027 98.5925 52.1027Z" fill="#263238"/>
<path d="M103.479 52.1027C103.479 52.0742 103.617 52.0646 103.695 52.2026C103.72 52.2428 103.733 52.2878 103.733 52.3334C103.733 52.3791 103.72 52.4241 103.695 52.4643C103.652 52.5126 103.593 52.5487 103.526 52.5678C103.459 52.5868 103.387 52.5879 103.32 52.5709C103.252 52.5539 103.192 52.5196 103.147 52.4725C103.103 52.4254 103.076 52.3678 103.07 52.3073C103.069 52.2618 103.082 52.217 103.107 52.177C103.133 52.137 103.169 52.1033 103.214 52.0789C103.363 51.998 103.474 52.0789 103.457 52.0789C103.44 52.0789 103.385 52.1312 103.352 52.1931C103.319 52.2549 103.324 52.293 103.402 52.3168C103.479 52.3406 103.507 52.3168 103.523 52.2359C103.54 52.155 103.468 52.1027 103.479 52.1027Z" fill="#263238"/>
<path d="M108.366 52.1027C108.366 52.0742 108.505 52.0646 108.582 52.2026C108.607 52.2428 108.62 52.2878 108.62 52.3334C108.62 52.3791 108.607 52.4241 108.582 52.4643C108.541 52.5131 108.483 52.5496 108.417 52.5684C108.35 52.5872 108.278 52.5874 108.212 52.5689C108.143 52.554 108.081 52.5206 108.035 52.4736C107.989 52.4266 107.962 52.3684 107.957 52.3073C107.957 52.2618 107.969 52.217 107.995 52.177C108.02 52.137 108.056 52.1033 108.101 52.0789C108.256 51.998 108.361 52.0789 108.344 52.0789C108.328 52.0789 108.272 52.1312 108.239 52.1931C108.206 52.2549 108.239 52.293 108.289 52.3168C108.339 52.3406 108.394 52.3168 108.411 52.2359C108.427 52.155 108.355 52.1027 108.366 52.1027Z" fill="#263238"/>
<path d="M98.5925 74.2293C98.5925 74.196 98.7307 74.1865 98.8081 74.3244C98.8332 74.3646 98.8464 74.4096 98.8464 74.4553C98.8464 74.5009 98.8332 74.5459 98.8081 74.5861C98.7654 74.6345 98.7067 74.6706 98.6397 74.6896C98.5727 74.7087 98.5006 74.7097 98.4329 74.6927C98.3651 74.6757 98.305 74.6414 98.2605 74.5943C98.2159 74.5472 98.189 74.4896 98.1834 74.4291C98.1832 74.3837 98.1963 74.339 98.2214 74.2991C98.2465 74.2592 98.2828 74.2254 98.3271 74.2007C98.4763 74.1199 98.5869 74.2007 98.5703 74.2007C98.5537 74.2007 98.4985 74.2578 98.4653 74.3149C98.4321 74.372 98.4377 74.4196 98.5151 74.4386C98.5925 74.4576 98.6201 74.4386 98.6311 74.3577C98.6422 74.2769 98.5814 74.2626 98.5925 74.2293Z" fill="#263238"/>
<path d="M103.479 74.2293C103.479 74.196 103.617 74.1865 103.695 74.3244C103.72 74.3646 103.733 74.4096 103.733 74.4553C103.733 74.5009 103.72 74.5459 103.695 74.5861C103.652 74.6345 103.593 74.6706 103.526 74.6896C103.459 74.7087 103.387 74.7097 103.32 74.6927C103.252 74.6757 103.192 74.6414 103.147 74.5943C103.103 74.5472 103.076 74.4896 103.07 74.4291C103.07 74.3837 103.083 74.339 103.108 74.2991C103.133 74.2592 103.17 74.2254 103.214 74.2007C103.363 74.1199 103.474 74.2007 103.457 74.2007C103.44 74.2007 103.385 74.2578 103.352 74.3149C103.319 74.372 103.324 74.4196 103.402 74.4386C103.479 74.4576 103.507 74.4386 103.523 74.3577C103.54 74.2769 103.468 74.2626 103.479 74.2293Z" fill="#263238"/>
<path d="M108.366 74.2293C108.366 74.196 108.505 74.1865 108.582 74.3244C108.607 74.3646 108.62 74.4096 108.62 74.4553C108.62 74.5009 108.607 74.5459 108.582 74.5861C108.541 74.6349 108.483 74.6714 108.417 74.6902C108.35 74.709 108.278 74.7092 108.212 74.6907C108.143 74.6758 108.081 74.6425 108.035 74.5955C107.989 74.5485 107.962 74.4902 107.957 74.4291C107.957 74.3837 107.97 74.339 107.995 74.2991C108.02 74.2592 108.057 74.2254 108.101 74.2007C108.256 74.1199 108.361 74.2007 108.344 74.2007C108.328 74.2007 108.272 74.2578 108.239 74.3149C108.206 74.372 108.239 74.4196 108.289 74.4386C108.339 74.4576 108.394 74.4386 108.411 74.3577C108.427 74.2769 108.355 74.2626 108.366 74.2293Z" fill="#263238"/>
<path d="M98.5925 98.5157C98.5925 98.4824 98.7307 98.4728 98.8081 98.6108C98.8332 98.651 98.8464 98.696 98.8464 98.7416C98.8464 98.7873 98.8332 98.8323 98.8081 98.8725C98.7663 98.922 98.7077 98.9591 98.6404 98.9788C98.573 98.9984 98.5002 98.9994 98.4321 98.9819C98.3641 98.9646 98.3037 98.9298 98.2593 98.8822C98.2148 98.8346 98.1883 98.7764 98.1834 98.7155C98.1832 98.6701 98.1963 98.6254 98.2214 98.5855C98.2465 98.5456 98.2828 98.5118 98.3271 98.4871C98.4763 98.4062 98.5869 98.4871 98.5703 98.4871C98.5537 98.4871 98.4985 98.5394 98.4653 98.5965C98.4321 98.6536 98.4377 98.7012 98.5151 98.7202C98.5925 98.7393 98.6201 98.7202 98.6311 98.6394C98.6422 98.5585 98.5814 98.549 98.5925 98.5157Z" fill="#263238"/>
<path d="M103.479 98.5157C103.479 98.4824 103.617 98.4728 103.695 98.6108C103.72 98.651 103.733 98.696 103.733 98.7416C103.733 98.7873 103.72 98.8323 103.695 98.8725C103.654 98.9226 103.595 98.9601 103.527 98.9798C103.46 98.9995 103.387 99.0002 103.319 98.9819C103.251 98.9646 103.19 98.9298 103.146 98.8822C103.102 98.8346 103.075 98.7764 103.07 98.7155C103.07 98.6701 103.083 98.6254 103.108 98.5855C103.133 98.5456 103.17 98.5118 103.214 98.4871C103.363 98.4062 103.474 98.4871 103.457 98.4871C103.44 98.4871 103.385 98.5394 103.352 98.5965C103.319 98.6536 103.324 98.7012 103.402 98.7202C103.479 98.7393 103.507 98.7202 103.523 98.6394C103.54 98.5585 103.468 98.549 103.479 98.5157Z" fill="#263238"/>
<path d="M108.366 98.5157C108.366 98.4824 108.505 98.4728 108.582 98.6108C108.607 98.651 108.62 98.696 108.62 98.7416C108.62 98.7873 108.607 98.8323 108.582 98.8725C108.542 98.9222 108.484 98.9596 108.418 98.9792C108.351 98.9989 108.279 98.9998 108.212 98.9819C108.142 98.9654 108.081 98.931 108.035 98.8833C107.99 98.8356 107.963 98.777 107.957 98.7155C107.957 98.6701 107.97 98.6254 107.995 98.5855C108.02 98.5456 108.057 98.5118 108.101 98.4871C108.256 98.4062 108.361 98.4871 108.344 98.4871C108.328 98.4871 108.272 98.5394 108.239 98.5965C108.206 98.6536 108.239 98.7012 108.289 98.7202C108.339 98.7393 108.394 98.7202 108.411 98.6394C108.427 98.5585 108.355 98.549 108.366 98.5157Z" fill="#263238"/>
<path d="M98.5925 124.995C98.5925 124.962 98.7307 124.953 98.8081 125.091C98.8332 125.131 98.8464 125.176 98.8464 125.221C98.8464 125.267 98.8332 125.312 98.8081 125.352C98.7654 125.401 98.7067 125.437 98.6397 125.456C98.5727 125.475 98.5006 125.476 98.4329 125.459C98.3651 125.442 98.305 125.407 98.2605 125.36C98.2159 125.313 98.189 125.256 98.1834 125.195C98.1832 125.15 98.1963 125.105 98.2214 125.065C98.2465 125.025 98.2828 124.992 98.3271 124.967C98.4763 124.886 98.5869 124.967 98.5703 124.967C98.5537 124.967 98.4985 125.024 98.4653 125.081C98.4321 125.138 98.4377 125.186 98.5151 125.205C98.5925 125.224 98.6201 125.205 98.6311 125.124C98.6422 125.043 98.5814 125.029 98.5925 124.995Z" fill="#263238"/>
<path d="M103.479 124.995C103.479 124.962 103.617 124.953 103.695 125.091C103.72 125.131 103.733 125.176 103.733 125.221C103.733 125.267 103.72 125.312 103.695 125.352C103.652 125.401 103.593 125.437 103.526 125.456C103.459 125.475 103.387 125.476 103.32 125.459C103.252 125.442 103.192 125.407 103.147 125.36C103.103 125.313 103.076 125.256 103.07 125.195C103.07 125.15 103.083 125.105 103.108 125.065C103.133 125.025 103.17 124.992 103.214 124.967C103.363 124.886 103.474 124.967 103.457 124.967C103.44 124.967 103.385 125.024 103.352 125.081C103.319 125.138 103.324 125.186 103.402 125.205C103.479 125.224 103.507 125.205 103.523 125.124C103.54 125.043 103.468 125.029 103.479 124.995Z" fill="#263238"/>
<path d="M142.979 52.5452L142.802 136.817H155.191V52.921C155.19 51.4136 154.955 49.913 154.495 48.4586L149.337 32.2312C149.132 31.5937 148.264 31.608 148.021 32.7498L143.532 48.5633C143.163 49.8668 142.978 51.2036 142.979 52.5452Z" fill="#E0E0E0"/>
<path d="M143.306 62.7547C145.215 62.6293 147.13 62.588 149.044 62.631C150.96 62.588 152.877 62.6292 154.788 62.7547C154.788 62.8213 152.217 62.8783 149.044 62.8783C145.871 62.8783 143.306 62.8213 143.306 62.7547Z" fill="#FF725E"/>
<path d="M143.234 73.3109C145.203 73.1822 147.18 73.1394 149.155 73.1825C151.128 73.1395 153.102 73.1823 155.07 73.3109C155.07 73.3775 152.422 73.4346 149.155 73.4346C145.887 73.4346 143.234 73.3775 143.234 73.3109Z" fill="#263238"/>
<path d="M152.217 71.0989C152.14 71.0989 152.073 70.7992 152.073 70.4233C152.073 70.0475 152.14 69.7478 152.217 69.7478C152.295 69.7478 152.361 70.0523 152.361 70.4233C152.361 70.7944 152.3 71.0989 152.217 71.0989Z" fill="#263238"/>
<path d="M151.006 70.9753C151.086 70.9753 151.15 70.7282 151.15 70.4234C151.15 70.1187 151.086 69.8716 151.006 69.8716C150.927 69.8716 150.863 70.1187 150.863 70.4234C150.863 70.7282 150.927 70.9753 151.006 70.9753Z" fill="#263238"/>
<path d="M142.863 100.504C142.863 100.438 145.594 100.381 148.944 100.381C152.295 100.381 155.026 100.438 155.026 100.504C155.026 100.571 152.3 100.633 148.944 100.633C145.589 100.633 142.863 100.576 142.863 100.504Z" fill="#263238"/>
<path d="M152.162 103.668C152.084 103.668 152.018 103.364 152.018 102.988C152.018 102.612 152.084 102.307 152.162 102.307C152.239 102.307 152.306 102.612 152.306 102.988C152.306 103.364 152.239 103.668 152.162 103.668Z" fill="#263238"/>
<path d="M151.227 103.792C151.145 103.792 151.084 103.473 151.084 103.078C151.084 102.683 151.145 102.369 151.227 102.369C151.31 102.369 151.371 102.688 151.371 103.078C151.371 103.468 151.305 103.792 151.227 103.792Z" fill="#263238"/>
<path d="M146.899 126.793C148.287 126.668 149.684 126.627 151.078 126.67C152.475 126.627 153.873 126.668 155.263 126.793C153.873 126.916 152.475 126.957 151.078 126.917C149.684 126.957 148.287 126.916 146.899 126.793Z" fill="#263238"/>
<path d="M143.167 51.4462C143.167 51.3796 145.837 51.3225 149.127 51.3225C152.416 51.3225 155.081 51.3796 155.081 51.4462C155.081 51.5128 152.416 51.5699 149.127 51.5699C145.837 51.5699 143.167 51.5128 143.167 51.4462Z" fill="#263238"/>
<path d="M153.936 52.1027C153.936 52.136 153.909 52.1836 153.936 52.2502C153.964 52.3168 153.981 52.3453 154.053 52.331C154.124 52.3168 154.141 52.2787 154.108 52.2074C154.075 52.136 154.008 52.1265 153.997 52.0932C153.986 52.0599 154.091 51.998 154.24 52.0932C154.285 52.1175 154.322 52.1513 154.347 52.1913C154.372 52.2312 154.385 52.2761 154.384 52.3215C154.381 52.3823 154.354 52.4404 154.31 52.4875C154.265 52.5345 154.204 52.5681 154.135 52.5832C154.068 52.602 153.995 52.602 153.928 52.5832C153.86 52.5644 153.801 52.5278 153.76 52.4785C153.734 52.4383 153.721 52.3934 153.721 52.3477C153.721 52.302 153.734 52.2571 153.76 52.2169C153.798 52.0504 153.936 52.0599 153.936 52.1027Z" fill="#263238"/>
<path d="M149.06 52.1027C149.06 52.136 149.033 52.1836 149.06 52.2502C149.088 52.3168 149.099 52.3453 149.177 52.331C149.254 52.3168 149.265 52.2787 149.226 52.2074C149.188 52.136 149.132 52.1265 149.121 52.0932C149.11 52.0599 149.215 51.998 149.365 52.0932C149.409 52.1175 149.446 52.1513 149.471 52.1913C149.496 52.2312 149.509 52.2761 149.508 52.3215C149.505 52.3823 149.478 52.4404 149.434 52.4875C149.389 52.5345 149.328 52.5681 149.259 52.5832C149.192 52.602 149.119 52.602 149.052 52.5832C148.984 52.5644 148.925 52.5278 148.884 52.4785C148.858 52.4383 148.845 52.3934 148.845 52.3477C148.845 52.302 148.858 52.2571 148.884 52.2169C148.911 52.0504 149.06 52.0599 149.06 52.1027Z" fill="#263238"/>
<path d="M144.163 52.1027C144.163 52.136 144.135 52.1836 144.163 52.2502C144.19 52.3168 144.201 52.3453 144.279 52.331C144.356 52.3168 144.367 52.2787 144.328 52.2074C144.29 52.136 144.234 52.1265 144.223 52.0932C144.212 52.0599 144.317 51.998 144.467 52.0932C144.511 52.1175 144.548 52.1513 144.573 52.1913C144.598 52.2312 144.611 52.2761 144.61 52.3215C144.605 52.3821 144.578 52.4397 144.533 52.4867C144.489 52.5338 144.428 52.5681 144.361 52.5852C144.293 52.6022 144.221 52.6011 144.154 52.5821C144.087 52.563 144.028 52.5269 143.986 52.4785C143.96 52.4383 143.947 52.3934 143.947 52.3477C143.947 52.302 143.96 52.2571 143.986 52.2169C144.024 52.0504 144.163 52.0599 144.163 52.1027Z" fill="#263238"/>
<path d="M153.936 74.2293C153.936 74.2626 153.909 74.3054 153.936 74.372C153.964 74.4386 153.981 74.4719 154.053 74.4529C154.124 74.4338 154.141 74.4005 154.108 74.3292C154.075 74.2578 154.008 74.2483 153.997 74.215C153.986 74.1817 154.091 74.1199 154.24 74.215C154.285 74.2397 154.321 74.2735 154.346 74.3134C154.371 74.3533 154.384 74.398 154.384 74.4434C154.381 74.5041 154.354 74.5622 154.31 74.6093C154.265 74.6564 154.204 74.6899 154.135 74.705C154.068 74.7238 153.995 74.7238 153.928 74.705C153.86 74.6862 153.801 74.6496 153.76 74.6004C153.734 74.5601 153.721 74.5152 153.721 74.4695C153.721 74.4239 153.734 74.3789 153.76 74.3387C153.798 74.1865 153.936 74.196 153.936 74.2293Z" fill="#263238"/>
<path d="M149.06 74.2293C149.06 74.2626 149.033 74.3054 149.06 74.372C149.088 74.4386 149.099 74.4719 149.177 74.4529C149.254 74.4338 149.265 74.4005 149.226 74.3292C149.188 74.2578 149.132 74.2483 149.121 74.215C149.11 74.1817 149.215 74.1199 149.365 74.215C149.409 74.2397 149.445 74.2735 149.47 74.3134C149.495 74.3533 149.508 74.398 149.508 74.4434C149.505 74.5041 149.478 74.5622 149.434 74.6093C149.389 74.6564 149.328 74.6899 149.259 74.705C149.192 74.7238 149.119 74.7238 149.052 74.705C148.984 74.6862 148.925 74.6496 148.884 74.6004C148.858 74.5601 148.845 74.5152 148.845 74.4695C148.845 74.4239 148.858 74.3789 148.884 74.3387C148.911 74.1865 149.06 74.196 149.06 74.2293Z" fill="#263238"/>
<path d="M144.163 74.2293C144.163 74.2626 144.135 74.3054 144.163 74.372C144.19 74.4386 144.201 74.4719 144.279 74.4529C144.356 74.4338 144.367 74.4005 144.328 74.3292C144.29 74.2578 144.234 74.2483 144.223 74.215C144.212 74.1817 144.317 74.1199 144.467 74.215C144.511 74.2397 144.547 74.2735 144.572 74.3134C144.597 74.3533 144.61 74.398 144.61 74.4434C144.605 74.5039 144.578 74.5615 144.533 74.6086C144.489 74.6556 144.428 74.69 144.361 74.707C144.293 74.724 144.221 74.7229 144.154 74.7039C144.087 74.6848 144.028 74.6487 143.986 74.6004C143.96 74.5601 143.947 74.5152 143.947 74.4695C143.947 74.4239 143.96 74.3789 143.986 74.3387C144.024 74.1865 144.163 74.196 144.163 74.2293Z" fill="#263238"/>
<path d="M153.936 98.5157C153.936 98.549 153.909 98.5918 153.936 98.6584C153.964 98.725 153.981 98.7583 154.053 98.7392C154.124 98.7202 154.141 98.6917 154.108 98.6156C154.075 98.5394 154.008 98.5394 153.997 98.5061C153.986 98.4728 154.091 98.4062 154.24 98.5061C154.285 98.5308 154.321 98.5647 154.346 98.6045C154.371 98.6444 154.384 98.6891 154.384 98.7345C154.379 98.795 154.352 98.8526 154.307 98.8997C154.263 98.9468 154.202 98.9811 154.135 98.9981C154.067 99.0151 153.995 99.0141 153.928 98.995C153.861 98.976 153.802 98.9399 153.76 98.8915C153.734 98.8513 153.721 98.8063 153.721 98.7607C153.721 98.715 153.734 98.67 153.76 98.6298C153.798 98.4728 153.936 98.4823 153.936 98.5157Z" fill="#263238"/>
<path d="M149.06 98.5157C149.06 98.549 149.033 98.5918 149.06 98.6584C149.088 98.725 149.099 98.7583 149.177 98.7392C149.254 98.7202 149.265 98.6917 149.226 98.6156C149.188 98.5394 149.132 98.5394 149.121 98.5061C149.11 98.4728 149.215 98.4062 149.365 98.5061C149.409 98.5308 149.445 98.5647 149.47 98.6045C149.495 98.6444 149.508 98.6891 149.508 98.7345C149.503 98.795 149.476 98.8526 149.431 98.8997C149.387 98.9468 149.326 98.9811 149.259 98.9981C149.191 99.0151 149.119 99.0141 149.052 98.995C148.985 98.976 148.926 98.9399 148.884 98.8915C148.858 98.8513 148.845 98.8063 148.845 98.7607C148.845 98.715 148.858 98.67 148.884 98.6298C148.911 98.4728 149.06 98.4823 149.06 98.5157Z" fill="#263238"/>
<path d="M144.163 98.5157C144.163 98.549 144.135 98.5918 144.163 98.6584C144.19 98.725 144.201 98.7583 144.279 98.7392C144.356 98.7202 144.367 98.6917 144.328 98.6156C144.29 98.5394 144.234 98.5394 144.223 98.5061C144.212 98.4728 144.317 98.4062 144.467 98.5061C144.511 98.5308 144.547 98.5647 144.572 98.6045C144.597 98.6444 144.61 98.6891 144.61 98.7345C144.605 98.7954 144.579 98.8536 144.534 98.9012C144.49 98.9488 144.43 98.9836 144.362 99.0009C144.293 99.0185 144.221 99.0174 144.153 98.9978C144.086 98.9782 144.027 98.941 143.986 98.8915C143.96 98.8513 143.947 98.8063 143.947 98.7607C143.947 98.715 143.96 98.67 143.986 98.6298C144.024 98.4728 144.163 98.4823 144.163 98.5157Z" fill="#263238"/>
<path d="M153.936 124.995C153.936 125.028 153.909 125.071 153.936 125.138C153.964 125.204 153.981 125.238 154.053 125.219C154.124 125.2 154.141 125.166 154.108 125.095C154.075 125.024 154.008 125.014 153.997 124.981C153.986 124.948 154.091 124.886 154.24 124.981C154.285 125.006 154.321 125.039 154.346 125.079C154.371 125.119 154.384 125.164 154.384 125.209C154.381 125.27 154.354 125.328 154.31 125.375C154.265 125.422 154.204 125.456 154.135 125.471C154.068 125.49 153.995 125.49 153.928 125.471C153.86 125.452 153.801 125.415 153.76 125.366C153.734 125.326 153.721 125.281 153.721 125.235C153.721 125.19 153.734 125.145 153.76 125.105C153.798 124.952 153.936 124.962 153.936 124.995Z" fill="#263238"/>
<path d="M149.06 124.995C149.06 125.028 149.033 125.071 149.06 125.138C149.088 125.204 149.099 125.238 149.177 125.219C149.254 125.2 149.265 125.166 149.226 125.095C149.188 125.024 149.132 125.014 149.121 124.981C149.11 124.948 149.215 124.886 149.365 124.981C149.409 125.006 149.445 125.039 149.47 125.079C149.495 125.119 149.508 125.164 149.508 125.209C149.505 125.27 149.478 125.328 149.434 125.375C149.389 125.422 149.328 125.456 149.259 125.471C149.192 125.49 149.119 125.49 149.052 125.471C148.984 125.452 148.925 125.415 148.884 125.366C148.858 125.326 148.845 125.281 148.845 125.235C148.845 125.19 148.858 125.145 148.884 125.105C148.911 124.952 149.06 124.962 149.06 124.995Z" fill="#263238"/>
<path d="M166.005 151.28L165.861 154.833L136.301 158.554L136.428 152.069L166.005 151.28Z" fill="#263238"/>
<path d="M126.024 0C126.024 0 111.236 14.8811 110.838 28.725C110.451 42.1836 110.838 79.4006 110.838 79.4006V124.753H141.244V32.1884C141.244 32.1884 140.962 26.7127 138.203 18.3111C135.638 10.6089 126.024 0 126.024 0Z" fill="#FF725E"/>
<path d="M141.205 40.4757C141.205 40.5423 134.372 40.5994 125.941 40.5994C117.51 40.5994 110.677 40.5423 110.677 40.4757C110.677 40.4091 117.51 40.3521 125.941 40.3521C134.372 40.3521 141.205 40.4091 141.205 40.4757Z" fill="#263238"/>
<path d="M112.573 66.1371C112.573 66.1371 112.573 66.1371 112.573 66.1894V66.2275H112.54V66.2037H112.573V66.2893H112.529C112.457 65.3379 112.407 59.9525 112.407 53.4872C112.407 49.9097 112.435 46.6747 112.446 44.2865C112.446 43.1352 112.485 42.1932 112.496 41.4987C112.496 41.1942 112.496 40.9421 112.524 40.7422C112.508 40.6539 112.508 40.5641 112.524 40.4758C112.545 40.5634 112.554 40.6528 112.551 40.7422C112.551 40.9421 112.551 41.1942 112.579 41.4987C112.579 42.1932 112.579 43.1352 112.623 44.2865C112.623 46.6652 112.651 49.9097 112.667 53.4872C112.667 59.9525 112.612 65.3141 112.546 66.2893H112.501V66.2037H112.573V66.2275H112.54V66.1894C112.535 66.1561 112.54 66.1371 112.573 66.1371Z" fill="#263238"/>
<path d="M114.724 66.2893C114.647 66.2893 114.58 60.5091 114.58 53.3826C114.58 46.256 114.647 40.4758 114.724 40.4758C114.801 40.4758 114.868 46.256 114.868 53.3826C114.868 60.5091 114.785 66.2893 114.724 66.2893Z" fill="#263238"/>
<path d="M116.963 66.2893C116.886 66.2893 116.808 60.5091 116.792 53.3826C116.775 46.256 116.825 40.4758 116.908 40.4758C116.991 40.4758 117.063 46.256 117.079 53.3826C117.096 60.5091 117.046 66.2893 116.963 66.2893Z" fill="#263238"/>
<path d="M119.086 66.2893C119.003 66.2893 118.942 60.5091 118.942 53.3826C118.942 46.256 119.003 40.4758 119.086 40.4758C119.169 40.4758 119.229 46.256 119.229 53.3826C119.229 60.5091 119.163 66.2893 119.086 66.2893Z" fill="#263238"/>
<path d="M121.264 66.8888C121.186 66.8888 121.12 60.9754 121.12 53.6823C121.12 46.3892 121.186 40.4758 121.264 40.4758C121.341 40.4758 121.419 46.394 121.419 53.6823C121.419 60.9706 121.347 66.8888 121.264 66.8888Z" fill="#263238"/>
<path d="M123.442 66.8888C123.365 66.8888 123.298 60.9754 123.298 53.6823C123.298 46.3892 123.365 40.4758 123.442 40.4758C123.519 40.4758 123.591 46.3892 123.591 53.6823C123.591 60.9754 123.525 66.8888 123.442 66.8888Z" fill="#263238"/>
<path d="M125.626 66.8888C125.543 66.8888 125.482 60.9754 125.482 53.6823C125.482 46.3892 125.543 40.4758 125.626 40.4758C125.709 40.4758 125.77 46.3892 125.77 53.6823C125.77 60.9754 125.703 66.8888 125.626 66.8888Z" fill="#263238"/>
<path d="M127.804 66.8888C127.727 66.8888 127.66 60.9754 127.66 53.6823C127.66 46.3892 127.727 40.4758 127.804 40.4758C127.882 40.4758 127.948 46.3892 127.948 53.6823C127.948 60.9754 127.882 66.8888 127.804 66.8888Z" fill="#263238"/>
<path d="M129.982 66.8888C129.905 66.8888 129.839 60.9754 129.839 53.6823C129.839 46.3892 129.905 40.4758 129.982 40.4758C130.06 40.4758 130.126 46.3892 130.126 53.6823C130.126 60.9754 130.065 66.8888 129.982 66.8888Z" fill="#263238"/>
<path d="M132.271 66.2893C132.194 66.2893 132.105 60.5091 132.077 53.3826C132.05 46.256 132.077 40.4758 132.166 40.4758C132.254 40.4758 132.332 46.256 132.365 53.3826C132.398 60.5091 132.354 66.2893 132.271 66.2893Z" fill="#263238"/>
<path d="M134.344 66.2893C134.323 66.2033 134.314 66.1155 134.316 66.0277C134.316 65.8279 134.316 65.5805 134.289 65.276C134.289 64.5862 134.289 63.649 134.244 62.5072C134.244 60.1285 134.217 56.9316 134.2 53.3826C134.184 49.8336 134.233 46.6224 134.244 44.2579C134.244 43.1162 134.278 42.179 134.289 41.4892C134.289 41.1847 134.289 40.9373 134.316 40.7375C134.314 40.6496 134.323 40.5618 134.344 40.4758C134.368 40.5614 134.378 40.6496 134.372 40.7375C134.372 40.9373 134.372 41.1847 134.399 41.4892C134.399 42.179 134.399 43.1162 134.443 44.2579C134.443 46.6366 134.471 49.8336 134.488 53.3826C134.504 56.9316 134.454 60.1428 134.443 62.5072C134.443 63.649 134.41 64.5862 134.399 65.276C134.399 65.5805 134.399 65.8279 134.372 66.0277C134.378 66.1156 134.368 66.2038 134.344 66.2893Z" fill="#263238"/>
<path d="M136.522 66.2893C136.445 66.2893 136.378 60.5091 136.378 53.3826C136.378 46.256 136.445 40.4758 136.522 40.4758C136.6 40.4758 136.666 46.256 136.666 53.3826C136.666 60.5091 136.605 66.2893 136.522 66.2893Z" fill="#263238"/>
<path d="M138.706 66.2893C138.623 66.2893 138.562 60.5091 138.562 53.3826C138.562 46.256 138.623 40.4758 138.706 40.4758C138.789 40.4758 138.85 46.256 138.85 53.3826C138.85 60.5091 138.783 66.2893 138.706 66.2893Z" fill="#263238"/>
<path d="M140.884 66.2893C140.807 66.2893 140.74 60.5091 140.74 53.3826C140.74 46.256 140.807 40.4758 140.884 40.4758C140.961 40.4758 141.028 46.256 141.028 53.3826C141.028 60.5091 140.961 66.2893 140.884 66.2893Z" fill="#263238"/>
<path d="M141.205 66.2892C141.205 66.3558 134.394 66.4129 125.996 66.4129C117.599 66.4129 110.793 66.3558 110.793 66.2892C110.793 66.2226 117.599 66.1655 125.996 66.1655C134.394 66.1655 141.205 66.2226 141.205 66.2892Z" fill="#263238"/>
<path d="M114.879 152.597L85.7444 151.822C85.7444 151.822 86.85 143.573 87.7788 142.783C89.1388 141.617 112.186 121.156 112.186 121.156C112.186 121.156 116.233 77.1979 116.57 75.9324C116.908 74.667 123.348 58.5395 123.685 58.1541C124.023 57.7688 124.36 56.8887 126.057 56.7935C127.754 56.6984 128.766 58.3444 128.766 58.3444C128.766 58.3444 135.317 76.2274 135.654 77.6831L141.006 122.141C141.094 122.674 164.479 143.549 165.01 144.553C165.54 145.557 165.988 151.284 165.988 151.284L136.898 153.121L114.879 152.597Z" fill="#E0E0E0"/>
<path d="M135.638 77.1314C134.681 74.0772 128.865 58.2066 128.865 58.2066C128.865 58.2066 127.854 56.5558 126.156 56.6509C124.459 56.7461 124.128 57.6262 123.785 58.0115C123.442 58.3969 116.996 74.5291 116.675 75.7946C116.642 75.9088 116.581 76.375 116.493 77.1314H135.638Z" fill="#F5F5F5"/>
<path d="M115.459 159.724L115.216 147.431L116.902 142.821L116.808 105.457L116.493 77.1313H135.638L135.284 142.859L137.219 147.212V165.523H127.207L127.047 146.665C127.045 146.436 126.939 146.217 126.75 146.056C126.562 145.895 126.306 145.804 126.041 145.804C125.773 145.805 125.517 145.898 125.329 146.061C125.14 146.224 125.034 146.445 125.034 146.675L125.084 165.523H115.548L115.459 159.724Z" fill="#F5F5F5"/>
<path d="M85.7444 151.822L85.8881 155.371L115.448 159.091L115.321 152.612L85.7444 151.822Z" fill="#263238"/>
<path d="M86.1094 149.629C86.1094 149.558 92.5775 149.505 100.549 149.505C108.521 149.505 114.989 149.558 114.989 149.629C114.989 149.7 108.527 149.753 100.549 149.753C92.572 149.753 86.1094 149.672 86.1094 149.629Z" fill="#263238"/>
<path d="M88.3872 151.893C88.2474 151.524 88.1985 151.133 88.2434 150.747C88.1981 150.362 88.2471 149.973 88.3872 149.605C88.5305 149.972 88.5795 150.362 88.5309 150.747C88.5793 151.133 88.5302 151.524 88.3872 151.893Z" fill="#263238"/>
<path d="M90.7477 151.846C90.5561 151.132 90.5561 150.39 90.7477 149.677C90.9393 150.39 90.9393 151.132 90.7477 151.846Z" fill="#263238"/>
<path d="M93.4343 152.007C93.2426 151.223 93.2426 150.413 93.4343 149.629C93.6259 150.413 93.6259 151.223 93.4343 152.007Z" fill="#263238"/>
<path d="M96.0384 152.098C95.8394 151.276 95.8394 150.427 96.0384 149.605C96.23 150.428 96.23 151.275 96.0384 152.098Z" fill="#263238"/>
<path d="M98.4765 152.164C98.2842 151.319 98.2842 150.45 98.4765 149.605C98.6688 150.45 98.6688 151.319 98.4765 152.164Z" fill="#263238"/>
<path d="M101.03 152.164C100.838 151.319 100.838 150.45 101.03 149.605C101.223 150.45 101.223 151.319 101.03 152.164Z" fill="#263238"/>
<path d="M103.584 152.164C103.392 151.319 103.392 150.45 103.584 149.605C103.777 150.45 103.777 151.319 103.584 152.164Z" fill="#263238"/>
<path d="M106.139 152.364C105.947 151.452 105.947 150.517 106.139 149.605C106.33 150.517 106.33 151.452 106.139 152.364Z" fill="#263238"/>
<path d="M108.704 152.436C108.512 151.499 108.512 150.541 108.704 149.605C108.895 150.541 108.895 151.499 108.704 152.436Z" fill="#263238"/>
<path d="M111.247 152.673C111.055 151.657 111.055 150.621 111.247 149.605C111.438 150.621 111.438 151.657 111.247 152.673Z" fill="#263238"/>
<path d="M113.801 152.165C113.879 152.382 113.912 152.608 113.9 152.835V152.997V153.159H113.679V152.769C113.679 152.479 113.679 152.188 113.679 151.884C113.63 151.12 113.678 150.355 113.823 149.6C113.965 150.355 114.013 151.12 113.967 151.884C113.967 152.188 113.967 152.479 113.967 152.769V153.159H113.679V152.835C113.673 152.607 113.714 152.38 113.801 152.165Z" fill="#263238"/>
<path d="M106.509 147.388C108.616 147.388 110.323 145.918 110.323 144.105C110.323 142.292 108.616 140.823 106.509 140.823C104.402 140.823 102.694 142.292 102.694 144.105C102.694 145.918 104.402 147.388 106.509 147.388Z" fill="#FF725E"/>
<path d="M87.4142 148.354C87.4142 148.097 88.3871 144.106 88.3871 144.106L112.867 122.222L113.226 109.929L112.187 121.137L88.061 142.374C87.4902 142.882 87.114 143.527 86.9829 144.225L86.0376 149.677L87.4142 148.354Z" fill="#263238"/>
<path d="M125.742 85.647C125.825 85.647 125.886 99.0913 125.886 115.666C125.886 132.241 125.825 145.69 125.742 145.69C125.659 145.69 125.598 132.25 125.598 115.666C125.598 99.0818 125.665 85.647 125.742 85.647Z" fill="#263238"/>
<path d="M125.46 80.7705H124.111V82.8162H125.46V80.7705Z" fill="#455A64"/>
<path d="M128.49 80.7705H127.141V82.8162H128.49V80.7705Z" fill="#455A64"/>
<path d="M120.59 75.5183L122.337 77.1025H129.816L131.569 75.5897C131.569 75.5897 129.739 74.0007 126.041 74.0007C124.085 74.0086 122.18 74.5389 120.59 75.5183Z" fill="#263238"/>
<path d="M135.593 85.0429C135.593 85.1142 131.337 85.1666 126.09 85.1666C120.844 85.1666 116.582 85.1142 116.582 85.0429C116.582 84.9715 120.838 84.9192 126.09 84.9192C131.342 84.9192 135.593 84.9763 135.593 85.0429Z" fill="#263238"/>
<path d="M132.641 68.4679C132.641 68.5345 129.767 68.5916 126.217 68.5916C122.668 68.5916 119.799 68.5345 119.799 68.4679C119.799 68.4013 122.674 68.3442 126.217 68.3442C129.761 68.3442 132.641 68.4013 132.641 68.4679Z" fill="#263238"/>
<path d="M118.207 86.432C118.207 86.47 118.135 86.4986 118.107 86.5795C118.08 86.6603 118.107 86.7269 118.218 86.7365C118.329 86.746 118.362 86.6794 118.345 86.589C118.329 86.4986 118.262 86.47 118.268 86.4367C118.273 86.4034 118.406 86.3749 118.528 86.5081C118.561 86.5492 118.582 86.5965 118.59 86.6462C118.598 86.6959 118.591 86.7464 118.572 86.7935C118.539 86.8527 118.486 86.9021 118.42 86.9355C118.354 86.9689 118.279 86.9849 118.202 86.9813C118.126 86.9777 118.053 86.9548 117.992 86.9155C117.93 86.8762 117.884 86.8222 117.859 86.7602C117.844 86.7112 117.844 86.6599 117.859 86.6109C117.873 86.5619 117.902 86.5167 117.942 86.4796C118.102 86.3559 118.218 86.4034 118.207 86.432Z" fill="#263238"/>
<path d="M120.12 86.432C120.12 86.47 120.048 86.4986 120.02 86.5795C119.993 86.6603 120.02 86.7269 120.131 86.7365C120.241 86.746 120.274 86.6794 120.258 86.589C120.241 86.4986 120.175 86.47 120.181 86.4367C120.186 86.4034 120.319 86.3749 120.44 86.5081C120.474 86.5492 120.495 86.5965 120.503 86.6462C120.51 86.6959 120.504 86.7464 120.485 86.7935C120.453 86.8541 120.401 86.9049 120.334 86.939C120.268 86.973 120.191 86.9887 120.114 86.9838C120.037 86.9826 119.962 86.9603 119.9 86.9201C119.839 86.8799 119.794 86.824 119.771 86.7602C119.756 86.7113 119.756 86.6597 119.77 86.6105C119.785 86.5614 119.814 86.5163 119.854 86.4796C119.987 86.3559 120.131 86.4034 120.12 86.432Z" fill="#263238"/>
<path d="M122.193 86.432C122.193 86.47 122.121 86.4986 122.093 86.5795C122.066 86.6603 122.093 86.7269 122.204 86.7365C122.314 86.746 122.347 86.6794 122.331 86.589C122.314 86.4986 122.248 86.47 122.254 86.4367C122.259 86.4034 122.392 86.3749 122.513 86.5081C122.547 86.5492 122.568 86.5965 122.576 86.6462C122.583 86.6959 122.577 86.7464 122.558 86.7935C122.526 86.8541 122.474 86.9049 122.407 86.939C122.341 86.973 122.264 86.9887 122.187 86.9838C122.11 86.9826 122.035 86.9603 121.973 86.9201C121.912 86.8799 121.867 86.824 121.844 86.7602C121.829 86.7113 121.829 86.6597 121.843 86.6105C121.858 86.5614 121.887 86.5163 121.927 86.4796C122.06 86.3559 122.204 86.4034 122.193 86.432Z" fill="#263238"/>
<path d="M124.266 86.432C124.266 86.47 124.194 86.4986 124.166 86.5795C124.139 86.6603 124.166 86.7269 124.277 86.7365C124.388 86.746 124.421 86.6794 124.404 86.589C124.388 86.4986 124.321 86.47 124.327 86.4367C124.332 86.4034 124.465 86.3749 124.587 86.5081C124.62 86.5492 124.641 86.5965 124.649 86.6462C124.657 86.6959 124.65 86.7464 124.631 86.7935C124.599 86.8541 124.547 86.9049 124.48 86.939C124.414 86.973 124.337 86.9887 124.26 86.9838C124.183 86.9826 124.108 86.9603 124.047 86.9201C123.985 86.8799 123.94 86.824 123.918 86.7602C123.902 86.7113 123.902 86.6597 123.916 86.6105C123.931 86.5614 123.96 86.5163 124.001 86.4796C124.133 86.3559 124.277 86.4034 124.266 86.432Z" fill="#263238"/>
<path d="M135.289 128.887C135.289 128.958 131.138 129.01 126.018 129.01C120.899 129.01 116.747 128.958 116.747 128.887C116.747 128.815 120.894 128.763 126.018 128.763C131.143 128.763 135.289 128.82 135.289 128.887Z" fill="#263238"/>
<path d="M135.472 100.576C135.472 100.642 131.281 100.699 126.112 100.699C120.943 100.699 116.753 100.642 116.753 100.576C116.753 100.509 120.943 100.452 126.112 100.452C131.281 100.452 135.472 100.504 135.472 100.576Z" fill="#263238"/>
<path d="M135.472 115.851C135.472 115.918 131.331 115.975 126.223 115.975C121.115 115.975 116.996 115.894 116.996 115.851C116.996 115.809 121.137 115.728 126.239 115.728C131.342 115.728 135.472 115.761 135.472 115.851Z" fill="#263238"/>
<path d="M124.791 147.545C123.188 147.668 121.579 147.709 119.97 147.669C118.36 147.709 116.749 147.668 115.144 147.545C116.748 147.42 118.36 147.379 119.97 147.421C121.579 147.379 123.188 147.42 124.791 147.545Z" fill="#263238"/>
<path d="M124.858 150.923C123.307 151.051 121.749 151.094 120.192 151.051C118.637 151.094 117.08 151.052 115.531 150.923C117.08 150.8 118.637 150.759 120.192 150.799C121.748 150.759 123.307 150.801 124.858 150.923Z" fill="#263238"/>
<path d="M125.051 153.815C123.458 153.941 121.857 153.982 120.258 153.939C118.659 153.982 117.058 153.941 115.465 153.815C117.058 153.693 118.659 153.651 120.258 153.692C121.857 153.651 123.458 153.693 125.051 153.815Z" fill="#263238"/>
<path d="M124.918 156.927C123.358 157.049 121.791 157.09 120.225 157.05C118.659 157.09 117.091 157.049 115.531 156.927C117.091 156.801 118.659 156.76 120.225 156.803C121.791 156.76 123.358 156.801 124.918 156.927Z" fill="#263238"/>
<path d="M124.918 159.767C123.358 159.889 121.791 159.931 120.225 159.891C118.659 159.931 117.091 159.889 115.531 159.767C117.091 159.644 118.659 159.603 120.225 159.643C121.791 159.603 123.358 159.644 124.918 159.767Z" fill="#263238"/>
<path d="M124.918 162.607C123.358 162.732 121.791 162.773 120.225 162.73C118.659 162.773 117.091 162.732 115.531 162.607C117.091 162.484 118.659 162.443 120.225 162.483C121.791 162.443 123.358 162.484 124.918 162.607Z" fill="#263238"/>
<path d="M136.804 147.545C135.2 147.668 133.588 147.709 131.978 147.669C130.37 147.709 128.76 147.668 127.157 147.545C128.76 147.42 130.37 147.378 131.978 147.421C133.588 147.379 135.2 147.42 136.804 147.545Z" fill="#263238"/>
<path d="M136.865 150.923C135.316 151.052 133.76 151.094 132.205 151.051C130.65 151.094 129.093 151.052 127.544 150.923C129.093 150.8 130.65 150.759 132.205 150.799C133.76 150.759 135.316 150.8 136.865 150.923Z" fill="#263238"/>
<path d="M137.058 153.815C135.467 153.941 133.868 153.982 132.271 153.939C130.672 153.982 129.071 153.941 127.478 153.815C129.071 153.693 130.672 153.651 132.271 153.692C133.868 153.652 135.467 153.693 137.058 153.815Z" fill="#263238"/>
<path d="M136.931 156.927C135.371 157.049 133.804 157.09 132.238 157.05C130.672 157.09 129.104 157.049 127.544 156.927C129.104 156.801 130.672 156.76 132.238 156.803C133.804 156.76 135.371 156.801 136.931 156.927Z" fill="#263238"/>
<path d="M136.931 159.767C135.371 159.889 133.804 159.931 132.238 159.891C130.672 159.931 129.104 159.889 127.544 159.767C129.104 159.644 130.672 159.603 132.238 159.643C133.804 159.603 135.371 159.644 136.931 159.767Z" fill="#263238"/>
<path d="M136.931 162.607C135.371 162.732 133.804 162.773 132.238 162.73C130.672 162.773 129.104 162.732 127.544 162.607C129.104 162.484 130.672 162.443 132.238 162.483C133.804 162.443 135.371 162.484 136.931 162.607Z" fill="#263238"/>
<path d="M126.848 74.9048C126.892 74.9619 126.372 75.2996 125.692 75.6565C125.299 75.9068 124.855 76.0909 124.382 76.1988C124.338 76.1369 124.857 75.8039 125.537 75.4471C125.929 75.1946 126.374 75.0104 126.848 74.9048Z" fill="white"/>
<path d="M127.749 74.9761C127.815 75.0427 127.345 75.3614 126.737 75.6802C126.388 75.9119 125.984 76.0744 125.554 76.1559C125.515 76.0941 125.98 75.7896 126.588 75.4708C126.939 75.2498 127.332 75.0824 127.749 74.9761Z" fill="white"/>
<path d="M116.549 76.1277C116.631 76.1277 116.753 91.0183 116.83 109.382C116.908 127.745 116.897 142.645 116.83 142.645C116.764 142.645 116.626 127.759 116.554 109.386C116.482 91.0135 116.471 76.1277 116.549 76.1277Z" fill="#263238"/>
<path d="M135.289 142.493C135.206 142.493 135.223 128.487 135.317 111.213C135.411 93.9391 135.555 79.9333 135.638 79.9333C135.721 79.9333 135.704 93.9343 135.605 111.213C135.505 128.492 135.367 142.493 135.289 142.493Z" fill="#263238"/>
<path d="M165.645 149.653C165.645 149.719 159.183 149.776 151.205 149.776C143.228 149.776 136.765 149.719 136.765 149.653C136.765 149.586 143.228 149.529 151.205 149.529C159.183 149.529 165.645 149.581 165.645 149.653Z" fill="#263238"/>
<path d="M163.362 151.941C163.223 151.572 163.174 151.181 163.219 150.795C163.173 150.41 163.222 150.021 163.362 149.653C163.502 150.021 163.551 150.41 163.506 150.795C163.551 151.181 163.502 151.572 163.362 151.941Z" fill="#263238"/>
<path d="M161.002 151.893C160.862 151.545 160.813 151.175 160.858 150.809C160.813 150.441 160.862 150.069 161.002 149.719C161.144 150.068 161.193 150.441 161.145 150.809C161.194 151.175 161.145 151.546 161.002 151.893Z" fill="#263238"/>
<path d="M158.32 152.032C158.129 151.247 158.129 150.437 158.32 149.653C158.512 150.437 158.512 151.247 158.32 152.032Z" fill="#263238"/>
<path d="M155.695 152.146C155.503 151.323 155.503 150.476 155.695 149.653C155.886 150.476 155.886 151.323 155.695 152.146Z" fill="#263238"/>
<path d="M153.273 152.212C153.081 151.367 153.081 150.498 153.273 149.653C153.465 150.498 153.465 151.367 153.273 152.212Z" fill="#263238"/>
<path d="M150.719 152.212C150.527 151.367 150.527 150.498 150.719 149.653C150.911 150.498 150.911 151.367 150.719 152.212Z" fill="#263238"/>
<path d="M148.165 152.212C147.973 151.367 147.973 150.498 148.165 149.653C148.357 150.498 148.357 151.367 148.165 152.212Z" fill="#263238"/>
<path d="M145.611 152.721C145.419 151.705 145.419 150.669 145.611 149.653C145.802 150.669 145.802 151.705 145.611 152.721Z" fill="#263238"/>
<path d="M143.057 152.902C142.865 151.825 142.865 150.73 143.057 149.653C143.248 150.73 143.248 151.825 143.057 152.902Z" fill="#263238"/>
<path d="M140.005 153.121C139.813 151.971 139.813 150.803 140.005 149.653C140.197 150.803 140.197 151.971 140.005 153.121Z" fill="#263238"/>
<path d="M164.391 147.726L163.954 144.781L139.933 122.897L139.662 110.99L141.044 122.203L164.203 143.444C164.778 143.949 165.155 144.596 165.281 145.295L165.789 148.853L164.391 147.726Z" fill="#263238"/>
<path d="M150.719 144.106H139.662V146.67H150.719V144.106Z" fill="#FF725E"/>
<path d="M126.024 0C126.102 0 126.184 8.99144 126.201 20.0809C126.218 31.1703 126.173 40.1617 126.096 40.1617C126.019 40.1617 125.936 31.1703 125.914 20.0809C125.891 8.99144 125.947 0 126.024 0Z" fill="#263238"/>
<path d="M127.097 37.7499C127.097 37.7214 127.235 37.65 127.428 37.7499C127.484 37.7868 127.528 37.8346 127.558 37.8891C127.588 37.9437 127.602 38.0036 127.6 38.0639C127.589 38.1412 127.552 38.2141 127.494 38.2739C127.436 38.3336 127.359 38.3777 127.273 38.4008C127.186 38.4239 127.094 38.4251 127.007 38.4041C126.92 38.3832 126.841 38.341 126.781 38.2828C126.739 38.2345 126.711 38.1781 126.7 38.1185C126.688 38.0589 126.693 37.9977 126.715 37.9402C126.787 37.7452 126.964 37.7261 126.969 37.7594C126.975 37.7928 126.909 37.8546 126.914 37.9735C126.92 38.0925 127.008 38.2162 127.185 38.1638C127.219 38.1563 127.251 38.1412 127.276 38.12C127.302 38.0989 127.321 38.0723 127.331 38.0431C127.341 38.0138 127.342 37.9828 127.334 37.9531C127.326 37.9234 127.309 37.896 127.285 37.8736C127.207 37.7975 127.102 37.7832 127.097 37.7499Z" fill="#263238"/>
<path d="M127.097 31.018C127.097 30.9895 127.235 30.9181 127.428 31.018C127.482 31.0559 127.526 31.1038 127.556 31.1582C127.585 31.2125 127.6 31.2719 127.6 31.332C127.59 31.4097 127.553 31.4831 127.496 31.5435C127.438 31.6039 127.361 31.6487 127.275 31.6723C127.188 31.696 127.096 31.6976 127.008 31.6768C126.92 31.6561 126.842 31.614 126.781 31.5556C126.739 31.5073 126.711 31.4509 126.7 31.3913C126.688 31.3317 126.693 31.2705 126.715 31.2131C126.787 31.018 126.964 30.999 126.969 31.0323C126.975 31.0656 126.909 31.1274 126.914 31.2464C126.92 31.3653 127.008 31.4842 127.185 31.4367C127.219 31.4291 127.251 31.414 127.276 31.3929C127.302 31.3717 127.321 31.3452 127.331 31.3159C127.341 31.2866 127.342 31.2556 127.334 31.2259C127.326 31.1962 127.309 31.1688 127.285 31.1465C127.207 31.0656 127.102 31.0513 127.097 31.018Z" fill="#263238"/>
<path d="M127.096 24.2817C127.096 24.2531 127.235 24.1818 127.428 24.2817C127.484 24.3186 127.528 24.3663 127.558 24.4209C127.588 24.4755 127.602 24.5354 127.6 24.5957C127.591 24.6736 127.555 24.7476 127.497 24.8078C127.439 24.868 127.361 24.9118 127.273 24.9334C127.196 24.9599 127.112 24.9663 127.03 24.9518C126.949 24.9373 126.874 24.9027 126.815 24.8521C126.756 24.8015 126.716 24.7371 126.699 24.6671C126.682 24.597 126.69 24.5242 126.721 24.4577C126.792 24.2674 126.969 24.2484 126.975 24.2769C126.98 24.3055 126.914 24.3768 126.92 24.491C126.925 24.6052 127.014 24.7336 127.19 24.6861C127.367 24.6385 127.373 24.4958 127.29 24.3911C127.207 24.2864 127.102 24.3197 127.096 24.2817Z" fill="#263238"/>
<path d="M127.097 17.5499C127.097 17.5214 127.235 17.45 127.428 17.5737C127.484 17.6106 127.528 17.6583 127.558 17.7129C127.588 17.7675 127.602 17.8274 127.6 17.8877C127.591 17.9657 127.555 18.0396 127.497 18.0998C127.439 18.1601 127.361 18.2038 127.273 18.2255C127.187 18.2512 127.094 18.2536 127.006 18.2323C126.918 18.2111 126.84 18.1672 126.781 18.1065C126.739 18.0582 126.711 18.0019 126.7 17.9422C126.688 17.8826 126.693 17.8215 126.715 17.764C126.787 17.5689 126.964 17.5547 126.969 17.5832C126.975 17.6118 126.909 17.6784 126.914 17.7973C126.92 17.9162 127.008 18.0399 127.185 17.9876C127.219 17.9801 127.251 17.965 127.276 17.9438C127.302 17.9226 127.321 17.8961 127.331 17.8668C127.341 17.8376 127.342 17.8066 127.334 17.7769C127.326 17.7472 127.309 17.7198 127.285 17.6974C127.207 17.5975 127.102 17.5832 127.097 17.5499Z" fill="#263238"/>
<path d="M127.097 10.8183C127.097 10.7898 127.235 10.7184 127.428 10.8183C127.483 10.8567 127.527 10.9054 127.557 10.9606C127.587 11.0158 127.601 11.0762 127.6 11.137C127.589 11.2143 127.552 11.2872 127.494 11.347C127.436 11.4067 127.359 11.4508 127.273 11.4739C127.186 11.497 127.094 11.4982 127.007 11.4773C126.92 11.4563 126.841 11.4142 126.781 11.3559C126.739 11.3076 126.711 11.2512 126.7 11.1916C126.688 11.132 126.693 11.0708 126.715 11.0133C126.787 10.8183 126.964 10.7993 126.969 10.8326C126.975 10.8659 126.909 10.9277 126.914 11.0466C126.92 11.1656 127.008 11.2845 127.185 11.2369C127.219 11.2294 127.251 11.2143 127.276 11.1931C127.302 11.172 127.321 11.1455 127.331 11.1162C127.341 11.0869 127.342 11.0559 127.334 11.0262C127.326 10.9965 127.309 10.9691 127.285 10.9467C127.207 10.8659 127.102 10.8516 127.097 10.8183Z" fill="#263238"/>
<path d="M127.097 4.08169C127.097 4.08169 127.235 3.98654 127.428 4.10547C127.483 4.14289 127.527 4.1907 127.557 4.24517C127.586 4.29964 127.601 4.35929 127.6 4.41946C127.591 4.49787 127.555 4.57222 127.497 4.63316C127.439 4.69411 127.361 4.73893 127.273 4.76199C127.187 4.78704 127.094 4.78909 127.006 4.76788C126.918 4.74666 126.84 4.70316 126.781 4.64306C126.739 4.59476 126.711 4.53841 126.7 4.47878C126.688 4.41915 126.693 4.358 126.715 4.30053C126.787 4.10547 126.964 4.08644 126.969 4.11975C126.975 4.15305 126.909 4.21489 126.914 4.33383C126.92 4.45276 127.008 4.5717 127.185 4.52412C127.362 4.47655 127.367 4.33383 127.285 4.22917C127.202 4.1245 127.102 4.11975 127.097 4.08169Z" fill="#263238"/>
<path d="M118.682 11.4749C118.555 11.7224 118.405 11.961 118.234 12.1885C117.925 12.6357 117.505 13.2969 117.013 14.1247C116.521 14.9525 115.973 15.9563 115.426 17.0933C114.879 18.2303 114.37 19.5101 113.911 20.8707C113.452 22.2313 113.126 23.5586 112.877 24.767C112.629 25.9753 112.479 27.079 112.396 28.0067C112.314 28.9344 112.258 29.6908 112.247 30.2094C112.249 30.4799 112.228 30.7501 112.186 31.0181C112.141 30.7504 112.123 30.4798 112.131 30.2094C112.131 29.6861 112.131 28.9297 112.192 27.9972C112.27 26.9023 112.412 25.8115 112.618 24.7289C112.873 23.4056 113.213 22.0953 113.635 20.8041C114.068 19.5117 114.585 18.2411 115.183 16.9982C115.677 15.9869 116.231 14.9977 116.841 14.0343C117.361 13.2113 117.814 12.5643 118.151 12.1314C118.306 11.8998 118.484 11.6802 118.682 11.4749Z" fill="white"/>
<path d="M121.253 7.55479C121.319 7.58809 121.154 7.97343 120.872 8.41587C120.59 8.8583 120.319 9.19132 120.236 9.15802C120.153 9.12472 120.335 8.73937 120.617 8.29693C120.899 7.8545 121.181 7.52148 121.253 7.55479Z" fill="white"/>
<path d="M113.292 65.271C113.215 65.271 113.148 59.9856 113.148 53.4632C113.148 46.9408 113.215 41.6602 113.292 41.6602C113.37 41.6602 113.436 46.9456 113.436 53.4632C113.436 59.9808 113.37 65.271 113.292 65.271Z" fill="white"/>
<path d="M115.338 57.8354C115.192 56.6504 115.144 55.4581 115.194 54.2674C115.143 53.0687 115.191 51.8684 115.338 50.6755C115.48 51.8623 115.528 53.056 115.481 54.2483C115.529 55.4454 115.481 56.6439 115.338 57.8354Z" fill="white"/>
<path d="M117.698 55.3617C117.551 54.9362 117.501 54.4905 117.549 54.0486C117.501 53.6068 117.551 53.161 117.698 52.7356C117.89 53.6032 117.89 54.4941 117.698 55.3617Z" fill="white"/>
<path d="M112.109 97.0411C112.026 97.0411 111.96 90.8089 111.96 83.1258C111.96 75.4426 112.021 69.2295 112.109 69.2295C112.197 69.2295 112.253 75.4616 112.253 83.1496C112.253 90.8375 112.186 97.0411 112.109 97.0411Z" fill="white"/>
<path d="M169.377 11.4749L170.571 13.3493L172.749 14.3769L170.571 15.3997L169.377 17.2788L168.189 15.3997L166.005 14.3769L168.189 13.3493L169.377 11.4749Z" fill="#263238"/>
<path d="M174.817 20.0811L175.359 20.9421L176.359 21.4084L175.359 21.8793L174.817 22.7357L174.27 21.8793L173.275 21.4084L174.27 20.9421L174.817 20.0811Z" fill="#263238"/>
<path d="M62.0223 76.8411L63.2109 78.7202L65.3946 79.7431L63.2109 80.7707L62.0223 82.6498L60.8282 80.7707L58.6445 79.7431L60.8282 78.7202L62.0223 76.8411Z" fill="#263238"/>
<path d="M177.753 103.078L178.947 104.952L181.13 105.98L178.947 107.007L177.753 108.882L176.564 107.007L174.38 105.98L176.564 104.952L177.753 103.078Z" fill="#263238"/>
<path d="M54.1005 82.9829L54.6478 83.844L55.6429 84.3102L54.6478 84.7812L54.1005 85.6375L53.5587 84.7812L52.5581 84.3102L53.5587 83.844L54.1005 82.9829Z" fill="#263238"/>
<path d="M70.1601 66.0325L70.7074 66.8888L71.7025 67.3598L70.7074 67.826L70.1601 68.6871L69.6128 67.826L68.6177 67.3598L69.6128 66.8888L70.1601 66.0325Z" fill="#263238"/>
<path d="M198.407 98.5918H196.129V219.995H198.407V98.5918Z" fill="#263238"/>
<path d="M222.598 98.5012H220.321V219.852H222.598V98.5012Z" fill="#263238"/>
<path d="M221.714 98.5918H196.129V100.109H221.714V98.5918Z" fill="#263238"/>
<path d="M222.599 125.323H196.129V126.841H222.599V125.323Z" fill="#263238"/>
<path d="M222.35 185.409H196.129V186.927H222.35V185.409Z" fill="#263238"/>
<path d="M221.227 157.484L196.763 186.333L198.187 187.227L222.652 158.378L221.227 157.484Z" fill="#263238"/>
<path d="M220.977 126.607L196.309 157.587L197.764 158.445L222.432 127.465L220.977 126.607Z" fill="#263238"/>
<path d="M220.971 186.744L196.303 217.724L197.758 218.582L222.426 187.602L220.971 186.744Z" fill="#263238"/>
<path d="M221.247 99.5144L196.858 124.643L198.212 125.615L222.601 100.487L221.247 99.5144Z" fill="#263238"/>
<path d="M222.599 156.912H196.129V158.43H222.599V156.912Z" fill="#263238"/>
<path d="M207.451 219.876C207.373 219.876 207.307 192.902 207.307 159.638C207.307 126.375 207.373 99.3909 207.451 99.3909C207.528 99.3909 207.594 126.36 207.594 159.638C207.594 192.916 207.534 219.876 207.451 219.876Z" fill="#263238"/>
<path d="M208.468 219.852C208.391 219.852 208.324 193.078 208.324 160.062C208.324 127.046 208.391 100.266 208.468 100.266C208.545 100.266 208.612 127.031 208.612 160.062C208.612 193.092 208.551 219.852 208.468 219.852Z" fill="#263238"/>
<path d="M213.328 219.91C213.245 219.91 213.184 193.126 213.184 160.09C213.184 127.055 213.245 100.266 213.328 100.266C213.411 100.266 213.471 127.046 213.471 160.09C213.471 193.135 213.405 219.91 213.328 219.91Z" fill="#263238"/>
<path d="M216.965 219.852C216.888 219.852 216.822 193.078 216.822 160.062C216.822 127.046 216.888 100.266 216.965 100.266C217.043 100.266 217.109 127.031 217.109 160.062C217.109 193.092 217.059 219.852 216.965 219.852Z" fill="#263238"/>
<path d="M216.965 109.61C215.764 109.775 214.54 109.775 213.338 109.61C214.54 109.445 215.764 109.445 216.965 109.61Z" fill="#263238"/>
<path d="M216.965 106.988C215.764 107.153 214.54 107.153 213.338 106.988C214.54 106.824 215.764 106.824 216.965 106.988Z" fill="#263238"/>
<path d="M216.965 104.367C215.764 104.532 214.54 104.532 213.338 104.367C214.54 104.202 215.764 104.202 216.965 104.367Z" fill="#263238"/>
<path d="M216.965 101.746C215.764 101.911 214.54 101.911 213.338 101.746C214.54 101.581 215.764 101.581 216.965 101.746Z" fill="#263238"/>
<path d="M216.965 112.564C215.764 112.729 214.54 112.729 213.338 112.564C214.54 112.399 215.764 112.399 216.965 112.564Z" fill="#263238"/>
<path d="M216.965 115.518C215.764 115.683 214.54 115.683 213.338 115.518C214.54 115.354 215.764 115.354 216.965 115.518Z" fill="#263238"/>
<path d="M216.965 118.473C215.764 118.638 214.54 118.638 213.338 118.473C214.54 118.308 215.764 118.308 216.965 118.473Z" fill="#263238"/>
<path d="M216.965 121.427C215.764 121.592 214.54 121.592 213.338 121.427C214.539 121.256 215.764 121.256 216.965 121.427Z" fill="#263238"/>
<path d="M216.965 124.377C215.764 124.548 214.539 124.548 213.338 124.377C214.54 124.212 215.764 124.212 216.965 124.377Z" fill="#263238"/>
<path d="M216.965 127.331C215.764 127.496 214.54 127.496 213.338 127.331C214.54 127.166 215.764 127.166 216.965 127.331Z" fill="#263238"/>
<path d="M216.965 130.285C215.764 130.45 214.54 130.45 213.338 130.285C214.54 130.12 215.764 130.12 216.965 130.285Z" fill="#263238"/>
<path d="M216.965 133.24C215.764 133.405 214.54 133.405 213.338 133.24C214.54 133.075 215.764 133.075 216.965 133.24Z" fill="#263238"/>
<path d="M216.965 136.194C215.764 136.359 214.54 136.359 213.338 136.194C214.54 136.029 215.764 136.029 216.965 136.194Z" fill="#263238"/>
<path d="M216.965 139.163C215.764 139.327 214.54 139.327 213.338 139.163C214.54 138.998 215.764 138.998 216.965 139.163Z" fill="#263238"/>
<path d="M216.965 142.103C215.764 142.268 214.54 142.268 213.338 142.103C214.54 141.938 215.764 141.938 216.965 142.103Z" fill="#263238"/>
<path d="M216.965 145.057C215.764 145.222 214.54 145.222 213.338 145.057C214.54 144.892 215.764 144.892 216.965 145.057Z" fill="#263238"/>
<path d="M216.965 148.012C215.764 148.177 214.54 148.177 213.338 148.012C214.54 147.847 215.764 147.847 216.965 148.012Z" fill="#263238"/>
<path d="M216.965 150.966C215.764 151.131 214.54 151.131 213.338 150.966C214.54 150.801 215.764 150.801 216.965 150.966Z" fill="#263238"/>
<path d="M216.965 153.911C215.764 154.075 214.54 154.075 213.338 153.911C214.54 153.746 215.764 153.746 216.965 153.911Z" fill="#263238"/>
<path d="M216.965 156.874C215.764 157.039 214.54 157.039 213.338 156.874C214.54 156.71 215.764 156.71 216.965 156.874Z" fill="#263238"/>
<path d="M216.965 159.829C215.764 159.994 214.54 159.994 213.338 159.829C214.54 159.664 215.764 159.664 216.965 159.829Z" fill="#263238"/>
<path d="M216.965 162.783C215.764 162.948 214.54 162.948 213.338 162.783C214.54 162.618 215.764 162.618 216.965 162.783Z" fill="#263238"/>
<path d="M216.965 165.737C215.764 165.902 214.54 165.902 213.338 165.737C214.54 165.572 215.764 165.572 216.965 165.737Z" fill="#263238"/>
<path d="M216.965 168.692C215.764 168.856 214.54 168.856 213.338 168.692C214.54 168.527 215.764 168.527 216.965 168.692Z" fill="#263238"/>
<path d="M216.965 171.646C215.764 171.811 214.54 171.811 213.338 171.646C214.54 171.481 215.764 171.481 216.965 171.646Z" fill="#263238"/>
<path d="M216.965 174.6C215.764 174.765 214.54 174.765 213.338 174.6C214.54 174.435 215.764 174.435 216.965 174.6Z" fill="#263238"/>
<path d="M216.965 177.555C215.764 177.72 214.54 177.72 213.338 177.555C214.54 177.39 215.764 177.39 216.965 177.555Z" fill="#263238"/>
<path d="M216.965 180.509C215.764 180.674 214.54 180.674 213.338 180.509C214.54 180.344 215.764 180.344 216.965 180.509Z" fill="#263238"/>
<path d="M216.965 183.464C215.764 183.628 214.54 183.628 213.338 183.464C214.54 183.299 215.764 183.299 216.965 183.464Z" fill="#263238"/>
<path d="M216.965 186.418C215.764 186.583 214.54 186.583 213.338 186.418C214.54 186.253 215.764 186.253 216.965 186.418Z" fill="#263238"/>
<path d="M216.965 189.372C215.764 189.537 214.54 189.537 213.338 189.372C214.54 189.207 215.764 189.207 216.965 189.372Z" fill="#263238"/>
<path d="M216.965 192.326C215.764 192.491 214.54 192.491 213.338 192.326C214.54 192.161 215.764 192.161 216.965 192.326Z" fill="#263238"/>
<path d="M216.965 195.3C215.764 195.464 214.54 195.464 213.338 195.3C214.539 195.128 215.764 195.128 216.965 195.3Z" fill="#263238"/>
<path d="M216.965 198.23C215.764 198.401 214.539 198.401 213.338 198.23C214.54 198.065 215.764 198.065 216.965 198.23Z" fill="#263238"/>
<path d="M216.965 201.184C215.764 201.349 214.54 201.349 213.338 201.184C214.54 201.02 215.764 201.02 216.965 201.184Z" fill="#263238"/>
<path d="M216.965 204.139C215.764 204.304 214.54 204.304 213.338 204.139C214.54 203.974 215.764 203.974 216.965 204.139Z" fill="#263238"/>
<path d="M216.965 207.093C215.764 207.258 214.54 207.258 213.338 207.093C214.54 206.928 215.764 206.928 216.965 207.093Z" fill="#263238"/>
<path d="M216.965 210.048C215.764 210.213 214.54 210.213 213.338 210.048C214.54 209.883 215.764 209.883 216.965 210.048Z" fill="#263238"/>
<path d="M216.965 213.002C215.764 213.167 214.54 213.167 213.338 213.002C214.54 212.837 215.764 212.837 216.965 213.002Z" fill="#263238"/>
<path d="M216.965 215.956C215.764 216.121 214.54 216.121 213.338 215.956C214.54 215.791 215.764 215.791 216.965 215.956Z" fill="#263238"/>
<path d="M216.965 218.911C215.764 219.075 214.54 219.075 213.338 218.911C214.54 218.746 215.764 218.746 216.965 218.911Z" fill="#263238"/>
<path d="M197.268 159.895C197.211 159.902 197.153 159.902 197.096 159.895H196.599L194.669 159.919L187.543 159.957L163.771 159.995L163.915 159.871V164.125L163.771 164.001L187.543 164.039L194.669 164.082H196.599H197.096H197.268C197.211 164.088 197.153 164.088 197.096 164.082H196.599L194.669 164.106L187.543 164.144L163.771 164.182H163.628V159.681H163.771L187.543 159.719L194.669 159.757H196.599H197.096C197.162 159.794 197.22 159.841 197.268 159.895Z" fill="#263238"/>
<path d="M196.179 163.901L196.09 163.844L195.841 163.649L194.89 162.883L191.347 159.971L191.485 159.914C191.557 161.103 191.64 162.455 191.734 163.948V164.172L191.54 164.015L186.697 159.995L186.902 159.919C186.902 161.213 186.858 162.569 186.836 163.977V164.239L186.615 164.058L181.75 160.004L181.987 159.924C181.96 161.184 181.927 162.526 181.899 163.891V164.172L181.661 163.977L179.356 162.074L176.901 160.028L177.145 159.938V164.22L176.907 164.029L171.981 160.038L172.202 159.957C172.202 161.441 172.202 162.859 172.202 164.205V164.462L171.992 164.281L167.072 160L167.243 159.938C167.243 161.513 167.243 162.883 167.243 164.063V164.272L167.105 164.101C166.044 162.788 165.214 161.75 164.634 161.032L163.998 160.223L163.838 160.014L163.788 159.938C163.788 159.938 163.788 159.938 163.854 160L164.031 160.204L164.706 160.994L167.227 164.024L167.088 164.063C167.088 162.883 167.088 161.513 167.088 159.938V159.729L167.26 159.876L172.235 164.11L172.025 164.186C172.025 162.84 172.025 161.422 172.025 159.938V159.619L172.246 159.8L177.183 163.772L176.946 163.863C176.946 162.566 176.946 161.238 176.946 159.881V159.619L177.189 159.819L179.649 161.869L181.949 163.772L181.705 163.858C181.739 162.497 181.772 161.156 181.799 159.895V159.619L182.032 159.814L186.891 163.872L186.664 163.953C186.692 162.526 186.725 161.189 186.753 159.9V159.652L186.957 159.824L191.773 163.867L191.601 163.934C191.524 162.445 191.457 161.08 191.397 159.905V159.724L191.546 159.847L195.034 162.807L195.957 163.601L196.19 163.81C196.156 163.853 196.184 163.901 196.179 163.901Z" fill="#263238"/>
<path d="M197.804 126.841H197.633H197.129L195.2 126.865L188.08 126.903L164.308 126.941L164.451 126.817V131.075L164.308 130.951L188.08 130.989L195.206 131.027L197.157 131.075H197.66C197.717 131.068 197.775 131.068 197.832 131.075H197.66H197.157L195.233 131.099L188.107 131.137L164.335 131.175H164.192V126.674H164.335L188.107 126.712L195.228 126.75L197.157 126.774H197.66C197.711 126.792 197.759 126.814 197.804 126.841Z" fill="#263238"/>
<path d="M196.715 130.823C196.715 130.823 196.681 130.823 196.626 130.761L196.377 130.571L195.427 129.805L191.883 126.893L192.021 126.836C192.093 128.026 192.176 129.377 192.27 130.871V131.094L192.082 130.937L187.234 126.917L187.444 126.841C187.444 128.135 187.399 129.491 187.377 130.899V131.161L187.156 130.98C185.619 129.696 183.983 128.34 182.286 126.927L182.529 126.841C182.496 128.107 182.468 129.448 182.435 130.809V131.094L182.197 130.899L179.897 128.996L177.443 126.951L177.686 126.86V131.142L177.454 130.947L172.528 126.96L172.749 126.879C172.749 128.363 172.749 129.78 172.749 131.128V131.38L172.545 131.204L167.625 126.922L167.796 126.86C167.796 128.43 167.796 129.8 167.796 130.985V131.194L167.658 131.023L165.192 127.954C164.921 127.612 164.706 127.341 164.556 127.146L164.396 126.936C164.357 126.889 164.341 126.86 164.346 126.86C164.352 126.86 164.346 126.86 164.413 126.922C164.479 126.984 164.518 127.041 164.589 127.122L165.258 127.916L167.785 130.947L167.647 130.985C167.647 129.8 167.647 128.43 167.619 126.86V126.651L167.79 126.798L172.766 131.032L172.556 131.108C172.556 129.761 172.556 128.344 172.556 126.86V126.598L172.782 126.779L177.714 130.752L177.482 130.842C177.482 129.542 177.482 128.214 177.482 126.86V126.57L177.725 126.77L180.179 128.82L182.479 130.723L182.236 130.809C182.269 129.448 182.302 128.107 182.335 126.841V126.565L182.568 126.76L187.422 130.818L187.2 130.899C187.2 129.472 187.256 128.135 187.283 126.846V126.598L187.488 126.77L192.309 130.814L192.132 130.88C192.06 129.391 191.988 128.026 191.927 126.851V126.67L192.071 126.794L195.565 129.753L196.482 130.547L196.715 130.752C196.716 130.775 196.716 130.799 196.715 130.823Z" fill="#263238"/>
<path d="M255 219.857C255 219.924 197.914 219.981 127.506 219.981C57.0966 219.981 0 219.924 0 219.857C0 219.791 57.0745 219.734 127.506 219.734C197.937 219.734 255 219.786 255 219.857Z" fill="#263238"/>
</svg>
