<svg width="146" height="153" viewBox="0 0 146 153" fill="none" xmlns="http://www.w3.org/2000/svg">
<path d="M28.4255 41.2408C31.9055 39.8429 33.6176 35.8269 32.2496 32.2709C30.8816 28.7148 26.9515 26.9652 23.4715 28.3632C19.9915 29.7611 18.2794 33.7771 19.6474 37.3331C21.0154 40.8892 24.9455 42.6387 28.4255 41.2408Z" fill="#EBEBEB"/>
<path d="M32.4267 36.821C31.797 36.2597 31.0839 35.8043 30.3142 35.4718C28.9728 34.8674 25.3218 34.209 23.6247 33.3347C21.2482 32.1115 20.9524 30.7911 20.9665 30.0968C21.5583 29.4437 22.267 28.9125 23.0544 28.5317C23.2234 29.2513 23.8606 31.4099 27.8074 32.849C29.846 33.5686 31.7965 33.0937 32.4584 32.9282C32.8147 34.2019 32.8037 35.5535 32.4267 36.821Z" fill="#DBDBDB"/>
<path d="M29.663 40.5947C28.3645 41.4644 26.8134 41.8528 25.2686 41.695C23.7237 41.5372 22.2786 40.8428 21.1743 39.7276C21.559 39.5164 21.9667 39.3521 22.389 39.2383C24.2092 38.785 26.2126 39.6736 26.9449 40.0946C27.7641 40.5858 28.7276 40.763 29.663 40.5947Z" fill="#DBDBDB"/>
<path d="M32.0257 37.8569L31.9412 38.026L31.8637 38.1771C31.8003 38.2922 31.737 38.4001 31.6701 38.5081C31.6032 38.616 31.5468 38.7023 31.4835 38.7959L31.4095 38.9002L31.325 39.0153L31.2405 39.1305L31.1314 39.26L31.0258 39.3895L30.9307 39.4974C30.8603 39.5766 30.7863 39.6521 30.7124 39.7277C30.2899 39.8608 29.7266 39.8033 28.8992 39.4687C27.6704 38.9758 26.3431 37.7885 23.9701 36.9179C22.5081 36.3937 20.9332 36.2904 19.4177 36.6192C19.0505 35.2396 19.112 33.7774 19.5937 32.4351C20.0268 32.4351 21.4175 32.6221 24.3855 35.1262C25.3088 35.9263 26.3105 36.6268 27.3747 37.2165C29.9097 38.5728 31.3743 38.1699 31.9869 37.8569H32.0327H32.0257Z" fill="#DBDBDB"/>
<path d="M25.5895 40.4472C25.7092 40.1666 26.1317 40.0875 26.533 40.2601C26.9344 40.4328 27.1633 40.8142 27.04 41.0948C26.9168 41.3754 26.4978 41.4546 26.0965 41.2819C25.6951 41.1092 25.4698 40.7458 25.5895 40.4472Z" fill="#C7C7C7"/>
<path d="M27.5049 39.9689C27.5753 39.8106 27.8253 39.771 28.0647 39.8754C28.3042 39.9797 28.445 40.1992 28.3781 40.3575C28.3112 40.5158 28.0612 40.5589 27.8183 40.451C27.5753 40.3431 27.438 40.1272 27.5049 39.9689Z" fill="#C7C7C7"/>
<path d="M22.255 31.4709C22.3571 31.2298 22.7232 31.1614 23.0753 31.3197C23.4274 31.4781 23.6281 31.7983 23.526 32.0393C23.4239 32.2803 23.0542 32.3487 22.7021 32.1904C22.35 32.0321 22.1494 31.7119 22.255 31.4709Z" fill="#C7C7C7"/>
<path d="M23.5016 31.2336C23.5423 31.1676 23.6065 31.1202 23.6807 31.1014C23.7548 31.0826 23.8332 31.0939 23.8994 31.1329C23.9709 31.1562 24.0313 31.2061 24.0684 31.2728C24.1056 31.3394 24.1169 31.4179 24.1001 31.4927C24.0501 31.5428 23.9865 31.5766 23.9175 31.5896C23.8485 31.6027 23.7773 31.5943 23.713 31.5657C23.6487 31.5371 23.5942 31.4895 23.5566 31.4291C23.5189 31.3686 23.4997 31.2981 23.5016 31.2264V31.2336Z" fill="#C7C7C7"/>
<path d="M23.7024 31.8739C23.7295 31.8341 23.7705 31.8064 23.8169 31.7964C23.8634 31.7863 23.9118 31.7948 23.9524 31.8199C24.058 31.8667 24.1179 31.9675 24.0826 32.043C24.0474 32.1186 23.9383 32.1437 23.8327 32.097C23.727 32.0502 23.6707 31.9531 23.7024 31.8739Z" fill="#C7C7C7"/>
<path d="M27.9273 31.8916C27.9416 31.7689 27.9934 31.6539 28.0752 31.5629C28.1569 31.4718 28.2646 31.4093 28.3831 31.3842C28.5015 31.359 28.6246 31.3725 28.7351 31.4227C28.8457 31.4729 28.9379 31.5573 28.999 31.664C29.0601 31.7707 29.0868 31.8943 29.0754 32.0173C29.0641 32.1404 29.0152 32.2566 28.9357 32.3498C28.8561 32.4429 28.75 32.5081 28.6323 32.5363C28.5145 32.5645 28.3911 32.5542 28.2793 32.5069C28.1538 32.4714 28.0467 32.3873 27.981 32.2724C27.9152 32.1574 27.8959 32.0209 27.9273 31.8916Z" fill="#C7C7C7"/>
<path d="M27.7652 32.8345C27.7812 32.7816 27.8126 32.7349 27.8552 32.7006C27.8977 32.6663 27.9495 32.646 28.0036 32.6424C28.0578 32.6389 28.1117 32.6522 28.1582 32.6806C28.2048 32.7091 28.2417 32.7513 28.2643 32.8017C28.2868 32.8521 28.2938 32.9083 28.2843 32.9629C28.2749 33.0175 28.2494 33.0678 28.2113 33.1073C28.1733 33.1467 28.1243 33.1734 28.0711 33.1838C28.0178 33.1942 27.9627 33.1879 27.9131 33.1655C27.8514 33.1406 27.8015 33.0921 27.7739 33.0304C27.7464 32.9688 27.7432 32.8986 27.7652 32.8345Z" fill="#C7C7C7"/>
<path d="M130.249 112.507C132.763 112.507 134.801 110.424 134.801 107.855C134.801 105.286 132.763 103.203 130.249 103.203C127.734 103.203 125.696 105.286 125.696 107.855C125.696 110.424 127.734 112.507 130.249 112.507Z" fill="#EBEBEB"/>
<path d="M131.907 105.095C131.918 105.318 131.858 105.539 131.738 105.725C131.616 105.918 131.444 106.072 131.242 106.171C131.035 106.279 130.795 106.301 130.573 106.232C130.363 106.162 130.184 106.02 130.066 105.829C130.226 105.954 130.413 106.039 130.611 106.078C130.703 106.094 130.798 106.094 130.89 106.078C130.982 106.063 131.073 106.034 131.157 105.991L131.284 105.919C131.323 105.891 131.365 105.865 131.4 105.837C131.479 105.778 131.55 105.709 131.611 105.632C131.742 105.474 131.843 105.292 131.907 105.095Z" fill="#C7C7C7"/>
<path d="M130.27 105.362C130.249 105.206 130.282 105.048 130.365 104.915C130.448 104.776 130.571 104.665 130.717 104.599C130.79 104.561 130.869 104.538 130.951 104.532C131.033 104.526 131.115 104.536 131.192 104.563C131.344 104.611 131.47 104.718 131.544 104.861C131.429 104.787 131.299 104.738 131.164 104.718C131.043 104.702 130.92 104.724 130.812 104.782C130.566 104.899 130.373 105.106 130.27 105.362Z" fill="#C7C7C7"/>
<path d="M130.249 110.042C130.3 110.185 130.3 110.342 130.249 110.485C130.201 110.636 130.109 110.768 129.985 110.863C129.862 110.959 129.707 111.004 129.553 110.987C129.399 110.97 129.257 110.894 129.157 110.773C129.282 110.812 129.413 110.831 129.545 110.827C129.661 110.819 129.773 110.775 129.865 110.701C129.963 110.625 130.045 110.531 130.108 110.424C130.175 110.305 130.223 110.176 130.249 110.042Z" fill="#C7C7C7"/>
<path d="M129.305 110.571C129.28 110.524 129.264 110.471 129.259 110.418C129.253 110.364 129.258 110.31 129.273 110.258C129.305 110.149 129.369 110.054 129.457 109.985C129.503 109.949 129.555 109.923 129.612 109.908C129.668 109.894 129.727 109.892 129.784 109.902C129.836 109.911 129.886 109.931 129.93 109.961C129.974 109.991 130.012 110.029 130.041 110.075C129.953 110.061 129.864 110.061 129.777 110.075C129.705 110.085 129.637 110.115 129.58 110.161C129.447 110.264 129.351 110.408 129.305 110.571Z" fill="#C7C7C7"/>
<path d="M128.608 105.854C128.648 105.892 128.681 105.939 128.703 105.99C128.725 106.041 128.737 106.097 128.738 106.153C128.739 106.276 128.692 106.395 128.608 106.484C128.564 106.528 128.511 106.561 128.453 106.581C128.395 106.601 128.334 106.607 128.273 106.599C128.165 106.587 128.065 106.537 127.988 106.459C128.082 106.462 128.177 106.456 128.27 106.441C128.344 106.428 128.413 106.393 128.467 106.34C128.521 106.283 128.561 106.214 128.583 106.138C128.606 106.046 128.615 105.95 128.608 105.854Z" fill="#C7C7C7"/>
<path d="M128.045 106.308C128.011 106.285 127.983 106.255 127.963 106.219C127.943 106.184 127.931 106.144 127.928 106.103C127.926 106.058 127.933 106.013 127.949 105.971C127.965 105.928 127.989 105.89 128.02 105.858C128.052 105.825 128.092 105.8 128.135 105.786C128.179 105.771 128.225 105.768 128.27 105.775C128.309 105.781 128.346 105.795 128.379 105.816C128.412 105.837 128.441 105.865 128.463 105.898C128.399 105.905 128.336 105.917 128.273 105.934C128.231 105.946 128.192 105.97 128.161 106.002C128.129 106.035 128.102 106.074 128.083 106.117C128.062 106.179 128.049 106.243 128.045 106.308Z" fill="#C7C7C7"/>
<path d="M131.773 110.762C131.747 110.811 131.711 110.855 131.667 110.89C131.623 110.924 131.573 110.949 131.52 110.963C131.461 110.98 131.399 110.984 131.338 110.976C131.278 110.967 131.22 110.946 131.168 110.913C131.116 110.881 131.072 110.838 131.039 110.786C131.006 110.734 130.985 110.676 130.977 110.614C130.962 110.503 130.984 110.39 131.041 110.294C131.06 110.39 131.09 110.482 131.129 110.571C131.157 110.641 131.206 110.701 131.27 110.74C131.337 110.781 131.413 110.803 131.491 110.805C131.587 110.806 131.682 110.791 131.773 110.762Z" fill="#C7C7C7"/>
<path d="M131.206 110.312C131.22 110.274 131.242 110.24 131.271 110.212C131.3 110.184 131.334 110.163 131.372 110.15C131.414 110.136 131.458 110.131 131.502 110.136C131.545 110.141 131.588 110.156 131.625 110.179C131.665 110.203 131.698 110.236 131.722 110.275C131.747 110.314 131.762 110.359 131.766 110.406C131.772 110.486 131.748 110.566 131.699 110.629C131.674 110.567 131.646 110.507 131.615 110.449C131.595 110.41 131.564 110.377 131.527 110.355C131.487 110.33 131.443 110.314 131.396 110.309C131.333 110.299 131.269 110.3 131.206 110.312Z" fill="#C7C7C7"/>
<path d="M133.333 107.488C133.338 107.543 133.331 107.6 133.314 107.653C133.297 107.706 133.27 107.755 133.234 107.797C133.196 107.843 133.148 107.881 133.095 107.908C133.042 107.935 132.984 107.952 132.924 107.956C132.864 107.959 132.803 107.948 132.746 107.924C132.69 107.9 132.64 107.862 132.601 107.815C132.526 107.734 132.482 107.628 132.477 107.517C132.545 107.584 132.619 107.645 132.699 107.696C132.763 107.736 132.836 107.756 132.91 107.754C132.988 107.748 133.063 107.722 133.129 107.678C133.207 107.627 133.276 107.563 133.333 107.488Z" fill="#C7C7C7"/>
<path d="M132.615 107.441C132.605 107.401 132.605 107.36 132.614 107.32C132.622 107.28 132.639 107.243 132.664 107.211C132.692 107.176 132.727 107.147 132.766 107.126C132.806 107.105 132.849 107.092 132.893 107.089C132.938 107.085 132.984 107.094 133.026 107.112C133.067 107.131 133.104 107.16 133.132 107.196C133.182 107.259 133.206 107.339 133.199 107.42C133.145 107.382 133.089 107.348 133.03 107.319C132.991 107.298 132.947 107.289 132.903 107.29C132.857 107.294 132.812 107.306 132.77 107.326C132.714 107.358 132.662 107.397 132.615 107.441Z" fill="#C7C7C7"/>
<path d="M127.298 108.538C127.304 108.594 127.299 108.651 127.283 108.705C127.267 108.759 127.239 108.809 127.203 108.851C127.164 108.897 127.117 108.935 127.064 108.962C127.011 108.99 126.953 109.006 126.893 109.01C126.832 109.013 126.771 109.002 126.714 108.978C126.657 108.953 126.607 108.916 126.566 108.869C126.494 108.786 126.45 108.681 126.443 108.571C126.512 108.638 126.587 108.698 126.668 108.751C126.731 108.791 126.805 108.811 126.879 108.808C126.957 108.802 127.032 108.776 127.097 108.733C127.176 108.682 127.245 108.616 127.298 108.538Z" fill="#C7C7C7"/>
<path d="M126.584 108.495C126.574 108.455 126.574 108.414 126.582 108.374C126.591 108.334 126.608 108.297 126.633 108.265C126.66 108.229 126.694 108.2 126.733 108.179C126.772 108.158 126.814 108.145 126.858 108.142C126.904 108.139 126.949 108.147 126.991 108.166C127.033 108.185 127.069 108.214 127.098 108.25C127.123 108.281 127.142 108.316 127.155 108.355C127.167 108.393 127.171 108.433 127.168 108.473C127.114 108.436 127.058 108.402 126.999 108.373C126.96 108.351 126.916 108.341 126.872 108.344C126.826 108.348 126.781 108.36 126.738 108.38C126.683 108.412 126.631 108.451 126.584 108.495Z" fill="#C7C7C7"/>
<path d="M114.275 5.96312L115.486 4.72909C115.652 4.55912 115.746 4.32881 115.746 4.08869C115.746 3.84857 115.652 3.61826 115.486 3.44829C115.405 3.36344 115.307 3.29607 115.199 3.25009C115.092 3.2041 114.976 3.18042 114.86 3.18042C114.743 3.18042 114.628 3.2041 114.52 3.25009C114.413 3.29607 114.315 3.36344 114.233 3.44829L113.022 4.68232C112.856 4.85229 112.763 5.0826 112.763 5.32272C112.763 5.56284 112.856 5.79315 113.022 5.96312C113.188 6.13273 113.414 6.22798 113.649 6.22798C113.884 6.22798 114.109 6.13273 114.275 5.96312Z" fill="#EBEBEB"/>
<path d="M130.784 18.2097L131.552 16.6483C131.605 16.5422 131.637 16.4263 131.646 16.3075C131.655 16.1886 131.64 16.0692 131.604 15.956C131.567 15.8429 131.509 15.7383 131.432 15.6484C131.356 15.5585 131.262 15.485 131.158 15.4323C131.054 15.3785 130.94 15.3463 130.824 15.3375C130.708 15.3286 130.591 15.3433 130.481 15.3808C130.37 15.4182 130.268 15.4777 130.18 15.5557C130.092 15.6337 130.02 15.7287 129.968 15.8352L129.2 17.3967C129.096 17.6115 129.079 17.8598 129.152 18.0876C129.226 18.3153 129.385 18.504 129.594 18.6127C129.804 18.7203 130.048 18.7383 130.271 18.6628C130.494 18.5872 130.679 18.4243 130.784 18.2097Z" fill="#EBEBEB"/>
<path d="M120.222 2.47315L121.13 2.34363C121.246 2.32687 121.357 2.28704 121.457 2.22644C121.557 2.16583 121.645 2.08563 121.715 1.99042C121.785 1.8952 121.836 1.78684 121.865 1.67151C121.894 1.55618 121.9 1.43615 121.884 1.31827C121.867 1.20039 121.828 1.08697 121.769 0.984474C121.71 0.881983 121.631 0.792434 121.538 0.72094C121.445 0.649445 121.339 0.597405 121.226 0.567793C121.113 0.53818 120.996 0.531575 120.88 0.548353L119.972 0.681471C119.857 0.698238 119.746 0.73806 119.645 0.798665C119.545 0.859269 119.457 0.939469 119.387 1.03468C119.317 1.1299 119.267 1.23826 119.238 1.35359C119.209 1.46892 119.202 1.58895 119.219 1.70683C119.235 1.82459 119.274 1.93788 119.333 2.0402C119.393 2.14252 119.471 2.23185 119.564 2.30305C119.658 2.37426 119.764 2.42594 119.877 2.45513C119.989 2.48432 120.107 2.49045 120.222 2.47315Z" fill="#EBEBEB"/>
<path d="M112.99 14.7344L112.86 13.8025C112.826 13.5651 112.701 13.3512 112.513 13.2075C112.325 13.0639 112.089 13.0023 111.856 13.0362C111.741 13.053 111.63 13.0928 111.53 13.1534C111.429 13.214 111.342 13.2942 111.272 13.3894C111.202 13.4846 111.151 13.593 111.122 13.7083C111.093 13.8237 111.086 13.9437 111.103 14.0616L111.233 14.9898C111.267 15.2275 111.392 15.4417 111.58 15.586C111.768 15.7302 112.004 15.7926 112.237 15.7597C112.352 15.743 112.463 15.7031 112.563 15.6425C112.664 15.5819 112.751 15.5017 112.821 15.4065C112.891 15.3113 112.942 15.2029 112.971 15.0876C113 14.9723 113.006 14.8522 112.99 14.7344Z" fill="#EBEBEB"/>
<path d="M132.485 12.9032V11.7088C132.485 11.2796 132.144 10.9316 131.724 10.9316H131.474C131.054 10.9316 130.714 11.2796 130.714 11.7088V12.9032C130.714 13.3324 131.054 13.6803 131.474 13.6803H131.724C132.144 13.6803 132.485 13.3324 132.485 12.9032Z" fill="#EBEBEB"/>
<path d="M118.56 22.6061L119.447 22.8507C119.674 22.9123 119.916 22.8795 120.119 22.7595C120.322 22.6394 120.471 22.442 120.532 22.2103C120.562 22.0953 120.57 21.9753 120.555 21.8571C120.54 21.739 120.502 21.625 120.444 21.5217C120.386 21.4185 120.308 21.328 120.216 21.2554C120.123 21.1828 120.018 21.1295 119.905 21.0986L119.018 20.8576C118.905 20.8266 118.788 20.8186 118.673 20.8341C118.557 20.8495 118.446 20.8881 118.345 20.9476C118.245 21.0071 118.156 21.0863 118.086 21.1808C118.015 21.2753 117.963 21.383 117.933 21.498C117.903 21.6128 117.895 21.7326 117.91 21.8505C117.925 21.9684 117.963 22.0821 118.021 22.1851C118.08 22.288 118.157 22.3782 118.25 22.4505C118.342 22.5227 118.448 22.5756 118.56 22.6061Z" fill="#EBEBEB"/>
<path d="M121.63 22.3651C127.279 22.3651 131.858 17.6858 131.858 11.9136C131.858 6.14144 127.279 1.46216 121.63 1.46216C115.982 1.46216 111.402 6.14144 111.402 11.9136C111.402 17.6858 115.982 22.3651 121.63 22.3651Z" fill="#EBEBEB"/>
<path d="M125.352 5.71484C125.377 6.2168 125.244 6.71379 124.972 7.13236C124.699 7.56445 124.315 7.91168 123.862 8.13613C123.396 8.37527 122.858 8.42165 122.359 8.26565C121.887 8.11337 121.482 7.79628 121.215 7.36981C121.58 7.64372 121.999 7.83171 122.444 7.92026C122.651 7.95803 122.863 7.95803 123.07 7.92026C123.278 7.8896 123.479 7.82395 123.665 7.72599C123.763 7.67818 123.858 7.62534 123.95 7.56769C124.042 7.50652 124.134 7.44896 124.218 7.3806C124.392 7.24637 124.552 7.09316 124.693 6.92369C124.988 6.56848 125.212 6.15782 125.352 5.71484Z" fill="#C7C7C7"/>
<path d="M121.676 6.31564C121.628 5.96721 121.703 5.61279 121.887 5.31546C122.07 5.00395 122.338 4.75384 122.658 4.59591C122.82 4.51193 122.997 4.46168 123.179 4.44809C123.36 4.43451 123.542 4.45785 123.714 4.51676C124.048 4.62952 124.326 4.87086 124.489 5.18954C124.23 5.02636 123.941 4.91752 123.64 4.86934C123.369 4.83701 123.095 4.88707 122.852 5.01325C122.315 5.28225 121.895 5.74679 121.676 6.31564Z" fill="#C7C7C7"/>
<path d="M118.212 13.4929C118.338 13.8111 118.346 14.1652 118.236 14.4895C118.128 14.8265 117.922 15.1216 117.645 15.335C117.504 15.448 117.342 15.5309 117.169 15.5785C116.996 15.6261 116.815 15.6375 116.638 15.612C116.304 15.5659 115.999 15.394 115.782 15.1299C116.064 15.2252 116.359 15.2678 116.655 15.2558C116.913 15.2346 117.158 15.1357 117.36 14.9716C117.579 14.8024 117.765 14.591 117.905 14.3492C118.055 14.0838 118.158 13.7941 118.212 13.4929Z" fill="#C7C7C7"/>
<path d="M116.092 14.6805C115.98 14.4649 115.956 14.2127 116.025 13.9789C116.091 13.7346 116.235 13.5195 116.434 13.3673C116.536 13.2857 116.654 13.2269 116.78 13.1947C116.906 13.1625 117.038 13.1576 117.166 13.1802C117.285 13.1983 117.4 13.2419 117.502 13.3082C117.604 13.3746 117.691 13.4621 117.757 13.5652C117.56 13.5244 117.359 13.5147 117.159 13.5364C116.997 13.5609 116.844 13.6279 116.715 13.7307C116.411 13.9685 116.192 14.3024 116.092 14.6805Z" fill="#C7C7C7"/>
<path d="M114.543 11.1689C114.634 11.2543 114.706 11.3576 114.757 11.4727C114.807 11.5878 114.834 11.7121 114.835 11.8381C114.835 12.1074 114.731 12.3659 114.546 12.5577C114.45 12.6579 114.332 12.7338 114.202 12.7793C114.072 12.8249 113.933 12.8389 113.796 12.8203C113.553 12.7938 113.326 12.6834 113.152 12.5073C113.365 12.5127 113.579 12.4982 113.789 12.4641C113.955 12.4365 114.109 12.3573 114.229 12.2375C114.352 12.1114 114.44 11.9553 114.486 11.7842C114.539 11.5838 114.558 11.3758 114.543 11.1689Z" fill="#C7C7C7"/>
<path d="M113.275 12.1835C113.201 12.131 113.14 12.0619 113.096 11.9815C113.052 11.901 113.027 11.8114 113.022 11.7194C113.016 11.6187 113.032 11.518 113.067 11.4238C113.102 11.3296 113.156 11.244 113.226 11.1726C113.297 11.0978 113.385 11.042 113.482 11.01C113.579 10.978 113.682 10.9709 113.782 10.9891C113.87 11.0018 113.953 11.0323 114.029 11.0786C114.105 11.125 114.17 11.1863 114.222 11.2589C114.077 11.2791 113.932 11.3079 113.789 11.3453C113.696 11.372 113.611 11.4228 113.543 11.4928C113.469 11.568 113.411 11.6572 113.37 11.7554C113.32 11.8931 113.288 12.0371 113.275 12.1835Z" fill="#C7C7C7"/>
<path d="M128.556 8.06787C128.567 8.19323 128.554 8.31967 128.516 8.4396C128.479 8.55954 128.418 8.6705 128.337 8.76584C128.25 8.87137 128.142 8.95768 128.021 9.01952C127.9 9.08136 127.768 9.11745 127.633 9.12561C127.496 9.13319 127.36 9.10896 127.233 9.05474C127.107 9.00052 126.995 8.91773 126.904 8.81261C126.739 8.62768 126.642 8.38984 126.63 8.13983C126.784 8.28989 126.953 8.42369 127.133 8.53918C127.273 8.63252 127.438 8.67789 127.605 8.66869C127.779 8.65676 127.947 8.60115 128.094 8.5068C128.27 8.38691 128.426 8.23868 128.556 8.06787Z" fill="#C7C7C7"/>
<path d="M126.95 7.97041C126.928 7.8813 126.926 7.78818 126.945 7.69832C126.964 7.60846 127.003 7.52428 127.059 7.45233C127.12 7.37297 127.197 7.30762 127.284 7.26051C127.371 7.2134 127.468 7.1856 127.566 7.1789C127.668 7.17264 127.771 7.1916 127.865 7.23417C127.958 7.27674 128.041 7.34169 128.105 7.42355C128.161 7.49245 128.204 7.57216 128.23 7.65802C128.256 7.74389 128.265 7.83418 128.256 7.92364C128.134 7.83982 128.007 7.76412 127.876 7.69698C127.789 7.65015 127.692 7.62896 127.594 7.63582C127.491 7.64301 127.389 7.66985 127.295 7.71497C127.17 7.78436 127.054 7.87024 126.95 7.97041Z" fill="#C7C7C7"/>
<path d="M125.796 13.9889C126.306 12.8201 125.798 11.4529 124.661 10.9351C123.524 10.4172 122.19 10.9449 121.68 12.1136C121.17 13.2823 121.678 14.6495 122.814 15.1674C123.951 15.6852 125.286 15.1576 125.796 13.9889Z" fill="#DBDBDB"/>
<path d="M124.799 11.9674C125.093 12.1021 125.352 12.3059 125.555 12.5622C125.757 12.8186 125.898 13.1202 125.964 13.4425C126.027 13.0602 125.993 12.668 125.868 12.3022C125.743 11.9364 125.529 11.6088 125.247 11.3497C124.965 11.0906 124.623 10.9083 124.254 10.8196C123.885 10.731 123.5 10.7389 123.134 10.8426C122.769 10.9463 122.435 11.1425 122.163 11.413C121.891 11.6834 121.691 12.0195 121.58 12.3902C121.469 12.7608 121.451 13.154 121.528 13.5335C121.605 13.913 121.775 14.2666 122.021 14.5614C121.854 14.0622 121.88 13.5169 122.091 13.036C122.313 12.5281 122.722 12.1305 123.229 11.9302C123.737 11.7299 124.301 11.7433 124.799 11.9674Z" fill="#C7C7C7"/>
<path d="M126.869 13.4641C126.882 14.0784 126.709 14.6817 126.373 15.191C126.032 15.7122 125.561 16.1318 125.01 16.4071C124.444 16.6951 123.794 16.7554 123.186 16.5762C122.612 16.3885 122.115 16.0082 121.778 15.4968C122.219 15.8533 122.735 16.0997 123.285 16.2164C123.417 16.2369 123.55 16.2501 123.683 16.256C123.814 16.2579 123.945 16.247 124.074 16.2236C124.326 16.1816 124.571 16.1003 124.799 15.9825C124.919 15.9214 125.042 15.853 125.151 15.7847C125.26 15.7163 125.38 15.6336 125.482 15.5436C125.698 15.3744 125.895 15.1813 126.07 14.968C126.435 14.5285 126.707 14.0165 126.869 13.4641Z" fill="#C7C7C7"/>
<path d="M129.344 14.324C129.507 14.3639 129.678 14.3534 129.835 14.2939C129.992 14.2344 130.128 14.1286 130.226 13.9898C130.324 13.8511 130.38 13.6857 130.386 13.5147C130.392 13.3436 130.348 13.1746 130.259 13.0292C130.171 12.8838 130.042 12.7684 129.89 12.6978C129.737 12.6272 129.568 12.6045 129.403 12.6326C129.237 12.6607 129.084 12.7383 128.962 12.8556C128.84 12.9729 128.755 13.1246 128.718 13.2914C128.667 13.5133 128.704 13.7466 128.822 13.9402C128.939 14.1338 129.127 14.2718 129.344 14.324Z" fill="#DBDBDB"/>
<path d="M129.848 13.0074C129.965 13.0355 130.075 13.0915 130.167 13.1709C130.259 13.2503 130.332 13.3508 130.379 13.4643C130.374 13.2731 130.307 13.0889 130.19 12.9401C130.072 12.7913 129.91 12.686 129.728 12.6404C129.509 12.5899 129.28 12.6301 129.091 12.7523C128.901 12.8744 128.767 13.0684 128.717 13.2916C128.681 13.4499 128.689 13.6157 128.741 13.7693C128.794 13.9229 128.888 14.058 129.013 14.1587C128.916 13.9882 128.887 13.7857 128.932 13.5938C128.977 13.392 129.099 13.2169 129.271 13.1069C129.443 12.9969 129.65 12.9611 129.848 13.0074Z" fill="#C7C7C7"/>
<path d="M130.707 13.3994C130.767 13.6234 130.752 13.8614 130.664 14.0758C130.58 14.2977 130.436 14.4909 130.249 14.6334C130.058 14.7851 129.817 14.8548 129.576 14.8277C129.348 14.8002 129.137 14.6905 128.981 14.5183C129.17 14.6065 129.376 14.652 129.583 14.6514C129.776 14.6433 129.962 14.5742 130.115 14.4536C130.277 14.3269 130.413 14.1684 130.515 13.9874C130.616 13.8064 130.682 13.6065 130.707 13.3994Z" fill="#C7C7C7"/>
<path d="M123.546 19.9185C123.783 19.9323 124.019 19.874 124.223 19.7508C124.428 19.6276 124.592 19.4451 124.696 19.2264C124.799 19.0077 124.836 18.7626 124.803 18.5222C124.77 18.2818 124.668 18.0569 124.509 17.8759C124.351 17.6949 124.143 17.566 123.913 17.5055C123.683 17.445 123.441 17.4556 123.217 17.536C122.992 17.6164 122.797 17.763 122.654 17.9572C122.511 18.1514 122.428 18.3844 122.415 18.6269C122.398 18.9512 122.507 19.2693 122.719 19.5114C122.931 19.7535 123.228 19.8999 123.546 19.9185Z" fill="#DBDBDB"/>
<path d="M123.933 17.9471C124.103 17.9566 124.269 18.0073 124.416 18.0948C124.563 18.1824 124.689 18.3043 124.781 18.4507C124.741 18.2492 124.651 18.0613 124.521 17.9044C124.391 17.7475 124.224 17.6266 124.036 17.5531C123.848 17.4795 123.645 17.4556 123.446 17.4835C123.246 17.5114 123.057 17.5903 122.895 17.7128C122.734 17.8353 122.605 17.9975 122.521 18.1844C122.436 18.3713 122.4 18.5769 122.414 18.782C122.428 18.9872 122.493 19.1854 122.602 19.3583C122.711 19.5312 122.861 19.6732 123.038 19.7711C122.904 19.6044 122.819 19.4014 122.795 19.1867C122.772 18.9719 122.809 18.7547 122.904 18.5615C122.999 18.3683 123.147 18.2073 123.329 18.0982C123.512 17.9892 123.721 17.9366 123.933 17.9471Z" fill="#C7C7C7"/>
<path d="M125.228 18.2781C125.344 18.5806 125.367 18.9116 125.295 19.2279C125.225 19.5515 125.07 19.8498 124.848 20.0913C124.624 20.3438 124.315 20.4995 123.982 20.5267C123.663 20.5493 123.346 20.4619 123.081 20.2784C123.364 20.375 123.666 20.3997 123.961 20.3504C124.24 20.2965 124.494 20.1528 124.686 19.9402C124.885 19.7233 125.036 19.4658 125.13 19.1847C125.224 18.8927 125.257 18.584 125.228 18.2781Z" fill="#C7C7C7"/>
<path d="M118.194 8.06785C117.655 8.91332 116.458 9.09321 115.525 8.4672C114.592 7.84119 114.268 6.65034 114.821 5.80487C115.374 4.95939 116.557 4.7831 117.493 5.40551C118.43 6.02793 118.736 7.23677 118.194 8.06785Z" fill="#DBDBDB"/>
<path d="M115.222 6.62837C115.081 6.85645 114.999 7.11737 114.984 7.38669C114.969 7.65601 115.02 7.92491 115.134 8.16821C114.829 7.87429 114.631 7.48305 114.572 7.05874C114.513 6.63444 114.597 6.20229 114.81 5.83327C115.349 4.9878 116.546 4.80791 117.483 5.43392C117.795 5.62931 118.05 5.90648 118.222 6.2367C118.395 6.56691 118.477 6.93816 118.462 7.31195C118.325 6.86669 118.04 6.48465 117.655 6.23262C116.8 5.68217 115.712 5.84406 115.222 6.62837Z" fill="#C7C7C7"/>
<path d="M118.856 6.68604C118.994 6.90437 119.088 7.14831 119.133 7.4039C119.178 7.65948 119.174 7.92169 119.12 8.17551C119.061 8.43741 118.947 8.68301 118.786 8.89506C118.624 9.11253 118.426 9.29892 118.201 9.44551C117.967 9.5797 117.71 9.66872 117.444 9.70814C117.187 9.74068 116.928 9.7334 116.673 9.68656C116.183 9.59653 115.72 9.3908 115.321 9.08574C115.774 9.22029 116.241 9.30235 116.712 9.33038C117.149 9.36318 117.587 9.26703 117.972 9.05335C118.157 8.94407 118.322 8.80425 118.462 8.63961C118.605 8.47374 118.717 8.28225 118.793 8.07477C118.936 7.62624 118.958 7.14628 118.856 6.68604Z" fill="#C7C7C7"/>
<path d="M131.899 136.99C134.074 128.698 129.259 120.175 121.145 117.952C113.03 115.73 104.689 120.65 102.514 128.941C100.34 137.233 105.154 145.756 113.268 147.979C121.383 150.201 129.724 145.281 131.899 136.99Z" fill="#455A64"/>
<path d="M130.693 128.193C128.834 128 126.956 128.107 125.13 128.51C121.912 129.168 114.402 132.759 110.212 133.385C104.322 134.27 102.114 132.244 101.283 130.978C101.544 129.005 102.176 127.101 103.142 125.373C104.332 126.434 108.244 129.589 117.257 127.002C121.905 125.664 124.859 122.203 125.862 121.03C128.113 122.893 129.79 125.38 130.693 128.193Z" fill="#37474F"/>
<path d="M130.386 138.731C129.106 142.031 126.756 144.782 123.728 146.523C120.7 148.264 117.179 148.889 113.754 148.294C114.187 147.399 114.725 146.56 115.356 145.797C118.116 142.559 122.904 141.566 124.774 141.372C126.893 141.205 128.884 140.268 130.386 138.731Z" fill="#37474F"/>
<path d="M131.263 130.621C131.287 130.762 131.305 130.898 131.323 131.039C131.34 131.179 131.354 131.294 131.368 131.42C131.397 131.708 131.421 131.996 131.432 132.28C131.442 132.564 131.453 132.798 131.453 133.05C131.453 133.147 131.453 133.24 131.453 133.338C131.453 133.435 131.453 133.553 131.453 133.658C131.453 133.762 131.453 133.874 131.453 133.982C131.453 134.09 131.435 134.233 131.425 134.363C131.414 134.493 131.404 134.615 131.39 134.723C131.375 134.831 131.361 134.939 131.351 135.047C131.319 135.284 131.284 135.514 131.242 135.748C130.636 136.543 129.531 137.187 127.601 137.659C124.728 138.378 120.81 137.946 115.363 139.479C112.029 140.444 109.017 142.324 106.656 144.915C104.248 142.876 102.519 140.123 101.709 137.036C102.48 136.435 105.283 134.975 113.859 135.655C116.555 135.902 119.269 135.866 121.957 135.547C128.295 134.698 130.481 132.032 131.206 130.65C131.225 130.64 131.244 130.63 131.263 130.621Z" fill="#37474F"/>
<path d="M110.153 126.621C110.283 127.297 109.607 127.999 108.646 128.186C107.684 128.373 106.804 127.984 106.674 127.308C106.544 126.632 107.223 125.934 108.181 125.743C109.139 125.552 110.012 125.948 110.153 126.621Z" fill="#263238"/>
<path d="M107.233 130.01C107.304 130.391 106.881 130.791 106.318 130.906C105.755 131.021 105.216 130.805 105.146 130.424C105.075 130.042 105.48 129.643 106.058 129.528C106.635 129.413 107.16 129.632 107.233 130.01Z" fill="#263238"/>
<path d="M127.453 138.871C127.563 139.447 126.968 140.048 126.13 140.217C125.292 140.386 124.517 140.048 124.408 139.472C124.299 138.896 124.89 138.292 125.732 138.127C126.573 137.961 127.344 138.306 127.453 138.871Z" fill="#263238"/>
<path d="M125.45 140.925C125.51 141.231 125.236 141.544 124.838 141.623C124.675 141.677 124.499 141.663 124.346 141.586C124.193 141.509 124.075 141.374 124.017 141.21C123.958 140.904 124.232 140.591 124.63 140.512C124.793 140.459 124.969 140.472 125.122 140.549C125.275 140.626 125.393 140.761 125.45 140.925Z" fill="#263238"/>
<path d="M124.285 140.004C124.32 140.188 124.144 140.364 123.891 140.429C123.637 140.494 123.405 140.368 123.369 140.184C123.334 140.001 123.51 139.824 123.764 139.76C124.017 139.695 124.25 139.821 124.285 140.004Z" fill="#263238"/>
<path d="M116.472 145.444C116.571 145.962 116.12 146.488 115.416 146.621C114.712 146.754 114.12 146.441 114.008 145.926C113.895 145.412 114.36 144.887 115.046 144.754C115.733 144.62 116.377 144.93 116.472 145.444Z" fill="#263238"/>
<path d="M115.606 143.498C115.643 143.617 115.644 143.745 115.608 143.864C115.573 143.983 115.503 144.089 115.407 144.167C115.311 144.244 115.195 144.29 115.073 144.299C114.951 144.307 114.83 144.277 114.725 144.214C114.62 144.15 114.536 144.055 114.485 143.941C114.434 143.828 114.418 143.701 114.44 143.578C114.461 143.455 114.518 143.342 114.604 143.253C114.689 143.164 114.8 143.104 114.92 143.081C114.991 143.062 115.066 143.058 115.14 143.068C115.213 143.079 115.284 143.105 115.348 143.143C115.412 143.182 115.467 143.233 115.512 143.294C115.556 143.355 115.588 143.424 115.606 143.498Z" fill="#263238"/>
<path d="M131.432 132.28C127.251 134.553 122.943 136.574 118.532 138.335C114.027 140.176 109.416 141.738 104.727 143.012C97.4706 144.941 92.2985 145.275 91.6331 143.552C90.9677 141.829 94.8687 138.483 101.266 134.889C101.308 135.248 101.365 135.608 101.432 135.968L101.516 136.378C98.2698 138.486 96.4672 140.31 96.8721 141.361C97.277 142.411 99.8929 142.491 103.769 141.721C107.565 140.972 112.571 139.433 117.933 137.27C123.296 135.108 127.992 132.723 131.263 130.611C134.594 128.47 136.449 126.607 136.037 125.542C135.625 124.477 133.105 124.423 129.348 125.142C129.088 124.687 128.804 124.248 128.496 123.826C135.717 121.915 141.005 121.624 141.671 123.343C142.336 125.063 138.206 128.549 131.432 132.28Z" fill="#263238"/>
<path d="M131.439 133.655C127.338 135.846 123.13 137.82 118.831 139.569C114.563 141.333 110.209 142.87 105.787 144.174C95.879 147.053 88.5135 147.625 87.5559 145.189C86.5982 142.753 92.1998 138.066 101.157 133.205C101.157 133.442 101.157 133.683 101.185 133.924C93.7525 138.112 89.2141 142.084 90.031 144.174C90.8478 146.265 96.9423 145.927 105.28 143.646C114.367 141.075 123.145 137.474 131.45 132.91C138.984 128.686 143.593 124.667 142.765 122.563C141.938 120.458 136.016 120.803 127.844 123.005C127.693 122.822 127.535 122.646 127.373 122.466C137.101 119.67 144.301 119.145 145.244 121.552C146.188 123.959 140.516 128.755 131.439 133.655Z" fill="#37474F"/>
<path d="M52.341 59.3933C50.7823 59.1472 49.2689 58.6621 47.852 57.9542C41.0357 54.5723 40.3034 46.3767 39.5288 37.6989C38.8247 29.7047 38.0747 21.4406 32.6034 16.4506C21.2136 6.07465 3.25756 13.6407 3.078 13.7199L1.60278 10.1653C5.33536 8.66557 9.25192 7.69711 13.2425 7.28709C22.0445 6.38045 29.6213 8.5463 35.1137 13.5544C41.7012 19.5554 42.5461 28.9995 43.289 37.3319C43.9932 45.2218 44.6023 52.0359 49.4997 54.4644C59.7664 59.5552 66.5545 46.8408 66.8361 46.2975L70.1738 48.0964C68.6512 50.8553 66.6781 53.3278 64.3399 55.407C60.5691 58.6918 56.4955 60.0301 52.341 59.3933Z" fill="#FFC727"/>
<path opacity="0.1" d="M52.341 59.3933C50.7823 59.1472 49.2689 58.6621 47.852 57.9542C41.0357 54.5723 40.3034 46.3767 39.5288 37.6989C38.8247 29.7047 38.0747 21.4406 32.6034 16.4506C21.2136 6.07465 3.25756 13.6407 3.078 13.7199L1.60278 10.1653C5.33536 8.66557 9.25192 7.69711 13.2425 7.28709C22.0445 6.38045 29.6213 8.5463 35.1137 13.5544C41.7012 19.5554 42.5461 28.9995 43.289 37.3319C43.9932 45.2218 44.6023 52.0359 49.4997 54.4644C59.7664 59.5552 66.5545 46.8408 66.8361 46.2975L70.1738 48.0964C68.6512 50.8553 66.6781 53.3278 64.3399 55.407C60.5691 58.6918 56.4955 60.0301 52.341 59.3933Z" fill="black"/>
<path opacity="0.1" d="M70.1739 48.1068C68.6517 50.865 66.6785 53.3364 64.3399 55.4139C62.0725 57.3854 59.6924 58.6518 57.2525 59.2131L53.0029 55.5578C61.2838 56.6911 66.5862 46.7613 66.8397 46.2864L70.1739 48.1068Z" fill="black"/>
<path d="M82.0812 66.8908C81.7467 67.0923 61.812 60.3033 60.9564 59.6737C60.9156 59.6441 60.8789 59.609 60.8473 59.5694C59.872 58.5872 56.1857 51.6543 55.9182 51.111C55.2703 49.7259 75.3565 32.4279 79.092 30.8233C80.0286 30.4204 92.2986 34.9032 94.1364 36.7236C94.9251 37.5044 96.4073 40.6632 96.3264 41.0949C96.1961 41.7137 82.4192 66.6893 82.0812 66.8908Z" fill="#FFC727"/>
<path opacity="0.1" d="M82.0812 66.8908C81.7467 67.0923 61.812 60.3033 60.9564 59.6737C60.9156 59.6441 60.8789 59.609 60.8473 59.5694C59.872 58.5872 56.1857 51.6543 55.9182 51.111C55.2703 49.7259 75.3565 32.4279 79.092 30.8233C80.0286 30.4204 92.2986 34.9032 94.1364 36.7236C94.9251 37.5044 96.4073 40.6632 96.3264 41.0949C96.1961 41.7137 82.4192 66.6893 82.0812 66.8908Z" fill="black"/>
<path opacity="0.1" d="M82.0813 66.8909C81.7469 67.0924 61.8121 60.3035 60.9566 59.6738C60.9158 59.6442 60.8791 59.6091 60.8474 59.5695C64.4527 55.3062 81.3948 35.3135 81.6976 35.2631C82.0004 35.2127 93.612 39.8143 96.33 41.0987C96.1962 41.7139 82.4193 66.6895 82.0813 66.8909Z" fill="black"/>
<path d="M53.1439 108.312L37.2581 116.489C34.2161 118.033 31.5755 119.447 30.2764 120.307C30.2695 120.304 30.2621 120.304 30.2552 120.307C29.7623 120.63 29.4666 120.872 29.4243 121.026V121.055C29.2624 122.293 40.6451 147.509 41.3317 148.25C42.0182 148.992 44.1483 147.052 44.4687 145.714C44.7891 144.376 44.6553 132.726 44.6553 132.726L60.4461 124.405L53.1439 108.312Z" fill="#455A64"/>
<path d="M27.0088 122.116L27.5756 123.43C27.7234 123.375 27.8796 123.347 28.0369 123.347C28.3428 123.347 28.6398 123.452 28.8806 123.645C29.1215 123.838 29.2925 124.107 29.3666 124.411C29.4406 124.714 29.4133 125.034 29.2892 125.319C29.165 125.605 28.951 125.84 28.6812 125.988L29.1917 127.182C29.3446 127.123 29.5069 127.092 29.6705 127.092C29.9778 127.092 30.2763 127.197 30.5178 127.391C30.7594 127.586 30.9301 127.857 31.0024 128.162C31.0747 128.467 31.0445 128.789 30.9166 129.074C30.7887 129.36 30.5705 129.593 30.2972 129.736L30.8113 130.935C30.9663 130.869 31.1328 130.836 31.3006 130.837C31.6639 130.837 32.0122 130.985 32.2691 131.247C32.5259 131.51 32.6702 131.866 32.6702 132.237C32.6719 132.497 32.6018 132.753 32.4679 132.974C32.334 133.196 32.1418 133.374 31.9133 133.489L32.4273 134.68C32.5902 134.616 32.7633 134.583 32.9378 134.583C33.2488 134.582 33.551 134.689 33.7945 134.886C34.038 135.084 34.2084 135.361 34.2777 135.671C34.3469 135.98 34.3109 136.305 34.1755 136.591C34.0401 136.877 33.8135 137.108 33.5328 137.245L34.0469 138.436C34.2119 138.365 34.389 138.328 34.5679 138.328C34.8805 138.327 35.184 138.435 35.4282 138.634C35.6724 138.833 35.8426 139.112 35.9104 139.424C35.9782 139.735 35.9397 140.061 35.8012 140.348C35.6627 140.634 35.4325 140.863 35.1489 140.997L35.6629 142.188C35.8309 142.11 36.0136 142.071 36.1981 142.073C36.5105 142.075 36.8131 142.185 37.056 142.386C37.2989 142.586 37.4675 142.866 37.5339 143.178C37.6004 143.49 37.5608 143.815 37.4216 144.101C37.2824 144.387 37.052 144.616 36.7684 144.75L37.2825 145.944C37.4552 145.861 37.6441 145.818 37.8352 145.818C38.1489 145.82 38.4526 145.932 38.6956 146.135C38.9386 146.337 39.1064 146.619 39.171 146.933C39.2356 147.246 39.1932 147.573 39.0507 147.859C38.9082 148.144 38.6744 148.371 38.388 148.502L38.8704 149.625L41.3349 148.261L29.4241 121.037L27.0088 122.116Z" fill="#37474F"/>
<path d="M34.8323 118.584C35.2418 119.285 35.504 120.066 35.6022 120.877C35.7004 121.688 35.6324 122.511 35.4026 123.293C34.9872 124.574 34.1633 125.941 32.8395 126.639C32.8008 126.661 32.762 126.589 32.7973 126.563C35.0506 124.793 35.966 121.278 34.7548 118.627C34.7525 118.617 34.7535 118.606 34.7576 118.597C34.7617 118.588 34.7687 118.58 34.7775 118.575C34.7863 118.57 34.7964 118.568 34.8063 118.57C34.8162 118.571 34.8253 118.576 34.8323 118.584Z" fill="#37474F"/>
<path d="M38.0888 117.346C39.1028 119.062 39.9794 120.864 40.835 122.667C41.6906 124.469 42.5179 126.243 43.3453 128.038C43.8171 129.067 44.2889 130.1 44.7044 131.154C44.7109 131.168 44.7118 131.184 44.7068 131.198C44.7019 131.213 44.6915 131.224 44.6779 131.231C44.6644 131.238 44.6488 131.239 44.6346 131.234C44.6204 131.229 44.6088 131.218 44.6023 131.204C43.6129 129.474 42.7468 127.664 41.8595 125.88C40.9723 124.095 40.0991 122.336 39.2753 120.544C38.7929 119.515 38.3423 118.479 37.9374 117.418C37.9318 117.398 37.9333 117.377 37.9417 117.358C37.95 117.339 37.9647 117.324 37.9829 117.315C38.0012 117.307 38.0219 117.305 38.0413 117.311C38.0607 117.316 38.0776 117.329 38.0888 117.346Z" fill="#37474F"/>
<path d="M39.5536 116.839C40.5711 118.555 41.4443 120.357 42.2998 122.163C43.1554 123.969 43.9828 125.739 44.8102 127.535C45.282 128.564 45.7537 129.596 46.1692 130.647C46.1724 130.654 46.1743 130.661 46.1747 130.669C46.1752 130.676 46.1741 130.684 46.1717 130.691C46.1692 130.698 46.1654 130.705 46.1604 130.71C46.1555 130.716 46.1495 130.721 46.1428 130.724C46.1361 130.727 46.1288 130.729 46.1214 130.73C46.1139 130.73 46.1065 130.729 46.0995 130.727C46.0924 130.724 46.086 130.72 46.0804 130.715C46.0749 130.71 46.0703 130.704 46.0671 130.697C45.0777 128.967 44.2116 127.157 43.3244 125.372C42.4371 123.588 41.564 121.829 40.7401 120.037C40.2613 119.008 39.8071 117.972 39.4022 116.911C39.3966 116.891 39.3982 116.87 39.4065 116.851C39.4149 116.832 39.4295 116.817 39.4478 116.808C39.4661 116.8 39.4868 116.798 39.5062 116.803C39.5256 116.809 39.5424 116.821 39.5536 116.839Z" fill="#37474F"/>
<path d="M41.9934 114.05L50.2074 129.794C50.2074 129.794 52.672 130.337 55.728 128.891C62.4915 125.7 73.8144 118.274 79.4758 112.572C85.3274 106.675 91.0698 65.3439 91.0698 65.3439L77.2683 57.2058C77.2683 57.2058 70.0999 96.1802 67.4664 98.9937C65.0898 101.534 51.3094 107.092 44.8136 110.568C43.4616 111.304 42.4482 112.555 41.9934 114.05Z" fill="#FFC727"/>
<path d="M44.9509 113.863C46.0318 115.54 46.9754 117.303 47.9013 119.073C48.8273 120.843 49.7181 122.577 50.6123 124.34C51.1264 125.347 51.6369 126.362 52.0946 127.395C52.0983 127.408 52.0975 127.422 52.0923 127.435C52.0871 127.448 52.0778 127.458 52.0659 127.465C52.0541 127.472 52.0404 127.474 52.0271 127.472C52.0137 127.469 52.0015 127.462 51.9925 127.452C50.9363 125.761 50.0033 123.988 49.0456 122.239C48.0879 120.491 47.162 118.767 46.2571 117.011C45.7396 116.004 45.2467 114.986 44.803 113.943C44.7966 113.923 44.7972 113.902 44.8046 113.883C44.8121 113.864 44.826 113.848 44.8439 113.838C44.8617 113.829 44.8823 113.826 44.9019 113.831C44.9215 113.835 44.9389 113.847 44.9509 113.863Z" fill="#263238"/>
<path opacity="0.1" d="M72.5645 80.7999L91.0698 65.3295L77.2682 57.2058C77.2682 57.2058 75.0149 69.5173 72.5645 80.7999Z" fill="black"/>
<path opacity="0.1" d="M75.7899 106.358C75.3002 106.426 74.8018 106.379 74.3323 106.222C73.8611 106.075 73.4067 105.877 72.9768 105.632C72.1312 105.139 71.3533 104.534 70.6636 103.833C70.3115 103.473 70.0017 103.113 69.6884 102.753C69.375 102.394 69.0898 101.987 68.8258 101.581C68.5617 101.174 68.3117 100.757 68.0829 100.332C67.854 99.9076 67.6498 99.4578 67.4773 98.9973C67.8459 99.3095 68.1985 99.6409 68.5335 99.9903C68.8645 100.332 69.2095 100.659 69.5229 101.005C69.8362 101.35 70.1777 101.674 70.4911 102.019L70.9805 102.516C71.1424 102.681 71.2938 102.858 71.4628 103.012C72.1142 103.667 72.7796 104.293 73.4767 104.88C74.1624 105.5 74.944 106 75.7899 106.358Z" fill="black"/>
<path d="M82.8015 110.391C84.3339 107.091 83.7192 103.516 81.4285 102.405C79.1379 101.294 76.0386 103.068 74.5062 106.367C72.9737 109.667 73.5884 113.242 75.8791 114.353C78.1698 115.464 81.2691 113.69 82.8015 110.391Z" fill="#FFC727"/>
<path opacity="0.1" d="M82.8015 110.391C84.3339 107.091 83.7192 103.516 81.4285 102.405C79.1379 101.294 76.0386 103.068 74.5062 106.367C72.9737 109.667 73.5884 113.242 75.8791 114.353C78.1698 115.464 81.2691 113.69 82.8015 110.391Z" fill="black"/>
<path d="M50.0772 72.7949L45.8804 55.1335C45.0953 51.7553 44.3489 48.8051 43.8243 47.3192C43.8243 47.3192 43.8243 47.3192 43.8243 47.294C43.7377 46.932 43.5715 46.5949 43.3384 46.3083C43.3384 46.3083 43.3384 46.3083 43.3138 46.3083C42.173 45.8657 15.5593 51.4818 14.6967 51.9999C13.8341 52.518 15.2002 55.0688 16.4043 55.6948C17.6084 56.3208 28.7271 58.8212 28.7271 58.8212L33.0858 76.425L50.0772 72.7949Z" fill="#455A64"/>
<path d="M42.8454 43.6602L41.4652 43.9264C41.4862 44.0859 41.479 44.248 41.4441 44.4049C41.3746 44.7101 41.2072 44.9828 40.9684 45.1795C40.7296 45.3762 40.4333 45.4855 40.1266 45.49C39.82 45.4946 39.5207 45.3941 39.2764 45.2046C39.0321 45.0151 38.857 44.7475 38.7789 44.4445L37.5255 44.6855C37.5471 44.8512 37.5387 45.0195 37.5008 45.182C37.4311 45.4876 37.263 45.7603 37.0234 45.9565C36.7838 46.1527 36.4867 46.2609 36.1796 46.2639C35.8726 46.2668 35.5736 46.1642 35.3305 45.9725C35.0874 45.7809 34.9143 45.5114 34.8391 45.2072L33.5822 45.4446C33.6137 45.6134 33.6137 45.7868 33.5822 45.9555C33.4993 46.3175 33.2792 46.631 32.9703 46.8273C32.6613 47.0236 32.2888 47.0866 31.9344 47.0025C31.6865 46.9453 31.4595 46.8177 31.2794 46.6344C31.0994 46.451 30.9737 46.2195 30.9169 45.9663L29.6635 46.2074C29.6867 46.3837 29.6784 46.5629 29.6389 46.7362C29.5691 47.0445 29.3992 47.3195 29.1569 47.5164C28.9146 47.7133 28.6141 47.8205 28.3045 47.8205C27.9949 47.8205 27.6944 47.7133 27.4521 47.5164C27.2098 47.3195 27.0399 47.0445 26.9701 46.7362L25.7167 46.9773C25.7532 47.2043 25.7345 47.4369 25.662 47.6547C25.5896 47.8725 25.4657 48.0687 25.3014 48.2259C25.1371 48.3831 24.9374 48.4966 24.72 48.5561C24.5026 48.6157 24.2741 48.6196 24.0549 48.5675C23.8004 48.5063 23.5682 48.3722 23.3855 48.1811C23.2028 47.99 23.0772 47.7496 23.0233 47.4882L21.7734 47.7328C21.8121 47.9166 21.8121 48.1067 21.7734 48.2905C21.7022 48.6023 21.5288 48.8798 21.282 49.077C21.0351 49.2743 20.7297 49.3793 20.4164 49.3746C20.1031 49.37 19.8008 49.256 19.5596 49.0516C19.3184 48.8472 19.1529 48.5647 19.0906 48.2509L17.8372 48.4919C17.8794 48.6826 17.8794 48.8805 17.8372 49.0712C17.7674 49.3856 17.5935 49.6657 17.3449 49.8643C17.0963 50.0628 16.7882 50.1675 16.4728 50.1608C16.1573 50.154 15.8538 50.0361 15.6136 49.8271C15.3734 49.6181 15.2111 49.3307 15.1543 49.0136L13.9749 49.2403L14.7177 51.9854L43.363 46.3117L42.8454 43.6602Z" fill="#37474F"/>
<path d="M44.4333 52.2443C43.6715 52.493 42.8674 52.577 42.0721 52.4909C41.2769 52.4048 40.5079 52.1505 39.814 51.7442C38.6873 51.0247 37.5712 49.913 37.2051 48.4343C37.2051 48.3947 37.272 48.3695 37.2896 48.4127C38.4655 51.0535 41.6096 52.7516 44.4086 52.158C44.4186 52.1579 44.4283 52.1612 44.4362 52.1672C44.4442 52.1733 44.45 52.1819 44.4528 52.1917C44.4556 52.2014 44.4552 52.2118 44.4517 52.2213C44.4481 52.2308 44.4417 52.2389 44.4333 52.2443Z" fill="#37474F"/>
<path d="M44.8768 55.7666C43.0108 56.389 41.0955 56.8459 39.1802 57.292C37.2649 57.7382 35.3918 58.1591 33.4906 58.5728C32.4062 58.8103 31.3147 59.0477 30.2162 59.224C30.2013 59.2274 30.1857 59.2245 30.1728 59.2161C30.1599 59.2076 30.1508 59.1943 30.1476 59.1791C30.1443 59.1638 30.1471 59.1478 30.1554 59.1347C30.1636 59.1215 30.1766 59.1122 30.1916 59.1089C32.0646 58.5153 33.9835 58.0655 35.8882 57.5835C37.793 57.1014 39.6625 56.6444 41.5602 56.2199C42.6482 55.9753 43.7361 55.7594 44.8416 55.6011C44.8612 55.6007 44.8802 55.6073 44.8955 55.6197C44.9109 55.6321 44.9215 55.6496 44.9257 55.6691C44.9298 55.6886 44.9272 55.709 44.9183 55.7268C44.9094 55.7445 44.8948 55.7586 44.8768 55.7666Z" fill="#37474F"/>
<path d="M45.0284 57.3569C43.1588 57.9793 41.2435 58.4362 39.3317 58.8824C37.4199 59.3285 35.5398 59.7494 33.6421 60.1632C32.5542 60.4006 31.4628 60.6381 30.3643 60.8144C30.3493 60.8172 30.3339 60.8139 30.3213 60.8051C30.3088 60.7964 30.3002 60.7829 30.2974 60.7676C30.2946 60.7523 30.2978 60.7365 30.3064 60.7237C30.315 60.7109 30.3282 60.7021 30.3431 60.6992C32.2162 60.1056 34.135 59.6559 36.0363 59.1774C37.9375 58.6989 39.8141 58.2384 41.7083 57.8102C42.7997 57.5692 43.8876 57.3533 44.9932 57.1914C45.0127 57.1911 45.0318 57.1977 45.0471 57.2101C45.0624 57.2225 45.0731 57.2399 45.0772 57.2594C45.0814 57.2789 45.0788 57.2993 45.0699 57.3171C45.061 57.3349 45.0463 57.3489 45.0284 57.3569Z" fill="#37474F"/>
<path d="M91.0911 65.3547C91.0911 65.3547 87.2675 69.636 84.0213 72.9999C81.6518 75.4608 79.4619 77.5547 78.8809 77.5655C78.2225 77.5655 75.2264 77.2417 74.2335 77.1086C74.2335 77.1086 59.4673 93.7086 51.887 97.7237C49.2922 99.098 41.1415 97.6877 38.7826 93.6151C34.9555 87.006 31.072 77.0186 29.6531 70.737C29.0194 67.9343 29.6708 64.905 29.6708 64.905L47.1304 59.9761C47.1304 59.9761 49.0175 63.1889 49.5949 65.2072C50.447 68.2545 51.211 77.5871 51.211 77.5871C55.9324 74.1404 60.5305 67.7724 60.5305 67.7724C60.5305 67.7724 61.8896 60.3754 70.3888 53.1116L91.0911 65.3547Z" fill="#FFC727"/>
<path d="M78.8632 77.4757C76.6525 77.1023 74.4142 76.9266 72.1737 76.9504C72.1581 76.954 72.1442 76.9629 72.1343 76.9757C72.1243 76.9884 72.1189 77.0042 72.1189 77.0205C72.1189 77.0368 72.1243 77.0527 72.1343 77.0654C72.1442 77.0782 72.1581 77.0871 72.1737 77.0907C74.3882 77.3317 76.6204 77.6303 78.8421 77.7491C78.8596 77.7505 78.8773 77.7484 78.8941 77.7428C78.9108 77.7372 78.9264 77.7284 78.9398 77.7167C78.9532 77.705 78.9642 77.6907 78.9722 77.6747C78.9802 77.6586 78.985 77.6411 78.9864 77.6232C78.9878 77.6052 78.9857 77.5871 78.9803 77.57C78.9748 77.5529 78.9661 77.537 78.9547 77.5233C78.9433 77.5096 78.9293 77.4984 78.9136 77.4902C78.8979 77.482 78.8808 77.4771 78.8632 77.4757Z" fill="#263238"/>
<path d="M86.3168 65.2971C86.345 65.2288 86.2429 65.1532 86.2077 65.2216C85.0863 67.2559 83.8654 69.2311 82.5496 71.1399C81.9511 72.0321 78.3528 76.7919 76.9691 75.5003C76.7367 75.2809 76.7508 74.9355 76.9339 74.5002C77.1557 73.9785 77.6698 73.4784 78.0218 73.0323C78.7964 72.0465 79.5393 71.0391 80.2329 69.9958C81.5447 68.064 82.6573 65.9987 83.553 63.8328C83.5572 63.819 83.5564 63.8041 83.5509 63.7908C83.5453 63.7775 83.5353 63.7666 83.5226 63.7601C83.5099 63.7536 83.4954 63.752 83.4816 63.7554C83.4678 63.7588 83.4557 63.7672 83.4474 63.7789C81.9366 66.6386 80.2159 69.3771 78.3 71.971C77.3564 73.205 75.5714 74.8492 76.8389 75.8565C78.1063 76.8639 80.9124 73.9965 81.599 73.1654C83.498 70.7622 85.0839 68.1174 86.3168 65.2971Z" fill="#263238"/>
<path d="M76.941 75.6622C76.6061 75.9312 76.2886 76.222 75.9904 76.5328C75.7331 76.7572 75.5183 77.0279 75.3566 77.3315C75.332 77.3927 75.4024 77.4395 75.4552 77.4179C75.7663 77.247 76.05 77.0286 76.2967 76.7703C76.603 76.5077 76.9128 76.2522 77.2086 75.9788C77.2289 75.9608 77.2456 75.939 77.2577 75.9144C77.2697 75.8899 77.277 75.8632 77.2789 75.8358C77.2809 75.8084 77.2775 75.7808 77.2691 75.7548C77.2607 75.7287 77.2473 75.7046 77.2297 75.6838C77.2121 75.663 77.1907 75.6459 77.1667 75.6336C77.1427 75.6213 77.1165 75.6139 77.0897 75.6119C77.0629 75.6099 77.036 75.6133 77.0105 75.6219C76.9849 75.6306 76.9613 75.6442 76.941 75.6622Z" fill="#263238"/>
<path d="M32.1178 67.0962C33.9415 66.4522 35.8181 65.9665 37.6947 65.4988C39.5713 65.0311 41.4056 64.5849 43.2681 64.146C44.3244 63.8942 45.4017 63.6423 46.4791 63.4517C46.4925 63.4517 46.5054 63.4562 46.5159 63.4646C46.5265 63.473 46.5339 63.4848 46.5372 63.498C46.5404 63.5112 46.5392 63.5252 46.5338 63.5376C46.5284 63.5501 46.519 63.5604 46.5073 63.5668C44.6729 64.1856 42.7928 64.6461 40.9303 65.1642C39.0678 65.6823 37.2335 66.15 35.371 66.6033C34.3147 66.8623 33.2374 67.0926 32.153 67.2653C32.131 67.27 32.1081 67.2657 32.0893 67.2532C32.0705 67.2408 32.0573 67.2211 32.0526 67.1987C32.048 67.1763 32.0522 67.1529 32.0644 67.1337C32.0766 67.1144 32.0958 67.101 32.1178 67.0962Z" fill="#263238"/>
<path opacity="0.1" d="M48.4471 91.2478C48.135 90.7213 47.9537 90.1247 47.919 89.5101C47.8838 89.2079 47.8838 88.9057 47.8662 88.5999C47.8486 88.2941 47.8662 87.9955 47.8943 87.6932C47.9809 86.4955 48.179 85.3088 48.4858 84.1495C48.784 82.9979 49.1604 81.8691 49.6125 80.7712C50.0534 79.6668 50.5833 78.6018 51.1969 77.5872C51.0173 78.7744 50.7321 79.9185 50.454 81.0554C50.1758 82.1923 49.8766 83.3184 49.5808 84.4409C49.2851 85.5634 49.0034 86.6859 48.7675 87.8156C48.6584 88.3768 48.5422 88.9453 48.4753 89.5137C48.3708 90.086 48.3613 90.6723 48.4471 91.2478Z" fill="black"/>
<path d="M47.887 99.4435C51.461 99.4435 54.3582 97.343 54.3582 94.752C54.3582 92.161 51.461 90.0605 47.887 90.0605C44.313 90.0605 41.4158 92.161 41.4158 94.752C41.4158 97.343 44.313 99.4435 47.887 99.4435Z" fill="#FFC727"/>
<path opacity="0.1" d="M47.887 99.4435C51.461 99.4435 54.3582 97.343 54.3582 94.752C54.3582 92.161 51.461 90.0605 47.887 90.0605C44.313 90.0605 41.4158 92.161 41.4158 94.752C41.4158 97.343 44.313 99.4435 47.887 99.4435Z" fill="black"/>
<path d="M90.6228 43.9374C100.974 48.1467 109.258 49.8485 112.533 48.8735C115.399 48.0172 123.574 44.4231 127.552 40.5267C128.753 39.3538 123.327 31.3452 121.666 31.982C120.004 32.6188 111.674 37.4038 109.498 38.1918C108.262 38.6379 94.7914 39.1524 91.7283 39.2063C86.6161 39.2999 86.0281 42.0701 90.6228 43.9374Z" fill="#F7A9A0"/>
<path d="M132.929 35.1912C132.552 35.7812 132.851 35.9899 134.013 35.5834C135.175 35.1768 139.424 32.5756 140.188 34.1694C140.952 35.7632 134.907 39.3466 132.918 39.8683C130.929 40.3899 127.552 40.5267 127.552 40.5267C128.594 39.5877 130.908 37.062 132.929 35.1912Z" fill="#455A64"/>
<path d="M121.666 31.9819C124.693 29.4635 128.309 26.0996 132.675 25.4016C133.156 25.3131 133.651 25.3917 134.083 25.6247C136.034 25.2649 136.78 26.1139 136.78 26.1139C138.696 26.3586 139.343 27.3228 139.343 27.3228C139.343 27.3228 141.635 26.9414 142.093 28.3194C142.611 29.8664 139.277 30.1003 137.534 31.3703C133.524 34.2808 128.623 39.5695 127.545 40.5265L121.666 31.9819Z" fill="#455A64"/>
<path d="M131.242 31.4027C132.406 30.5372 133.626 29.7535 134.893 29.0569C136.326 28.3834 137.807 27.8206 139.322 27.3732C139.331 27.3694 139.337 27.3628 139.341 27.3546C139.345 27.3463 139.346 27.3369 139.344 27.328C139.342 27.3191 139.337 27.3112 139.33 27.3056C139.323 27.3001 139.314 27.2973 139.305 27.2976C136.294 27.8659 133.493 29.267 131.207 31.3487C131.137 31.3955 131.179 31.453 131.242 31.4027Z" fill="#263238"/>
<path d="M129.168 29.1864C130.376 28.4417 132.51 27.1465 136.798 26.1607V26.1355C134.021 26.3856 131.368 27.4222 129.137 29.1288C129.063 29.1792 129.087 29.2368 129.168 29.1864Z" fill="#263238"/>
<path d="M128.077 27.9743C130.19 26.7871 131.651 26.3122 134.084 25.6394V25.6106C131.239 26.0783 130.26 26.5784 128.031 27.906C127.968 27.9491 127.996 28.0211 128.077 27.9743Z" fill="#263238"/>
<path d="M121.665 31.982L127.552 40.5267C127.285 41.6709 126.704 42.7132 125.876 43.5308C124.496 44.8943 113.737 49.4491 110.406 49.4994C107.075 49.5498 94.0624 46.2039 89.4009 43.7934C84.7393 41.3829 87.2356 39.2962 90.6508 39.0588C94.0659 38.8213 108.357 37.9795 109.177 37.7744C109.998 37.5693 116.775 33.198 118.212 32.4353C119.648 31.6726 121.665 31.982 121.665 31.982Z" fill="#FFC727"/>
<path opacity="0.1" d="M89.4013 43.7933C92.7777 45.5382 100.531 47.7724 105.815 48.859L90.2639 39.0911C87.0564 39.458 84.9193 41.4764 89.4013 43.7933Z" fill="black"/>
<path opacity="0.1" d="M119.448 32.975C120.335 34.137 121.162 35.3459 121.982 36.5727C122.803 37.7995 123.599 38.976 124.401 40.1705C124.859 40.8576 125.32 41.552 125.753 42.2572C125.785 42.3039 125.753 42.3291 125.711 42.2859C124.834 41.1203 124.01 39.9042 123.176 38.6882C122.342 37.4722 121.532 36.3029 120.711 35.0904C120.25 34.3997 119.8 33.7053 119.37 32.993C119.342 32.9498 119.402 32.9138 119.448 32.975Z" fill="black"/>
<path d="M91.0696 65.344L70.3673 53.1116C70.1275 51.8668 70.374 50.5755 71.0539 49.5139C73.6839 45.121 79.9826 37.8896 85.6089 35.2272C89.6648 33.3132 92.8547 34.9358 94.0588 37.9903C94.3651 38.7638 97.3437 48.8159 96.974 52.3993C96.5832 56.1913 94.7805 60.89 93.161 63.466C92.6272 64.2596 91.9084 64.905 91.0696 65.344Z" fill="#FFC727"/>
<path d="M90.9042 66.6321C91.2105 66.6788 92.1259 64.9519 92.0414 64.7001C91.9569 64.4482 70.4484 51.8633 70.2899 51.8345C70.1315 51.8057 69.0858 53.9284 69.2759 54.0831C69.4661 54.2378 90.4958 66.5673 90.9042 66.6321Z" fill="#FFC727"/>
<path opacity="0.1" d="M90.9042 66.6321C91.2105 66.6788 92.1259 64.9519 92.0414 64.7001C91.9569 64.4482 70.4484 51.8633 70.2899 51.8345C70.1315 51.8057 69.0858 53.9284 69.2759 54.0831C69.4661 54.2378 90.4958 66.5673 90.9042 66.6321Z" fill="black"/>
<path d="M86.718 52.4459L97.1431 54.6873L97.3755 45.2468L86.9504 43.0054L86.718 52.4459Z" fill="#FFC727"/>
<path opacity="0.2" d="M86.718 52.4459L97.1431 54.6873L97.3755 45.2468L86.9504 43.0054L86.718 52.4459Z" fill="black"/>
<path opacity="0.1" d="M86.718 52.4459L88.0383 52.7301L88.2707 43.2896L86.9504 43.0054L86.718 52.4459Z" fill="black"/>
<path opacity="0.1" d="M95.5342 47.0675C95.5285 47.2295 95.5766 47.3887 95.6705 47.5193C95.7644 47.6499 95.8988 47.7442 96.0517 47.7871C96.121 47.801 96.1925 47.7985 96.2607 47.7797C96.3289 47.7609 96.392 47.7264 96.4451 47.6788C96.4981 47.6311 96.5398 47.5717 96.5668 47.505C96.5939 47.4384 96.6055 47.3662 96.601 47.2942C96.6064 47.1318 96.5579 46.9722 96.4633 46.8416C96.3686 46.7109 96.2335 46.6168 96.0799 46.5747C96.0108 46.5606 95.9394 46.5631 95.8713 46.5819C95.8033 46.6006 95.7404 46.6352 95.6875 46.6829C95.6347 46.7306 95.5934 46.7902 95.5668 46.8569C95.5402 46.9236 95.529 46.9957 95.5342 47.0675Z" fill="black"/>
<path opacity="0.1" d="M95.4849 49.082C95.4793 49.2439 95.5273 49.4031 95.6212 49.5337C95.7152 49.6643 95.8495 49.7587 96.0025 49.8015C96.0719 49.8162 96.1437 49.8142 96.2122 49.7957C96.2807 49.7772 96.3441 49.7427 96.3973 49.6949C96.4506 49.6472 96.4922 49.5874 96.519 49.5203C96.5458 49.4533 96.557 49.3808 96.5517 49.3086C96.5574 49.1466 96.5093 48.9875 96.4154 48.8569C96.3215 48.7263 96.1871 48.6319 96.0342 48.5891C95.9648 48.5744 95.893 48.5764 95.8245 48.5949C95.756 48.6133 95.6926 48.6478 95.6393 48.6956C95.5861 48.7434 95.5444 48.8032 95.5176 48.8702C95.4908 48.9373 95.4796 49.0097 95.4849 49.082Z" fill="black"/>
<path opacity="0.1" d="M95.4354 51.061C95.4298 51.2229 95.4778 51.3821 95.5717 51.5127C95.6657 51.6433 95.8 51.7377 95.953 51.7805C96.0226 51.7945 96.0944 51.792 96.1629 51.773C96.2314 51.754 96.2946 51.7192 96.3478 51.6711C96.4009 51.6231 96.4425 51.5632 96.4693 51.496C96.4961 51.4289 96.5073 51.3563 96.5022 51.284C96.5078 51.122 96.4598 50.9629 96.3659 50.8323C96.2719 50.7017 96.1376 50.6073 95.9846 50.5645C95.9149 50.5497 95.8428 50.5517 95.774 50.5704C95.7052 50.5891 95.6416 50.6239 95.5883 50.6721C95.535 50.7203 95.4934 50.7805 95.4668 50.848C95.4403 50.9155 95.4295 50.9885 95.4354 51.061Z" fill="black"/>
<path opacity="0.1" d="M93.8725 46.7112C93.8669 46.8732 93.9149 47.0324 94.0089 47.163C94.1028 47.2936 94.2371 47.3879 94.3901 47.4308C94.4595 47.4455 94.5313 47.4435 94.5998 47.425C94.6683 47.4065 94.7317 47.372 94.7849 47.3242C94.8382 47.2764 94.8799 47.2167 94.9067 47.1496C94.9334 47.0826 94.9446 47.0101 94.9393 46.9379C94.945 46.7759 94.897 46.6167 94.803 46.4861C94.7091 46.3555 94.5748 46.2612 94.4218 46.2183C94.3525 46.2044 94.281 46.2069 94.2128 46.2257C94.1446 46.2445 94.0815 46.279 94.0285 46.3266C93.9754 46.3743 93.9337 46.4337 93.9067 46.5004C93.8797 46.5671 93.868 46.6392 93.8725 46.7112Z" fill="black"/>
<path opacity="0.1" d="M93.816 48.7221C93.8103 48.8841 93.8584 49.0432 93.9523 49.1738C94.0462 49.3044 94.1806 49.3988 94.3335 49.4416C94.4029 49.4563 94.4747 49.4543 94.5432 49.4359C94.6117 49.4174 94.6751 49.3829 94.7284 49.3351C94.7816 49.2873 94.8233 49.2275 94.8501 49.1605C94.8769 49.0934 94.8881 49.021 94.8828 48.9488C94.8884 48.7868 94.8404 48.6276 94.7464 48.497C94.6525 48.3664 94.5182 48.272 94.3652 48.2292C94.2958 48.2145 94.224 48.2165 94.1555 48.235C94.087 48.2535 94.0236 48.288 93.9704 48.3358C93.9171 48.3835 93.8755 48.4433 93.8487 48.5104C93.8219 48.5774 93.8107 48.6499 93.816 48.7221Z" fill="black"/>
<path opacity="0.1" d="M93.7739 50.7046C93.7685 50.8671 93.817 51.0266 93.9116 51.1573C94.0062 51.2879 94.1414 51.382 94.295 51.4242C94.3642 51.439 94.4359 51.4371 94.5043 51.4186C94.5727 51.4001 94.6359 51.3655 94.6889 51.3177C94.7419 51.2698 94.7832 51.2099 94.8096 51.1429C94.8359 51.0758 94.8466 51.0033 94.8407 50.9313C94.8464 50.7693 94.7983 50.6101 94.7044 50.4795C94.6105 50.3489 94.4761 50.2546 94.3232 50.2117C94.2539 50.1978 94.1823 50.2003 94.1142 50.2191C94.046 50.2379 93.9829 50.2724 93.9298 50.3201C93.8768 50.3677 93.8351 50.4271 93.8081 50.4938C93.781 50.5605 93.7694 50.6326 93.7739 50.7046Z" fill="black"/>
<path opacity="0.1" d="M92.2106 46.3552C92.2052 46.5176 92.2537 46.6772 92.3483 46.8078C92.443 46.9385 92.5781 47.0325 92.7317 47.0747C92.8012 47.088 92.8728 47.0849 92.9409 47.0656C93.0091 47.0464 93.0721 47.0115 93.125 46.9636C93.178 46.9157 93.2196 46.8561 93.2466 46.7893C93.2736 46.7226 93.2854 46.6503 93.281 46.5782C93.2864 46.4158 93.2379 46.2562 93.1432 46.1256C93.0486 45.9949 92.9135 45.9008 92.7599 45.8587C92.6904 45.8454 92.6188 45.8485 92.5506 45.8678C92.4825 45.887 92.4195 45.9219 92.3665 45.9698C92.3136 46.0177 92.272 46.0773 92.245 46.1441C92.2179 46.2108 92.2062 46.283 92.2106 46.3552Z" fill="black"/>
<path opacity="0.1" d="M92.1648 48.3625C92.1592 48.5244 92.2072 48.6836 92.3011 48.8142C92.3951 48.9448 92.5294 49.0392 92.6824 49.082C92.7517 49.0959 92.8232 49.0934 92.8914 49.0746C92.9596 49.0558 93.0226 49.0213 93.0757 48.9737C93.1288 48.9261 93.1704 48.8666 93.1974 48.8C93.2245 48.7333 93.2362 48.6611 93.2316 48.5891C93.237 48.4267 93.1885 48.2671 93.0939 48.1365C92.9993 48.0058 92.8641 47.9117 92.7105 47.8696C92.6414 47.8555 92.57 47.858 92.5019 47.8768C92.4339 47.8956 92.371 47.9302 92.3182 47.9779C92.2653 48.0256 92.224 48.0851 92.1974 48.1518C92.1708 48.2185 92.1596 48.2906 92.1648 48.3625Z" fill="black"/>
<path opacity="0.1" d="M92.1156 50.3487C92.1099 50.5107 92.158 50.6699 92.2519 50.8004C92.3459 50.931 92.4802 51.0254 92.6331 51.0683C92.7024 51.0822 92.7739 51.0796 92.8421 51.0609C92.9103 51.0421 92.9734 51.0076 93.0265 50.9599C93.0795 50.9123 93.1212 50.8529 93.1482 50.7862C93.1753 50.7195 93.187 50.6474 93.1824 50.5754C93.1878 50.4129 93.1393 50.2534 93.0447 50.1227C92.9501 49.992 92.8149 49.898 92.6613 49.8558C92.5921 49.841 92.5204 49.8429 92.452 49.8614C92.3836 49.8799 92.3204 49.9144 92.2674 49.9623C92.2144 50.0102 92.1731 50.07 92.1467 50.1371C92.1204 50.2042 92.1097 50.2767 92.1156 50.3487Z" fill="black"/>
<path d="M95.6926 18.8394C96.0869 18.9581 97.879 19.0408 98.7944 20.8685C99.664 22.5954 99.3119 27.3445 99.3894 28.4238C99.4669 29.5031 100.755 29.8629 100.879 31.0969C100.984 32.1762 100.196 32.4209 100.002 33.1584C99.8541 33.7305 100.287 34.6983 99.6323 35.4754C99.0373 36.1949 98.224 35.8783 97.6924 36.0402C97.1607 36.2021 96.6361 37.339 95.6714 37.5081C94.7067 37.6772 94.0061 36.6734 93.5097 36.5979C93.0132 36.5223 92.1894 37.9722 90.6015 37.5729C89.0136 37.1735 88.7672 35.7056 88.1369 35.3207C87.5067 34.9357 85.7745 35.1372 85.1443 34.1622C84.514 33.1872 84.5633 32.0359 84.2887 31.561C84.0141 31.0861 83.2817 31.0357 83.0071 30.0032C82.7325 28.9706 83.7113 28.4993 83.9648 27.6826C84.1408 27.1106 83.7183 26.4918 84.2148 25.6607C84.8978 24.5166 86.3272 25.0203 87.0807 23.8618C87.6757 22.948 89.2565 18.825 91.9605 18.1666C93.8336 17.7205 95.6926 18.8394 95.6926 18.8394Z" fill="#263238"/>
<path d="M99.3789 28.1719C99.4462 28.405 99.5669 28.6184 99.731 28.7943L100.185 29.3411C100.498 29.6835 100.757 30.073 100.953 30.496C101.042 30.6974 101.084 30.917 101.077 31.1379C101.07 31.3587 101.013 31.5749 100.91 31.7696C100.797 31.9636 100.653 32.1374 100.484 32.2841C100.294 32.4448 100.127 32.6326 99.988 32.8418C99.8868 33.0901 99.8671 33.3653 99.9317 33.6261C99.9704 33.8671 100.02 34.0974 100.048 34.3456C100.092 34.5655 100.093 34.7921 100.051 35.0125C100.01 35.2329 99.926 35.4427 99.805 35.63C99.6793 35.8053 99.4994 35.9321 99.2944 35.9898C99.0771 36.0462 98.8513 36.0596 98.629 36.0294C98.4002 36.0078 98.1713 35.961 97.9249 35.9286C97.6914 35.8681 97.4454 35.8832 97.2207 35.9718C97.4453 35.9172 97.6801 35.9259 97.9002 35.997C98.1291 36.051 98.3544 36.1193 98.5868 36.1589C98.8262 36.2075 99.0726 36.2075 99.312 36.1589C99.5609 36.0976 99.7827 35.9532 99.9423 35.7487C100.091 35.5449 100.196 35.3117 100.252 35.064C100.308 34.8162 100.313 34.5594 100.266 34.3096C100.242 34.065 100.192 33.8311 100.161 33.5901C100.109 33.386 100.123 33.1706 100.199 32.9749C100.396 32.6151 100.865 32.3561 101.097 31.8955C101.214 31.6674 101.275 31.4137 101.275 31.1562C101.275 30.8987 101.214 30.645 101.097 30.4169C100.873 29.9866 100.583 29.5956 100.238 29.2584L99.7416 28.7547C99.5826 28.5881 99.4591 28.3897 99.3789 28.1719Z" fill="#263238"/>
<path d="M89.2389 20.1956C88.7288 20.8716 88.2586 21.578 87.8306 22.311C87.5982 22.6708 87.3764 23.0306 87.1264 23.3544C87.0049 23.5153 86.8681 23.6636 86.718 23.7969C86.686 23.8281 86.6491 23.8537 86.6088 23.8725C86.5709 23.8979 86.5293 23.9173 86.4856 23.93C86.3905 23.9624 86.292 23.9876 86.1934 24.0128C85.7813 24.1102 85.3746 24.2303 84.9752 24.3725C84.5533 24.5146 84.1845 24.7859 83.919 25.1497C83.79 25.3397 83.7101 25.56 83.6866 25.7901C83.6768 26.0134 83.7078 26.2367 83.7781 26.4484C83.937 26.8423 84.0056 27.2681 83.9788 27.6933C84.0567 27.2678 84.0313 26.8292 83.9049 26.4161C83.8521 26.2182 83.8354 26.0121 83.8556 25.808C83.8877 25.6122 83.9676 25.4279 84.0879 25.272C84.3414 24.9654 84.6747 24.7384 85.0491 24.6172C85.4329 24.4769 85.8378 24.4013 86.2497 24.297C86.3518 24.2682 86.4574 24.2358 86.5596 24.1999C86.6726 24.16 86.7767 24.0977 86.8659 24.0164C87.0299 23.8691 87.1775 23.7038 87.306 23.5235C87.5613 23.1782 87.7964 22.8178 88.0101 22.4442L88.6227 21.3253C88.8075 20.9373 89.0132 20.5602 89.2389 20.1956Z" fill="#263238"/>
<path d="M83.9578 31.2156C84.0596 31.4997 84.104 31.802 84.088 32.1042C84.1056 32.41 84.1197 32.7158 84.1514 33.0252C84.1779 33.3375 84.2357 33.6461 84.3239 33.9463C84.4116 34.262 84.5736 34.5511 84.7957 34.7881C85.2972 35.182 85.9267 35.3659 86.5561 35.3026C86.8589 35.3026 87.1547 35.2738 87.4504 35.2702C87.7465 35.2485 88.0434 35.299 88.3165 35.4178C88.0596 35.2479 87.7631 35.151 87.4574 35.1371C87.1546 35.1119 86.8554 35.1119 86.5596 35.094C85.9787 35.0616 85.3661 34.9716 84.9647 34.5903C84.7729 34.3871 84.6306 34.1406 84.5493 33.8707C84.4566 33.5878 84.3859 33.2979 84.338 33.0037C84.2852 32.705 84.2465 32.4028 84.2042 32.1006C84.1796 31.9459 84.1549 31.7948 84.1197 31.6437C84.1029 31.4891 84.0471 31.3416 83.9578 31.2156Z" fill="#263238"/>
<path d="M88.908 36.3461C88.9361 36.8066 90.5205 40.0446 92.5168 40.3037C93.1646 40.3864 93.7596 36.7779 93.7596 36.7779L93.8617 36.5224L95.3088 32.9247L91.4957 29.3593L90.9395 28.8772C90.9395 28.8772 90.605 29.8846 90.2036 31.1438L90.1473 31.3237C90.1226 31.392 90.098 31.4604 90.0804 31.5251C90.017 31.7122 89.9536 31.9065 89.8973 32.0972C89.841 32.2879 89.8058 32.385 89.7635 32.5397L89.6297 33.0002C89.3153 34.0975 89.0741 35.2154 88.908 36.3461Z" fill="#F7A9A0"/>
<path d="M95.3089 32.9281L93.9217 36.3747C92.0728 35.3226 90.6985 33.5749 90.0911 31.5034L90.2037 31.1436C90.6086 29.888 90.9396 28.8806 90.9396 28.8806L91.4959 29.3555L95.3089 32.9281Z" fill="#263238"/>
<path d="M100.967 27.805C100.555 34.5976 96.5271 35.112 95.0941 35.0005C93.7949 34.9178 89.3728 34.4644 89.1088 27.6647C88.8447 20.865 92.0557 18.933 95.0237 18.9617C97.9917 18.9905 101.379 21.0197 100.967 27.805Z" fill="#F7A9A0"/>
<path d="M89.3518 27.4955C90.4081 27.733 90.9785 25.4556 90.9785 25.4556C90.9785 25.4556 93.1719 25.7686 94.3302 22.6494C94.1362 23.6034 93.6736 24.4787 92.9994 25.1678C92.9994 25.1678 96.9251 25.2937 98.9847 22.214C98.9847 22.214 98.1081 23.8078 97.418 24.3223C97.418 24.3223 99.1009 24.0885 100.073 22.8544C100.073 22.8544 100.495 24.8584 100.946 25.4592C100.946 25.4592 101.717 18.5191 95.3478 18.3752C95.3478 18.3752 91.3869 18.0874 89.549 21.0663C87.7112 24.0453 89.3518 27.4955 89.3518 27.4955Z" fill="#263238"/>
<path d="M90.1228 28.2692C90.1228 28.2692 88.9926 25.9523 87.9822 26.3337C86.9717 26.715 87.609 29.9314 88.6405 30.507C88.7685 30.591 88.9117 30.6478 89.0616 30.6739C89.2114 30.7 89.3649 30.6949 89.5129 30.659C89.6608 30.623 89.8001 30.5569 89.9224 30.4647C90.0448 30.3724 90.1477 30.2559 90.2249 30.1221L90.1228 28.2692Z" fill="#F7A9A0"/>
<path d="M88.1826 27.2471V27.2759C88.8868 27.7112 89.2037 28.4991 89.3762 29.2978C89.3429 29.2126 89.292 29.1358 89.2269 29.0725C89.1619 29.0093 89.0843 28.9612 88.9993 28.9315C88.9144 28.9018 88.8242 28.8911 88.7349 28.9003C88.6456 28.9095 88.5593 28.9383 88.4819 28.9848C88.4773 28.9867 88.4734 28.9899 88.4706 28.994C88.4679 28.9982 88.4664 29.0031 88.4664 29.0082C88.4664 29.0132 88.4679 29.0181 88.4706 29.0223C88.4734 29.0265 88.4773 29.0297 88.4819 29.0316C88.621 29.013 88.7623 29.0374 88.8878 29.1015C89.0132 29.1656 89.1171 29.2665 89.186 29.3913C89.2983 29.6065 89.388 29.8332 89.4536 30.0677C89.4818 30.1433 89.6085 30.1253 89.5945 30.0425V30.0137C89.7775 29.0244 89.2389 27.4953 88.1826 27.2471Z" fill="#263238"/>
<path d="M89.4433 30.3163C89.4303 30.4043 89.3838 30.4835 89.3139 30.5367C89.244 30.59 89.1564 30.6129 89.0701 30.6005C88.9876 30.588 88.913 30.5438 88.8613 30.4769C88.8096 30.4101 88.7848 30.3256 88.792 30.2407C88.8041 30.1524 88.8501 30.0727 88.9197 30.0191C88.9894 29.9654 89.0771 29.9423 89.1634 29.9547C89.2498 29.9671 89.3278 30.0141 89.3803 30.0852C89.4328 30.1564 89.4555 30.246 89.4433 30.3343V30.3163Z" fill="white"/>
<path d="M99.8332 26.2545C99.6871 26.2146 99.5437 26.1653 99.4036 26.107C99.2451 26.0791 99.1002 25.9981 98.9917 25.8768C98.9649 25.8314 98.9535 25.7782 98.9592 25.7256C98.9649 25.6729 98.9875 25.6236 99.0234 25.5853C99.1053 25.5219 99.2023 25.4818 99.3043 25.4692C99.4064 25.4565 99.5099 25.4718 99.6043 25.5134C99.8084 25.5648 99.9858 25.6934 100.101 25.8732C100.126 25.9159 100.138 25.9653 100.136 26.0152C100.134 26.0651 100.118 26.1133 100.09 26.1538C100.061 26.1944 100.022 26.2256 99.9762 26.2435C99.9306 26.2614 99.8809 26.2652 99.8332 26.2545Z" fill="#263238"/>
<path d="M95.5134 26.1284C95.6648 26.0961 95.7986 26.0385 95.9465 25.9917C96.105 25.9657 96.251 25.8874 96.3619 25.7687C96.3898 25.7239 96.4021 25.6708 96.397 25.618C96.3919 25.5652 96.3696 25.5156 96.3337 25.4773C96.2533 25.4124 96.1577 25.3703 96.0563 25.3552C95.955 25.34 95.8515 25.3523 95.7563 25.3909C95.549 25.4412 95.3679 25.5697 95.2493 25.7507C95.2256 25.7931 95.2142 25.8416 95.2166 25.8904C95.219 25.9392 95.2351 25.9863 95.2629 26.0261C95.2907 26.0658 95.329 26.0966 95.3735 26.1148C95.4179 26.1329 95.4664 26.1377 95.5134 26.1284Z" fill="#263238"/>
<path d="M96.2806 27.5747C96.2806 27.5747 96.2419 27.5747 96.2419 27.6107C96.2173 28.0676 96.1152 28.5821 95.6997 28.69V28.7188C96.2032 28.6972 96.3334 28.01 96.2806 27.5747Z" fill="#263238"/>
<path d="M95.9286 27.0637C95.2244 26.945 95.0343 28.4057 95.6927 28.5028C96.3511 28.6 96.5271 27.1645 95.9286 27.0637Z" fill="#263238"/>
<path d="M95.64 27.1033C95.5063 27.1717 95.3654 27.3012 95.214 27.2976C95.0626 27.294 94.9253 27.1213 94.8303 26.9594C94.8303 26.9414 94.8056 26.9594 94.8021 26.9594C94.7633 27.0902 94.7749 27.2312 94.8344 27.3536C94.894 27.476 94.997 27.5705 95.1225 27.6178C95.383 27.6898 95.6084 27.4703 95.7105 27.1969C95.7316 27.1609 95.6964 27.0781 95.64 27.1033Z" fill="#263238"/>
<path d="M98.8227 27.7222C98.8227 27.7222 98.8543 27.7474 98.8508 27.7653C98.7769 28.2151 98.7663 28.7439 99.1466 28.949C99.1466 28.949 99.1466 28.9778 99.1466 28.9742C98.6607 28.8375 98.6818 28.1359 98.8227 27.7222Z" fill="#263238"/>
<path d="M99.2768 27.3049C99.9986 27.348 99.8613 28.8123 99.1959 28.7727C98.5304 28.7332 98.6748 27.2689 99.2768 27.3049Z" fill="#263238"/>
<path d="M99.569 27.4274C99.6747 27.5173 99.7733 27.6684 99.9211 27.6936C100.069 27.7188 100.21 27.5713 100.323 27.4274H100.344C100.326 27.708 100.206 27.9922 99.9387 28.021C99.6712 28.0498 99.5409 27.7871 99.5021 27.5029C99.481 27.4669 99.5268 27.395 99.569 27.4274Z" fill="#263238"/>
<path d="M95.8863 31.2696C95.9743 31.3955 96.0553 31.5574 96.2138 31.6006C96.3771 31.6253 96.5437 31.6155 96.7032 31.5718C96.7208 31.5718 96.7313 31.5718 96.7208 31.597C96.6421 31.6737 96.5448 31.7275 96.4389 31.7528C96.3331 31.7781 96.2225 31.774 96.1187 31.7409C96.0334 31.7012 95.9615 31.6367 95.912 31.5554C95.8626 31.4741 95.8377 31.3797 95.8406 31.284C95.8402 31.2784 95.8418 31.2728 95.8449 31.2682C95.8481 31.2635 95.8526 31.2601 95.8579 31.2584C95.8632 31.2568 95.8689 31.257 95.874 31.259C95.8792 31.261 95.8835 31.2648 95.8863 31.2696Z" fill="#263238"/>
<path d="M97.9812 29.762C97.9812 29.762 97.9988 30.4491 97.9636 30.7693C97.9636 30.7981 97.8826 30.8053 97.7735 30.7981C97.4994 30.8161 97.2258 30.7568 96.9824 30.6267C96.739 30.4967 96.5353 30.3008 96.3933 30.0606C96.3757 30.0282 96.4215 29.9994 96.4461 30.021C96.8118 30.3475 97.2716 30.5433 97.7559 30.5786C97.7876 30.4923 97.6925 29.4022 97.7559 29.4058C98.0011 29.4533 98.2383 29.5369 98.46 29.654C98.46 28.2149 98.2558 26.7974 98.284 25.3691C98.284 25.3576 98.2885 25.3467 98.2964 25.3386C98.3043 25.3305 98.315 25.3259 98.3263 25.3259C98.3375 25.3259 98.3482 25.3305 98.3561 25.3386C98.3641 25.3467 98.3685 25.3576 98.3685 25.3691C98.6466 26.8872 98.7751 28.4299 98.7523 29.9742C98.7171 30.1469 98.1009 29.8339 97.9812 29.762Z" fill="#263238"/>
<path d="M97.6466 30.7336C97.4405 30.954 97.1822 31.1164 96.8967 31.2049C96.7385 31.2461 96.5719 31.2386 96.4179 31.1833C96.0869 31.0538 96.1116 30.73 96.2031 30.4637C96.2546 30.3226 96.3207 30.1875 96.4003 30.0608C96.7354 30.4145 97.1718 30.6501 97.6466 30.7336Z" fill="#263238"/>
<path d="M96.8967 31.2048C96.7385 31.246 96.5719 31.2385 96.4179 31.1832C96.0869 31.0537 96.1116 30.7299 96.2031 30.4636C96.3832 30.4901 96.5494 30.5775 96.6751 30.7118C96.8008 30.8462 96.8789 31.0198 96.8967 31.2048Z" fill="#FF98B9"/>
<path d="M86.0703 35.9609C86.0781 36.57 86.2472 37.1656 86.5597 37.6843C87.5561 39.3644 90.2319 40.728 92.8971 40.397C94.5906 40.1847 95.6363 39.4867 96.1644 38.5981C94.3954 38.9312 92.5767 38.8679 90.8339 38.4125C89.0911 37.9572 87.4658 37.1208 86.0703 35.9609Z" fill="#455A64"/>
<path d="M83.7784 33.7124C86.7993 38.9831 95.5872 41.3144 101.122 36.5582C105.03 33.1907 106.755 26.2507 103.812 20.4763C99.5375 12.1259 90.8975 12.9858 86.0705 17.062C80.997 21.3577 81.4934 29.7117 83.7784 33.7124ZM89.6723 20.3683C93.5698 17.4362 100.566 17.2599 103.967 23.1998C105.018 25.0685 105.37 27.2639 104.956 29.3776C104.542 31.4913 103.391 33.3795 101.717 34.691C97.2314 38.1268 90.1652 36.5115 87.7534 32.759C85.9261 29.9132 85.5494 23.4696 89.6723 20.3683Z" fill="#FFC727"/>
<path opacity="0.1" d="M87.7533 32.7556C90.1651 36.508 97.2313 38.1234 101.717 34.6876C103.39 33.3762 104.54 31.4887 104.954 29.3758C105.368 27.2629 105.017 25.0683 103.967 23.1999C100.566 17.26 93.5697 17.4435 89.6722 20.3685C85.5493 23.4698 85.9261 29.9133 87.7533 32.7556Z" fill="#455A64"/>
<path opacity="0.1" d="M87.7533 32.7556C90.1651 36.508 97.2313 38.1234 101.717 34.6876C103.39 33.3762 104.54 31.4887 104.954 29.3758C105.368 27.2629 105.017 25.0683 103.967 23.1999C100.566 17.26 93.5697 17.4435 89.6722 20.3685C85.5493 23.4698 85.9261 29.9133 87.7533 32.7556Z" fill="#455A64"/>
<g opacity="0.2">
<path d="M96.1362 18.3899C99.4463 21.8276 102.378 25.6254 104.878 29.7156C105.176 28.5053 105.213 27.2435 104.988 26.0171C103.366 23.6377 101.596 21.3676 99.6887 19.221C98.5678 18.7135 97.3616 18.4313 96.1362 18.3899Z" fill="white"/>
<path d="M86.5632 29.2944C86.7161 30.5233 87.1216 31.7053 87.7533 32.7627C88.5552 33.9338 89.6493 34.8642 90.922 35.4574C89.6152 33.2991 88.1586 31.2395 86.5632 29.2944Z" fill="white"/>
<path d="M94.1926 18.5012C98.0733 22.3978 101.443 26.7926 104.216 31.5754C104.283 31.4423 104.343 31.3092 104.399 31.1724C101.672 26.5298 98.3875 22.2538 94.6222 18.4436L94.1926 18.5012Z" fill="white"/>
<path d="M86.75 24.995C90.0274 28.4643 92.8554 32.3493 95.1647 36.5545C95.2985 36.5545 95.4323 36.5545 95.5696 36.5545C93.1875 32.2008 90.2541 28.1871 86.8451 24.6172C86.8099 24.7467 86.7746 24.869 86.75 24.995Z" fill="white"/>
<path d="M86.4436 27.5281C86.4436 27.7008 86.4436 27.8663 86.4436 28.0354C88.5474 30.4914 90.4326 33.1342 92.0769 35.9324C92.2353 35.99 92.3938 36.044 92.5557 36.0907C90.7942 33.0412 88.7473 30.1735 86.4436 27.5281Z" fill="white"/>
<path d="M88.0769 22.0092C92.282 26.1666 95.8435 30.9536 98.6393 36.2059C99.0463 36.0942 99.4451 35.9536 99.8328 35.785C96.9336 30.3396 93.2256 25.3867 88.8409 21.1025C88.5645 21.3849 88.3091 21.6879 88.0769 22.0092Z" fill="white"/>
</g>
<path d="M80.6446 29.1469C80.0672 27.7078 80.0566 24.7289 81.5283 23.3113C82.9367 21.973 85.3273 21.8399 86.3906 24.8764C87.1229 26.9739 86.5419 29.3879 85.4083 30.4997C83.8028 32.0719 81.4051 31.0717 80.6446 29.1469Z" fill="#FFC727"/>
<path opacity="0.1" d="M80.6446 29.1469C80.0672 27.7078 80.0566 24.7289 81.5283 23.3113C82.9367 21.973 85.3273 21.8399 86.3906 24.8764C87.1229 26.9739 86.5419 29.3879 85.4083 30.4997C83.8028 32.0719 81.4051 31.0717 80.6446 29.1469Z" fill="black"/>
<path d="M80.2014 28.6181C79.7577 27.4956 79.7507 25.2218 80.8809 24.1317C81.9371 23.1028 83.7996 23.002 84.6165 25.3334C85.1798 26.9452 84.7326 28.8016 83.8595 29.6507C82.6307 30.8631 80.7893 30.0932 80.2014 28.6181Z" fill="#FFC727"/>
<path d="M83.0281 41.1238C84.4998 50.0678 91.4781 61.6309 93.8018 64.2357C97.3402 68.2184 113.582 63.9479 116.891 63.3003C118.3 63.0269 113.951 50.4384 112.437 50.7082C111.117 50.9384 98.7063 54.6657 98.3366 54.2196C98.0373 53.8598 92.0379 45.585 87.7355 40.1344C84.0245 35.4321 82.6409 38.7565 83.0281 41.1238Z" fill="#F7A9A0"/>
<path d="M109.515 51.4675L111.786 50.8523C112.516 50.6339 113.21 50.3066 113.846 49.8809C116.391 48.3806 123.531 46.3947 129.978 51.6798C132.443 53.6981 132.14 56.3569 129.21 54.7199C127.144 53.5686 125.809 52.59 125.035 52.4065C125.035 52.4065 126.443 55.7956 125.338 57.6089C124.377 59.194 123.307 60.7076 122.137 62.1384C121.832 61.9781 121.537 61.7991 121.253 61.6024C120.758 62.2786 120.086 62.7978 119.314 63.1002C118.542 63.4026 117.702 63.4758 116.891 63.3113L113.233 64.11L109.515 51.4675Z" fill="#455A64"/>
<path d="M116.497 48.8481C118.007 49.1504 121.201 49.8519 123.616 51.3666C126.299 53.0323 131.031 56.9863 129.806 58.9974C128.908 60.4725 126.971 59.1233 126.971 59.1233C126.971 59.1233 128.587 61.1776 127.493 62.3289C126.493 63.3795 125.056 62.2462 125.056 62.2462C125.056 62.2462 125.827 63.6637 124.676 64.484C123.289 65.4733 121.898 62.3253 119.648 62.0951C119.141 62.0339 116.497 48.8481 116.497 48.8481Z" fill="#455A64"/>
<path d="M121.419 53.9571C122.796 54.4824 125.619 56.4755 126.975 59.0479C127.003 59.1055 126.975 59.1594 126.94 59.1127C125.304 57.1808 123.446 55.4581 121.405 53.9823C121.405 53.9823 121.405 53.9535 121.419 53.9571Z" fill="#263238"/>
<path d="M119.87 56.774C121.011 57.3532 123.831 59.5587 125.116 62.1922C125.144 62.2534 125.116 62.3073 125.077 62.257C123.544 60.2412 121.791 58.4101 119.853 56.7992C119.853 56.7992 119.835 56.7668 119.87 56.774Z" fill="#263238"/>
<path d="M109.515 51.4677L113.233 64.0994C113.233 64.0994 112.491 65.5385 109.163 66.1933C105.836 66.8481 96.1365 67.0244 93.9008 64.9305C91.665 62.8366 85.479 51.9786 83.3208 43.9448C81.1625 35.911 85.6903 36.663 88.0633 40.142C90.4363 43.621 98.3475 53.7127 98.5834 53.8134C98.8193 53.9142 104.368 51.7483 106.378 51.331C108.389 50.9136 109.515 51.4677 109.515 51.4677Z" fill="#FFC727"/>
<path d="M97.2066 52.1617C96.6503 51.5824 96.1292 50.978 95.6117 50.3628C95.0941 49.7476 94.5942 49.1288 94.0977 48.5027C93.6013 47.8767 93.119 47.2399 92.6507 46.5851L91.9465 45.6066C91.7212 45.272 91.4888 44.9446 91.2776 44.6028C91.5557 44.8906 91.8163 45.1928 92.0874 45.4878L92.869 46.3981C93.3901 47.0061 93.8865 47.6321 94.3829 48.2581C94.8794 48.8841 95.3652 49.5245 95.83 50.1793C96.2947 50.8341 96.7736 51.4853 97.2066 52.1617Z" fill="#263238"/>
<path d="M92.7598 46.4666C92.6077 46.2245 92.4792 45.9679 92.3761 45.7002C92.272 45.4329 92.1816 45.1604 92.105 44.8835C92.2071 44.9911 92.2947 45.1121 92.3655 45.2433C92.4361 45.3684 92.4985 45.4983 92.5521 45.6319C92.6613 45.8981 92.7313 46.1794 92.7598 46.4666Z" fill="#263238"/>
<path d="M92.9255 63.7966C92.4466 63.2138 92.0065 62.595 91.5629 61.9798C91.1193 61.3646 90.7144 60.7206 90.306 60.0802C89.4927 58.7994 88.7463 57.4754 88.0315 56.1226C87.3168 54.7699 86.6725 53.3991 86.0881 51.9888C85.4967 50.5859 84.9784 49.152 84.5354 47.6931C84.8452 48.3911 85.1058 49.1034 85.4262 49.7906C85.7466 50.4778 86.0282 51.1865 86.3556 51.8665L87.3274 53.9208C87.6795 54.5972 87.9999 55.2772 88.3625 55.9392C89.0455 57.2919 89.7955 58.6051 90.5524 59.8967C91.3094 61.1883 92.1016 62.5266 92.9255 63.7966Z" fill="#263238"/>
<path d="M85.4894 50.2261C85.2533 50.0428 85.0384 49.8328 84.8486 49.6001C84.6557 49.3703 84.4902 49.1179 84.3557 48.8481C84.5915 49.0305 84.8054 49.2406 84.993 49.4741C85.1886 49.7026 85.3554 49.9552 85.4894 50.2261Z" fill="#263238"/>
<path opacity="0.1" d="M107.706 52.8596C108.206 54.2375 108.635 55.6479 109.054 57.0582C109.473 58.4685 109.885 59.85 110.29 61.246C110.522 62.0483 110.755 62.8506 110.959 63.6564C110.959 63.7104 110.927 63.7212 110.91 63.6564C110.42 62.2713 109.998 60.8574 109.558 59.4579C109.118 58.0583 108.699 56.6732 108.287 55.2773C108.051 54.475 107.829 53.6763 107.632 52.8632C107.611 52.802 107.678 52.784 107.706 52.8596Z" fill="black"/>
<path d="M118.419 105.657L120.359 106.024L120.792 108.114L121.225 106.024L123.165 105.657L121.232 105.175L120.792 103.203L120.348 105.175L118.419 105.657Z" fill="#C7C7C7"/>
<path d="M24.2024 100.044L26.1388 100.411L26.5754 102.498L27.0085 100.411L28.9449 100.04L27.0155 99.5582L26.5754 97.5867L26.1318 99.5582L24.2024 100.044Z" fill="#C7C7C7"/>
<path d="M98.6072 72.043L100.547 72.41L100.98 74.5003L101.413 72.41L103.353 72.043L101.424 71.5609L100.98 69.5894L100.54 71.5609L98.6072 72.043Z" fill="#C7C7C7"/>
<path d="M136.854 93.3595L137.938 93.5645L138.181 94.7302L138.424 93.5645L139.505 93.3595L138.428 93.0896L138.181 91.9851L137.935 93.0896L136.854 93.3595Z" fill="#C7C7C7"/>
<path d="M54.5938 137.792L55.6782 137.997L55.9176 139.163L56.1605 137.997L57.2449 137.792L56.164 137.522L55.9176 136.417L55.6711 137.522L54.5938 137.792Z" fill="#C7C7C7"/>
<path d="M134.203 40.7965L135.287 41.0016L135.53 42.1709L135.769 41.0016L136.854 40.7965L135.776 40.5267L135.53 39.4258L135.28 40.5267L134.203 40.7965Z" fill="#C7C7C7"/>
<path d="M6.33057 65.9122L7.41497 66.1173L7.65791 67.2866L7.90084 66.1173L8.98525 65.9122L7.90436 65.6424L7.65791 64.5415L7.41145 65.6424L6.33057 65.9122Z" fill="#C7C7C7"/>
<path d="M12.1472 125.347L13.2316 125.552L13.4746 126.718L13.7175 125.552L14.7984 125.347L13.721 125.077L13.4746 123.973L13.2281 125.077L12.1472 125.347Z" fill="#C7C7C7"/>
<path d="M130.02 70.377L131.104 70.5785L131.347 71.7478L131.587 70.5785L132.671 70.3734L131.594 70.1072L131.347 69.0027L131.097 70.1072L130.02 70.377Z" fill="#C7C7C7"/>
<path d="M44.8481 14.3492L45.9326 14.5543L46.1755 15.7199L46.4184 14.5543L47.5028 14.3456L46.4219 14.0758L46.1755 12.9749L45.929 14.0758L44.8481 14.3492Z" fill="#C7C7C7"/>
<path d="M87.2842 103.872L88.3686 104.077L88.6115 105.243L88.8545 104.077L89.9389 103.872L88.858 103.602L88.6115 102.498L88.3651 103.602L87.2842 103.872Z" fill="#C7C7C7"/>
<path d="M52.027 140.317C52.1101 140.317 52.1898 140.351 52.2485 140.411C52.3073 140.471 52.3403 140.552 52.3403 140.637C52.3403 140.722 52.3073 140.804 52.2485 140.864C52.1898 140.924 52.1101 140.958 52.027 140.958C51.9439 140.958 51.8642 140.924 51.8054 140.864C51.7466 140.804 51.7136 140.722 51.7136 140.637C51.7136 140.552 51.7466 140.471 51.8054 140.411C51.8642 140.351 51.9439 140.317 52.027 140.317Z" fill="#C7C7C7"/>
<path d="M108.082 80.0947C108.16 80.1031 108.232 80.1407 108.284 80.2002C108.336 80.2596 108.365 80.3367 108.365 80.4167C108.365 80.4967 108.336 80.5738 108.284 80.6333C108.232 80.6927 108.16 80.7303 108.082 80.7387C108.004 80.7303 107.932 80.6927 107.88 80.6333C107.827 80.5738 107.798 80.4967 107.798 80.4167C107.798 80.3367 107.827 80.2596 107.88 80.2002C107.932 80.1407 108.004 80.1031 108.082 80.0947Z" fill="#C7C7C7"/>
<path d="M34.6658 137.907C34.7437 137.915 34.8157 137.953 34.868 138.012C34.9204 138.072 34.9494 138.149 34.9494 138.229C34.9494 138.309 34.9204 138.386 34.868 138.445C34.8157 138.505 34.7437 138.542 34.6658 138.551C34.588 138.542 34.516 138.505 34.4636 138.445C34.4113 138.386 34.3823 138.309 34.3823 138.229C34.3823 138.149 34.4113 138.072 34.4636 138.012C34.516 137.953 34.588 137.915 34.6658 137.907Z" fill="#C7C7C7"/>
<path d="M123.038 84.3003C123.116 84.3087 123.188 84.3463 123.24 84.4057C123.293 84.4652 123.322 84.5423 123.322 84.6223C123.322 84.7023 123.293 84.7794 123.24 84.8389C123.188 84.8983 123.116 84.9359 123.038 84.9443C122.96 84.9359 122.888 84.8983 122.836 84.8389C122.784 84.7794 122.755 84.7023 122.755 84.6223C122.755 84.5423 122.784 84.4652 122.836 84.4057C122.888 84.3463 122.96 84.3087 123.038 84.3003Z" fill="#C7C7C7"/>
<path d="M59.8998 134.543C59.9586 134.543 60.015 134.567 60.0566 134.609C60.0982 134.652 60.1216 134.71 60.1216 134.77C60.1216 134.83 60.0982 134.887 60.0566 134.93C60.015 134.972 59.9586 134.996 59.8998 134.996C59.841 134.996 59.7845 134.972 59.7429 134.93C59.7013 134.887 59.678 134.83 59.678 134.77C59.678 134.71 59.7013 134.652 59.7429 134.609C59.7845 134.567 59.841 134.543 59.8998 134.543Z" fill="#C7C7C7"/>
<path d="M15.5094 16.5979C15.5682 16.5979 15.6247 16.6218 15.6663 16.6643C15.7078 16.7068 15.7312 16.7644 15.7312 16.8246C15.7312 16.8847 15.7078 16.9423 15.6663 16.9848C15.6247 17.0273 15.5682 17.0512 15.5094 17.0512C15.4506 17.0512 15.3942 17.0273 15.3526 16.9848C15.311 16.9423 15.2876 16.8847 15.2876 16.8246C15.2876 16.7644 15.311 16.7068 15.3526 16.6643C15.3942 16.6218 15.4506 16.5979 15.5094 16.5979Z" fill="#C7C7C7"/>
<path d="M101.241 89.6069C101.3 89.6069 101.356 89.6308 101.398 89.6733C101.439 89.7158 101.463 89.7735 101.463 89.8336C101.463 89.8937 101.439 89.9514 101.398 89.9939C101.356 90.0364 101.3 90.0602 101.241 90.0602C101.182 90.0602 101.126 90.0364 101.084 89.9939C101.042 89.9514 101.019 89.8937 101.019 89.8336C101.019 89.7735 101.042 89.7158 101.084 89.6733C101.126 89.6308 101.182 89.6069 101.241 89.6069Z" fill="#C7C7C7"/>
<path d="M93.7064 85.4768C93.8586 85.4887 94.0008 85.5588 94.1045 85.6733C94.2082 85.7877 94.2659 85.9379 94.2659 86.0938C94.2659 86.2498 94.2082 86.4 94.1045 86.5144C94.0008 86.6288 93.8586 86.6989 93.7064 86.7108C93.5542 86.6989 93.4121 86.6288 93.3083 86.5144C93.2046 86.4 93.147 86.2498 93.147 86.0938C93.147 85.9379 93.2046 85.7877 93.3083 85.6733C93.4121 85.5588 93.5542 85.4887 93.7064 85.4768Z" fill="#C7C7C7"/>
<path d="M49.5942 37.303L51.5342 37.6699L51.9673 39.7566L52.4003 37.6699L54.3403 37.2994L52.4074 36.8173L51.9673 34.8457L51.5236 36.8173L49.5942 37.303Z" fill="#C7C7C7"/>
<path d="M70.2649 5.2184L71.3493 5.42347L71.5922 6.59274L71.8352 5.42347L72.9196 5.2184L71.8387 4.94857L71.5922 3.84766L71.3458 4.94857L70.2649 5.2184Z" fill="#C7C7C7"/>
<path d="M4.5528 35.1912C4.63063 35.1996 4.70266 35.2371 4.75501 35.2966C4.80736 35.356 4.83632 35.4332 4.83632 35.5132C4.83632 35.5931 4.80736 35.6703 4.75501 35.7297C4.70266 35.7892 4.63063 35.8267 4.5528 35.8352C4.47497 35.8267 4.40295 35.7892 4.3506 35.7297C4.29825 35.6703 4.26929 35.5931 4.26929 35.5132C4.26929 35.4332 4.29825 35.356 4.3506 35.2966C4.40295 35.2371 4.47497 35.1996 4.5528 35.1912Z" fill="#C7C7C7"/>
<path d="M9.48889 120.35C9.57199 120.35 9.6517 120.383 9.71046 120.443C9.76923 120.503 9.80224 120.585 9.80224 120.67C9.80224 120.755 9.76923 120.836 9.71046 120.896C9.6517 120.956 9.57199 120.99 9.48889 120.99C9.40578 120.99 9.32608 120.956 9.26731 120.896C9.20855 120.836 9.17554 120.755 9.17554 120.67C9.17554 120.585 9.20855 120.503 9.26731 120.443C9.32608 120.383 9.40578 120.35 9.48889 120.35Z" fill="#C7C7C7"/>
<path d="M17.0622 62.1096C17.1458 62.1096 17.2259 62.1435 17.285 62.2039C17.3441 62.2643 17.3773 62.3462 17.3773 62.4316C17.3773 62.517 17.3441 62.5989 17.285 62.6593C17.2259 62.7197 17.1458 62.7536 17.0622 62.7536C16.9786 62.7536 16.8985 62.7197 16.8394 62.6593C16.7803 62.5989 16.7471 62.517 16.7471 62.4316C16.7471 62.3462 16.7803 62.2643 16.8394 62.2039C16.8985 62.1435 16.9786 62.1096 17.0622 62.1096Z" fill="#C7C7C7"/>
<path d="M29.5045 105.042C29.5633 105.042 29.6198 105.065 29.6614 105.108C29.703 105.15 29.7263 105.208 29.7263 105.268C29.7263 105.328 29.703 105.386 29.6614 105.428C29.6198 105.471 29.5633 105.495 29.5045 105.495C29.4457 105.495 29.3893 105.471 29.3477 105.428C29.3061 105.386 29.2827 105.328 29.2827 105.268C29.2827 105.208 29.3061 105.15 29.3477 105.108C29.3893 105.065 29.4457 105.042 29.5045 105.042Z" fill="#C7C7C7"/>
<path d="M76.3947 134.158C76.4535 134.158 76.5099 134.182 76.5515 134.224C76.5931 134.267 76.6165 134.325 76.6165 134.385C76.6165 134.445 76.5931 134.502 76.5515 134.545C76.5099 134.587 76.4535 134.611 76.3947 134.611C76.3358 134.611 76.2794 134.587 76.2378 134.545C76.1962 134.502 76.1729 134.445 76.1729 134.385C76.1729 134.325 76.1962 134.267 76.2378 134.224C76.2794 134.182 76.3358 134.158 76.3947 134.158Z" fill="#C7C7C7"/>
<path d="M109.409 30.2371C109.468 30.2371 109.524 30.2609 109.566 30.3034C109.608 30.346 109.631 30.4036 109.631 30.4637C109.631 30.5238 109.608 30.5815 109.566 30.624C109.524 30.6665 109.468 30.6904 109.409 30.6904C109.35 30.6904 109.294 30.6665 109.252 30.624C109.211 30.5815 109.187 30.5238 109.187 30.4637C109.187 30.4036 109.211 30.346 109.252 30.3034C109.294 30.2609 109.35 30.2371 109.409 30.2371Z" fill="#C7C7C7"/>
<path d="M69.2509 16.3425C69.3097 16.3425 69.3661 16.3664 69.4077 16.4089C69.4493 16.4514 69.4727 16.5091 69.4727 16.5692C69.4727 16.6293 69.4493 16.687 69.4077 16.7295C69.3661 16.772 69.3097 16.7958 69.2509 16.7958C69.192 16.7958 69.1356 16.772 69.094 16.7295C69.0524 16.687 69.0291 16.6293 69.0291 16.5692C69.0291 16.5091 69.0524 16.4514 69.094 16.4089C69.1356 16.3664 69.192 16.3425 69.2509 16.3425Z" fill="#C7C7C7"/>
<path d="M55.9211 96.9717C56.0808 96.9717 56.234 97.0365 56.3469 97.1519C56.4598 97.2672 56.5232 97.4237 56.5232 97.5869C56.5232 97.7501 56.4598 97.9065 56.3469 98.0219C56.234 98.1373 56.0808 98.2021 55.9211 98.2021C55.7615 98.2021 55.6083 98.1373 55.4954 98.0219C55.3825 97.9065 55.3191 97.7501 55.3191 97.5869C55.3191 97.4237 55.3825 97.2672 55.4954 97.1519C55.6083 97.0365 55.7615 96.9717 55.9211 96.9717Z" fill="#C7C7C7"/>
<path d="M135.262 50.4634C135.422 50.4634 135.575 50.5282 135.688 50.6436C135.801 50.7589 135.864 50.9154 135.864 51.0786C135.864 51.2418 135.801 51.3982 135.688 51.5136C135.575 51.629 135.422 51.6938 135.262 51.6938C135.103 51.6938 134.949 51.629 134.836 51.5136C134.724 51.3982 134.66 51.2418 134.66 51.0786C134.66 50.9154 134.724 50.7589 134.836 50.6436C134.949 50.5282 135.103 50.4634 135.262 50.4634Z" fill="#C7C7C7"/>
<path d="M11.9924 104.426C12.1521 104.426 12.3052 104.491 12.4182 104.606C12.5311 104.722 12.5945 104.878 12.5945 105.041C12.5945 105.205 12.5311 105.361 12.4182 105.477C12.3052 105.592 12.1521 105.657 11.9924 105.657C11.8328 105.657 11.6796 105.592 11.5667 105.477C11.4538 105.361 11.3904 105.205 11.3904 105.041C11.3904 104.878 11.4538 104.722 11.5667 104.606C11.6796 104.491 11.8328 104.426 11.9924 104.426Z" fill="#C7C7C7"/>
<path d="M48.749 47.2184L49.8334 47.4235L50.0764 48.5927L50.3158 47.4235L51.4002 47.2184L50.3228 46.9486L50.0764 45.8477L49.8264 46.9486L48.749 47.2184Z" fill="#C7C7C7"/>
<path d="M85.6226 136.597L86.707 136.802L86.9499 137.972L87.1893 136.802L88.2737 136.597L87.1964 136.327L86.9499 135.227L86.7034 136.327L85.6226 136.597Z" fill="#C7C7C7"/>
<path d="M90.4252 122.214C90.5083 122.214 90.588 122.247 90.6467 122.307C90.7055 122.367 90.7385 122.449 90.7385 122.534C90.7385 122.619 90.7055 122.7 90.6467 122.76C90.588 122.82 90.5083 122.854 90.4252 122.854C90.3421 122.854 90.2624 122.82 90.2036 122.76C90.1448 122.7 90.1118 122.619 90.1118 122.534C90.1118 122.449 90.1448 122.367 90.2036 122.307C90.2624 122.247 90.3421 122.214 90.4252 122.214Z" fill="#C7C7C7"/>
<path d="M102.671 113.672C102.754 113.672 102.833 113.706 102.892 113.766C102.951 113.826 102.984 113.908 102.984 113.993C102.984 114.077 102.951 114.159 102.892 114.219C102.833 114.279 102.754 114.313 102.671 114.313C102.587 114.313 102.508 114.279 102.449 114.219C102.39 114.159 102.357 114.077 102.357 113.993C102.357 113.908 102.39 113.826 102.449 113.766C102.508 113.706 102.587 113.672 102.671 113.672Z" fill="#C7C7C7"/>
<path d="M63.9204 128.419L65.0048 128.625L65.2478 129.79L65.4907 128.625L66.5751 128.416L65.4942 128.15L65.2478 127.045L65.0013 128.15L63.9204 128.419Z" fill="#C7C7C7"/>
<path d="M108.543 25.0024C108.621 25.0109 108.693 25.0484 108.745 25.1079C108.798 25.1673 108.827 25.2445 108.827 25.3244C108.827 25.4044 108.798 25.4816 108.745 25.541C108.693 25.6005 108.621 25.638 108.543 25.6464C108.465 25.638 108.393 25.6005 108.341 25.541C108.288 25.4816 108.26 25.4044 108.26 25.3244C108.26 25.2445 108.288 25.1673 108.341 25.1079C108.393 25.0484 108.465 25.0109 108.543 25.0024Z" fill="#C7C7C7"/>
<path d="M116.102 114.683C116.156 114.69 116.207 114.717 116.243 114.759C116.279 114.802 116.299 114.856 116.299 114.912C116.299 114.968 116.279 115.022 116.243 115.064C116.207 115.106 116.156 115.133 116.102 115.14C116.048 115.133 115.997 115.106 115.961 115.064C115.925 115.022 115.905 114.968 115.905 114.912C115.905 114.856 115.925 114.802 115.961 114.759C115.997 114.717 116.048 114.69 116.102 114.683Z" fill="#C7C7C7"/>
<path d="M21.5161 76.0648L22.6005 76.2699L22.8435 77.4392L23.0829 76.2699L24.1673 76.0648L23.0899 75.795L22.8435 74.6941L22.597 75.795L21.5161 76.0648Z" fill="#C7C7C7"/>
<path d="M8.98547 93.7373C9.06858 93.7373 9.14828 93.771 9.20704 93.8311C9.26581 93.8911 9.29882 93.9726 9.29882 94.0575C9.29882 94.1424 9.26581 94.2239 9.20704 94.2839C9.14828 94.344 9.06858 94.3777 8.98547 94.3777C8.90236 94.3777 8.82266 94.344 8.7639 94.2839C8.70513 94.2239 8.67212 94.1424 8.67212 94.0575C8.67212 93.9726 8.70513 93.8911 8.7639 93.8311C8.82266 93.771 8.90236 93.7373 8.98547 93.7373Z" fill="#C7C7C7"/>
<path d="M52.3336 70.0891C52.4167 70.0891 52.4964 70.1228 52.5552 70.1829C52.614 70.2429 52.647 70.3244 52.647 70.4093C52.647 70.4942 52.614 70.5757 52.5552 70.6357C52.4964 70.6958 52.4167 70.7295 52.3336 70.7295C52.2505 70.7295 52.1708 70.6958 52.112 70.6357C52.0533 70.5757 52.0203 70.4942 52.0203 70.4093C52.0203 70.3244 52.0533 70.2429 52.112 70.1829C52.1708 70.1228 52.2505 70.0891 52.3336 70.0891Z" fill="#C7C7C7"/>
<path d="M15.5094 37.6484C15.5682 37.6484 15.6247 37.6723 15.6663 37.7148C15.7078 37.7573 15.7312 37.815 15.7312 37.8751C15.7312 37.9352 15.7078 37.9929 15.6663 38.0354C15.6247 38.0779 15.5682 38.1018 15.5094 38.1018C15.4506 38.1018 15.3942 38.0779 15.3526 38.0354C15.311 37.9929 15.2876 37.9352 15.2876 37.8751C15.2876 37.815 15.311 37.7573 15.3526 37.7148C15.3942 37.6723 15.4506 37.6484 15.5094 37.6484Z" fill="#C7C7C7"/>
<path d="M12.6647 35.5581C12.8168 35.57 12.959 35.6401 13.0627 35.7546C13.1665 35.869 13.2241 36.0192 13.2241 36.1751C13.2241 36.3311 13.1665 36.4813 13.0627 36.5957C12.959 36.7101 12.8168 36.7802 12.6647 36.7921C12.5125 36.7802 12.3703 36.7101 12.2666 36.5957C12.1629 36.4813 12.1052 36.3311 12.1052 36.1751C12.1052 36.0192 12.1629 35.869 12.2666 35.7546C12.3703 35.6401 12.5125 35.57 12.6647 35.5581Z" fill="#C7C7C7"/>
<path d="M115.257 64.1924C115.417 64.1924 115.57 64.2572 115.683 64.3726C115.796 64.488 115.859 64.6444 115.859 64.8076C115.859 64.9708 115.796 65.1272 115.683 65.2426C115.57 65.358 115.417 65.4228 115.257 65.4228C115.097 65.4228 114.944 65.358 114.831 65.2426C114.718 65.1272 114.655 64.9708 114.655 64.8076C114.655 64.6444 114.718 64.488 114.831 64.3726C114.944 64.2572 115.097 64.1924 115.257 64.1924Z" fill="#C7C7C7"/>
</svg>
